<?xml version="1.0" encoding="utf-8"?>
<!-- Generator: Adobe Illustrator 24.3.0, SVG Export Plug-In . SVG Version: 6.00 Build 0)  -->
<svg version="1.1" id="Calque_2" xmlns="http://www.w3.org/2000/svg" xmlns:xlink="http://www.w3.org/1999/xlink" x="0px" y="0px"
	 viewBox="0 0 570.84 317.96" style="enable-background:new 0 0 570.84 317.96;" xml:space="preserve">
<style type="text/css">
	.st0{fill:none;stroke:#000000;stroke-miterlimit:10;}
	.st1{fill:none;}
	.st2{font-family:'MyriadPro-Regular';}
	.st3{font-size:12px;}
	.st4{stroke:#000000;stroke-miterlimit:10;}
</style>
<path class="st0" d="M136.64,299.71c-3.61-6.63-6.33-26.51-2.11-40.36c-3.61-13.86-6.33-10.84-10.24-12.95
	c-3.92-2.11-31.33-2.41-44.58,9.64c-4.52-4.22,4.22-27.11,31.63-24.1c-1.81-3.61-12.65-3.61-15.06-4.22
	c-2.41-0.6,1.51-5.42-1.81-5.72c-3.31-0.3-4.52-3.61-9.64-3.61s-25.3,1.51-34.94,14.46c0-14.46,15.36-39.46,50-40.66
	c11.15,1.51,18.37,8.74,24.1,8.43c0,0-1.51-13.55,13.86-12.65c15.36,0.9,19.58,2.11,24.4,1.51c4.82-0.6,6.63-0.9,6.33,4.22
	c-0.3,5.12-5.42,7.77-5.12,9.91c0.3,2.14,8.13-0.57,12.65-2.68c4.52-2.11,6.02-3.61,12.35-3.61s27.11,7.83,29.82,10.54
	c2.71,2.71,12.35,12.35,12.95,18.07s5.72,17.13,3.61,17.9c-2.11,0.77-11.54-15.59-31.63-17.6c-6.02-0.6-3.92,2.11-8.13,2.11
	c-4.22,0-3.01,5.72-5.72,5.72c-2.71,0-11.15,0-15.36,2.11c7.53,1.51,28.01,3.31,30.42,16.57c2.41,13.25-0.3,11.15-0.3,11.15
	s-23.19-21.39-41.87-17.17c0,0-7.83,10.84-10.54,10.84c-2.71,0-12.95,8.13-11.75,27.71S136.64,299.71,136.64,299.71z"/>
<path class="st0" d="M111.33,231.93c0,0,17.17,7.23,21.69,7.23s-14.46-2.41-3.31-24.1c11.15-21.69,16.57-38.56,14.46-50.3
	c0,0-6.33-6.02-3.31-8.13c3.01-2.11,3.76,1.81,3.76,1.81s0.46-5.12,3.77-4.52c3.31,0.6,1.51,5.12,0,8.43
	c-1.51,3.31-1.69,28.31,1.87,38.56c3.55,10.24,15.9,25.9,2.35,38.25c10.54,0,21.39-3.01,21.39-3.01"/>
<path class="st0" d="M118.36,185.32c0.81,7.28,0.29,32.76,7.82,40.84"/>
<path class="st0" d="M108.55,196.51c2.66,5.42,12.92,33.63,18.43,35.54"/>
<path class="st0" d="M132.71,180.95c-1.52,7.72-8.02,37.23-6.21,42.87"/>
<path class="st0" d="M157.58,183c0.31,6.58,3.38,27.22,3.58,31.73c0.2,4.5,1.34,11.64-2.91,15.54"/>
<path class="st0" d="M170.68,189.75c-1.84,8.9-5.54,38.96-13,42.3"/>
<path class="st0" d="M181.22,196.51c-2.87,7.36-18.02,40.54-24.77,38.02"/>
<path d="M105.46,187.97c5.2-0.95,6.25,10.31,2.91,10.61C105.02,198.86,102.26,188.55,105.46,187.97z"/>
<path d="M114.19,178.31c5.16-3.23,7.37,4.09,5.36,7.01C117.54,188.25,112.59,179.31,114.19,178.31z"/>
<path d="M170.45,182.75c6.06,0.59,3.35,7.73-0.02,8.82C167.05,192.67,168.57,182.57,170.45,182.75z"/>
<path d="M130.73,175.08c2.91-1.6,6.25,6.4,2.91,6.61C130.3,181.91,127.83,176.68,130.73,175.08z"/>
<path d="M152.15,128.14c2.91-1.6,6.25,6.4,2.91,6.61S149.24,129.74,152.15,128.14z"/>
<path d="M180.13,193.95c0.68-3.51,4.87,2.07,1.53,3.58C178.31,199.04,179.76,195.84,180.13,193.95z"/>
<path d="M158.24,178.2c3.31,0.25,1.73,8.77-1.18,7.13S154.93,177.95,158.24,178.2z"/>
<path class="st0" d="M409.33,298.78c-3.61-6.63-6.33-26.51-2.11-40.36c-3.61-13.86-6.33-10.84-10.24-12.95
	c-3.92-2.11-31.33-2.41-44.58,9.64c-4.52-4.22,4.22-27.11,31.63-24.1c-1.81-3.61-12.65-3.61-15.06-4.22
	c-2.41-0.6,1.51-5.42-1.81-5.72c-3.31-0.3-4.52-3.61-9.64-3.61c-5.12,0-25.3,1.51-34.94,14.46c0-14.46,15.36-39.46,50-40.66
	c11.14,1.51,18.37,8.74,24.1,8.43c0,0-1.51-13.55,13.86-12.65c15.36,0.9,19.58,2.11,24.4,1.51c4.82-0.6,6.63-0.9,6.33,4.22
	c-0.3,5.12-5.42,7.77-5.12,9.91c0.3,2.14,8.13-0.57,12.65-2.68c4.52-2.11,6.02-3.61,12.35-3.61c6.33,0,27.11,7.83,29.82,10.54
	c2.71,2.71,12.35,12.35,12.95,18.07c0.6,5.72,5.72,17.13,3.61,17.9c-2.11,0.77-11.54-15.59-31.63-17.6
	c-6.02-0.6-3.92,2.11-8.13,2.11c-4.22,0-3.01,5.72-5.72,5.72c-2.71,0-11.14,0-15.36,2.11c7.53,1.51,28.01,3.31,30.42,16.57
	s-0.3,11.15-0.3,11.15s-23.19-21.39-41.87-17.17c0,0-7.83,10.84-10.54,10.84c-2.71,0-12.95,8.13-11.75,27.71
	C413.85,303.9,409.33,298.78,409.33,298.78z"/>
<path class="st0" d="M384.03,231c0,0,17.17,7.23,21.69,7.23s-14.46-2.41-3.31-24.1s16.57-38.56,14.46-50.3c0,0-6.33-6.02-3.31-8.13
	c3.01-2.11,3.76,1.81,3.76,1.81s0.46-5.12,3.77-4.52c3.31,0.6,1.51,5.12,0,8.43c-1.51,3.31-1.69,28.31,1.87,38.56
	c3.55,10.24,15.9,25.9,2.35,38.25c10.54,0,21.39-3.01,21.39-3.01"/>
<path class="st0" d="M391.06,184.39c0.81,7.28,0.29,32.76,7.82,40.84"/>
<path class="st0" d="M381.25,195.59c2.66,5.42,12.92,33.63,18.43,35.54"/>
<path class="st0" d="M405.4,180.02c-1.52,7.72-8.02,37.23-6.21,42.87"/>
<path class="st0" d="M430.27,182.07c0.31,6.58,3.38,27.22,3.58,31.73s1.34,11.64-2.91,15.54"/>
<path class="st0" d="M443.37,188.83c-1.84,8.9-5.54,38.96-13,42.3"/>
<path class="st0" d="M453.91,195.59c-2.87,7.36-18.02,40.54-24.77,38.02"/>
<path d="M378.15,187.04c5.2-0.95,6.25,10.31,2.91,10.61C377.72,197.94,374.96,187.62,378.15,187.04z"/>
<path d="M386.89,177.38c5.16-3.23,7.37,4.09,5.36,7.01C390.24,187.32,385.29,178.38,386.89,177.38z"/>
<path d="M443.15,181.82c6.06,0.59,3.35,7.73-0.02,8.82C439.75,191.74,441.27,181.64,443.15,181.82z"/>
<path d="M403.43,174.16c2.91-1.6,6.25,6.4,2.91,6.61C402.99,180.98,400.52,175.76,403.43,174.16z"/>
<path d="M452.83,193.02c0.68-3.51,4.87,2.07,1.53,3.58C451.01,198.11,452.46,194.91,452.83,193.02z"/>
<path d="M430.93,177.27c3.31,0.25,1.73,8.77-1.18,7.13C426.84,182.75,427.63,177.02,430.93,177.27z"/>
<rect x="295.16" y="58.06" class="st1" width="58.49" height="14.07"/>
<text transform="matrix(1 0 0 1 295.1567 66.576)" class="st2 st3">Pollenator </text>
<rect x="224.55" y="92.97" class="st1" width="39.43" height="14.07"/>
<text transform="matrix(1 0 0 1 224.5515 101.4937)" class="st2 st3">Pollen</text>
<rect x="395.59" y="106.14" class="st1" width="39.43" height="14.07"/>
<text transform="matrix(1 0 0 1 395.5928 114.6599)" class="st2 st3">Pollen</text>
<rect x="454.63" y="151.79" class="st1" width="39.43" height="14.07"/>
<text transform="matrix(1 0 0 1 454.632 160.3074)" class="st2 st3">Stigma</text>
<rect x="305.73" y="236.15" class="st1" width="39.43" height="14.07"/>
<text transform="matrix(1 0 0 1 305.7333 244.6694)" class="st2 st3">Ovule</text>
<rect x="51.84" y="167.84" class="st1" width="39.43" height="25.4"/>
<text transform="matrix(1 0 0 1 51.8384 176.3603)"><tspan x="0" y="0" class="st2 st3">Pollen</tspan><tspan x="0" y="14.4" class="st2 st3">grains</tspan></text>
<rect x="513.78" y="210.36" class="st1" width="39.43" height="14.07"/>
<text transform="matrix(1 0 0 1 513.7844 218.8764)" class="st2 st3">Ovary</text>
<line class="st0" x1="89.66" y1="179.78" x2="114.19" y2="179.78"/>
<path d="M144.68,119.02c6.06,0.59,3.35,7.73-0.02,8.82C141.28,128.94,142.81,118.84,144.68,119.02z"/>
<path d="M158.56,115.62c5.16-3.23,7.37,4.09,5.36,7.01C161.91,125.56,156.96,116.62,158.56,115.62z"/>
<path d="M138.58,133.34c0.68-3.51,4.87,2.07,1.53,3.58S138.22,135.23,138.58,133.34z"/>
<path class="st0" d="M122.28,167.47c1.5-6.54,9.96-17.29,9.96-17.29"/>
<path class="st0" d="M164.65,105.77c10.54-7.48,37.18-28.98,56.34-30.85"/>
<path class="st0" d="M300.91,72.12c13.09,2.8,44.4,20.1,49.07,22.9"/>
<path class="st0" d="M394.97,131.34c0,0,6.02,4.81,9.96,10.42"/>
<path d="M375.23,125.48c2.91-1.6,6.25,6.4,2.91,6.61S372.32,127.08,375.23,125.48z"/>
<path d="M367.77,116.36c6.06,0.59,3.35,7.73-0.02,8.82C364.37,126.29,365.89,116.18,367.77,116.36z"/>
<path d="M381.64,112.97c5.16-3.23,7.37,4.09,5.36,7.01C384.99,122.91,380.04,113.97,381.64,112.97z"/>
<path d="M372.85,109.2c0.68-3.51,4.87,2.07,1.53,3.58C371.04,114.29,372.49,111.09,372.85,109.2z"/>
<line class="st4" x1="240.77" y1="90.35" x2="250.72" y2="74.93"/>
<line class="st0" x1="89.66" y1="179.78" x2="114.19" y2="179.78"/>
<line class="st0" x1="421.88" y1="156.76" x2="446.41" y2="156.76"/>
<line class="st0" x1="427.95" y1="215.59" x2="505.74" y2="215.59"/>
<path class="st0" d="M244.74,68.62c-1.84-1.77,1.9-6.45,8.55-8.22c3.56-0.95,7.96-1.06,12.78,0.56
	C279.88,65.61,255.13,78.61,244.74,68.62z"/>
<path class="st0" d="M272.91,56.73c0-2.46-1.23-16-7.8-15.59c-6.56,0.41-3.15,4.38-3.15,4.38s-5.2-4.1-10.39-2.6
	c-5.2,1.5-2.6,8.07,0,9.71c-5.06,0.96,1.71,7.78,1.71,7.78"/>
<path class="st0" d="M266.07,60.96c5.33-3.69,6.78-5.06,12.96-3.83c6.18,1.23,6.32,9.85,3.72,12.04c-2.6,2.19-9.82,4.21-17.22,0.6"
	/>
<g>
	<path d="M260.91,72.16c-0.95,1.78-1.86,3.72-2.97,5.52c-0.56,0.9-1.16,1.78-1.86,2.58c-0.7,0.78-1.55,1.54-2.58,1.77
		c0.98-0.4,1.63-1.23,2.18-2.08c0.54-0.86,0.98-1.79,1.37-2.73c0.39-0.94,0.73-1.92,1.06-2.89c0.33-0.98,0.62-1.96,0.98-2.99
		L260.91,72.16z"/>
</g>
<g>
	<path d="M266.45,70.19c-0.95,1.78-1.86,3.72-2.97,5.52c-0.56,0.9-1.16,1.78-1.86,2.58c-0.7,0.78-1.55,1.54-2.58,1.77
		c0.98-0.4,1.63-1.23,2.18-2.08c0.54-0.86,0.98-1.79,1.37-2.73c0.39-0.94,0.73-1.92,1.06-2.89c0.33-0.98,0.62-1.96,0.98-2.99
		L266.45,70.19z"/>
</g>
<g>
	<path d="M269.99,70.58c0.43,1.97,0.98,4.05,1.29,6.13c0.16,1.05,0.27,2.11,0.24,3.17c-0.03,1.05-0.19,2.17-0.83,3.02
		c0.49-0.94,0.45-2,0.33-2.99c-0.14-1.01-0.41-2-0.72-2.97c-0.31-0.97-0.68-1.93-1.06-2.89c-0.38-0.96-0.79-1.9-1.18-2.91
		L269.99,70.58z"/>
</g>
<g>
	<path d="M274.77,71.47c0.43,1.97,0.98,4.05,1.29,6.13c0.16,1.05,0.27,2.11,0.24,3.17c-0.03,1.05-0.19,2.17-0.83,3.02
		c0.49-0.94,0.45-2,0.33-2.99c-0.14-1.01-0.41-2-0.72-2.97c-0.31-0.97-0.68-1.93-1.06-2.89c-0.38-0.96-0.79-1.9-1.18-2.91
		L274.77,71.47z"/>
</g>
<polygon points="219.36,69.79 221.84,80.07 237.77,70.86 "/>
<polygon points="407.15,138.83 401.39,142.67 410.56,149.86 "/>
<polygon points="127.26,152.8 133.42,155.93 135.19,144.42 "/>
<polygon points="346.8,86.92 341.44,96.04 359.3,100.49 "/>
</svg>
