<?xml version="1.0" encoding="utf-8"?>
<!-- Generator: Adobe Illustrator 24.3.0, SVG Export Plug-In . SVG Version: 6.00 Build 0)  -->
<svg version="1.1" id="Calque_3" xmlns="http://www.w3.org/2000/svg" xmlns:xlink="http://www.w3.org/1999/xlink" x="0px" y="0px"
	 viewBox="0 0 701.1 210.6" style="enable-background:new 0 0 701.1 210.6;" xml:space="preserve">
<style type="text/css">
	.st0{fill:none;stroke:#000000;stroke-miterlimit:10;}
	.st1{fill:none;stroke:#000000;stroke-linecap:round;stroke-linejoin:round;stroke-miterlimit:10;}
	.st2{fill:none;stroke:#000000;stroke-width:0.75;stroke-linecap:round;stroke-miterlimit:10;}
	.st3{fill:none;stroke:#000000;stroke-linecap:round;stroke-miterlimit:10;}
	.st4{fill:none;}
	.st5{font-family:'ArialMT';}
	.st6{font-size:14.6261px;}
</style>
<g>
	<path d="M114.2,103.2c0,0,2.2,13.5,3,18"/>
	<path d="M114.4,103.1c0.9,0.6,1.4,1.3,1.8,2c0.3,0.7,0.6,1.4,0.5,2.2c-0.2,0.8-0.7,1.7-0.7,2.4c0,0.8,0.3,1.5,0.9,2.2
		c0.5,0.7,1,1.4,1.2,2.1c0.3,0.7,0.6,1.4,0.6,2.2c0,0.8,0,1.5-0.2,2.3c-0.2,0.8-0.5,1.6-1.1,2.5l-0.4,0.1c-0.8-0.6-1.4-1.3-1.9-2
		c-0.5-0.7-0.8-1.4-1-2.2c-0.2-0.7-0.1-1.5-0.1-2.3c0-0.8,0.2-1.6,0.5-2.4c0.3-0.8,0.4-1.6,0.1-2.3c-0.2-0.7-1.1-1.4-1.5-2.1
		c-0.4-0.7-0.4-1.5-0.2-2.3c0.1-0.8,0.4-1.6,1.1-2.5L114.4,103.1z"/>
</g>
<path class="st0" d="M117.1,107c3.3-5.9,13-17.5,19.3-16.4c6.3,1.1,0.4,35.7-20.8,24.1L117.1,107z"/>
<path class="st1" d="M115.6,114.8c1.5,6.3,5.6,8.9,13.7,6.3C137.6,118.5,115.6,114.8,115.6,114.8z"/>
<path class="st0" d="M117.1,107c-7.4-2.6-19-14.9-26.8-13.4c-7.8,1.5,4,29.9,25.3,21.2"/>
<path class="st0" d="M116.5,119.7c-3.3,1.7-20.2,16.9-6.6-3.1"/>
<path class="st2" d="M105.2,93.8c0,0,6.1,1.4,9,10"/>
<path class="st2" d="M112.1,90.5c0,0,4.5,4.4,2.4,13.2"/>
<path class="st3" d="M210.4,71.9c0,0-5.2,14.8,1.1,18.8c6.3,4.1,10.4-9,8.1-17.6c-0.9-3.4,0.1-2.7,0.6-5.9c0.5-3.2-2.2-4.1-2.2-4.1
	s2.9-6.5,0-6.8s-4.3,0.5-3.8,4.7c-2,1.8-2.7,4-2.5,6.5C212,70.1,210.4,71.9,210.4,71.9z"/>
<line class="st3" x1="205.9" y1="48.6" x2="215" y2="57.3"/>
<line class="st3" x1="218.3" y1="56.5" x2="228.7" y2="49.5"/>
<path class="st3" d="M208.1,57.3c0.2,5.1-0.9,10.5,3.6,10.5"/>
<path class="st3" d="M228.4,56.5c-0.9,5.2-3.5,10.6-8.2,10.8"/>
<path class="st3" d="M209.9,72.8c0,0-1.9-2.3-4.6,0c-2.7,2.3-8.8,6.5-8.8,6.5"/>
<path class="st3" d="M220.3,75.7c3.4-0.7,6.5,2.4,9.4,7.8"/>
<polyline class="st3" points="208.1,80.8 203.5,80.8 196.9,92.7 "/>
<polyline class="st3" points="220.3,82 225.1,83.5 226.6,98 "/>
<rect x="76.8" y="132.2" class="st4" width="116" height="48.6"/>
<text transform="matrix(1 0 0 1 76.8052 142.535)" class="st5 st6">Les papillons </text>
<rect x="168.6" y="107.1" class="st4" width="116" height="48.6"/>
<text transform="matrix(1 0 0 1 168.6411 117.4481)" class="st5 st6">Les coléoptères </text>
<rect x="284.9" y="133" class="st4" width="116" height="48.6"/>
<text transform="matrix(1 0 0 1 284.9399 143.4295)" class="st5 st6">Les abeilles  </text>
<rect x="388.3" y="127.4" class="st4" width="116" height="48.6"/>
<text transform="matrix(1 0 0 1 388.3232 137.8162)" class="st5 st6">Les syrphes </text>
<rect x="482.1" y="100.4" class="st4" width="116" height="48.6"/>
<text transform="matrix(1 0 0 1 482.0537 110.7313)" class="st5 st6">Les mites </text>
<rect x="541.6" y="129.7" class="st4" width="116" height="48.6"/>
<text transform="matrix(1 0 0 1 541.5908 140.0789)" class="st5 st6">Les guêpes </text>
<path class="st3" d="M322.7,68.9c10.2-0.3,23.3,23.4,0,22.4C299.4,90.4,312.5,69.2,322.7,68.9z"/>
<path class="st3" d="M322.7,68.9c-2.5-5.4,0.4-8.1,4.4-7.8c4,0.3,14.4,6.7,2.1,10.4"/>
<line class="st3" x1="309.6" y1="57.6" x2="316.2" y2="71.4"/>
<line class="st3" x1="333.7" y1="76.8" x2="347.5" y2="64.5"/>
<path class="st3" d="M312.9,49.8c2.8,0.3,13.2,6.5,14.1,11.3"/>
<path class="st3" d="M330.4,61c0,0,4.2-7.1,13.7-3.4"/>
<polyline class="st3" points="309.3,83.3 303.8,86.3 292.8,95.7 "/>
<polyline class="st3" points="334.9,86.6 345.6,95.7 350.9,105.7 "/>
<path class="st1" d="M295,110.7l7.6-15.1l9.6-7.5c-0.6,0.8-1.2,2-1.8,3.4c-3.2,8.1-5.5,24.3,7.2,24.6c14.9,0.4,18.6-17.8,13.1-24.9
	l9.9,9.2l2.3,21.2"/>
<g>
	<g>
		<path d="M406.2,64.1c0.1,1.2,0.5,2.3,0.7,3.4c0.3,1.4,0.3,2.7,0.2,4.1c-0.1,2.3-0.5,4.7-0.1,7c0.4,2.5,2,4.7,2.5,7.3
			c0.5,2.7,0.3,5.5,0.2,8.2c-0.2,4.7,0.2,9.7,2,14c1.3,3.1,4.4,7.5,8.4,6.8c4.2-0.8,5-5.9,5.3-9.4c0.4-5-0.2-10-1.8-14.8
			c-0.8-2.6-1.7-5.1-1.8-7.9c-0.1-2.5,0.1-5-0.1-7.5c-0.2-2.2-0.8-4.1-1.9-6.1c-0.5-1-1-2-1.2-3.1c-0.2-1.2-0.2-2.4-0.7-3.5
			C415.4,57,406.3,57.5,406.2,64.1c0,0.9,1.4,0.9,1.5,0c0-2.7,2.1-4.3,4.8-3.9c1.1,0.2,2.3,0.7,3.1,1.5c1.2,1.2,1.3,2.7,1.6,4.4
			c0.3,1.8,1.2,3.2,2,4.8c1,2.2,1.2,4.5,1.2,6.8c0,4,0,7.6,1.2,11.5c1.4,4.2,2.4,8.4,2.5,12.9c0,3.3,0.1,11.2-4.7,11.4
			c-4.3,0.2-6.7-6.2-7.4-9.5c-1-4.3-0.8-8.5-0.7-12.9c0.1-2.1,0-4.2-0.5-6.3c-0.5-2.3-1.9-4.3-2.3-6.7c-0.4-2.4,0.1-4.8,0.2-7.2
			c0.1-2.4-0.7-4.5-0.9-6.9C407.6,63.1,406.1,63.1,406.2,64.1z"/>
	</g>
</g>
<g>
	<g>
		<path d="M424.9,50.9c-0.7,1.8-1.5,3.5-2,5.4c-0.2,0.9-0.4,1.8-0.3,2.7c0.1,0.8,0.4,1.7,0.6,2.5c0.7,3.1-0.8,6.5-3.5,8.2
			c-0.8,0.5-0.1,1.8,0.7,1.3c2.7-1.7,4.4-4.8,4.4-8c0-1.9-1-3.7-0.7-5.6c0.4-2.1,1.4-4.1,2.2-6C426.7,50.4,425.3,50.1,424.9,50.9
			L424.9,50.9z"/>
	</g>
</g>
<g>
	<g>
		<path d="M435.4,58.6c-3.2,2.3-6.6,6.1-5.1,10.4c0.4,1,1.1,2.1,0.9,3.2c-0.3,1.1-2,1.3-2.9,1.6c-2.4,0.8-4.8,1.7-7.1,2.5
			c-0.9,0.3-0.5,1.7,0.4,1.4c2.4-0.9,4.9-1.7,7.3-2.6c1.8-0.7,3.9-1.2,3.8-3.6c0-1.1-0.6-2-1-3c-0.4-1.1-0.4-2.3,0-3.4
			c0.7-2.3,2.6-4,4.5-5.4C436.9,59.3,436.2,58,435.4,58.6L435.4,58.6z"/>
	</g>
</g>
<g>
	<g>
		<path d="M396.8,55.8c1.1,1.7,2.3,3.5,2.9,5.5c0.3,1,0.5,2.1,0.4,3.1c0,1.1-0.2,2.1,0,3.2c0.6,3.3,3.9,5.4,7.1,5
			c0.9-0.1,0.5-1.5-0.4-1.4c-1.5,0.2-3-0.5-4-1.5c-1.3-1.3-1.4-2.9-1.3-4.6c0.2-3.8-1.5-6.9-3.5-10C397.5,54.3,396.3,55,396.8,55.8
			L396.8,55.8z"/>
	</g>
</g>
<g>
	<g>
		<path d="M388.5,66.5c2.2,1.2,4.4,2.3,6.6,3.5c0.2,0.1,0.6,0.2,0.7,0.4c0.2,0.2,0.1,0.5,0.1,0.8c-0.1,0.5-0.1,1.1-0.2,1.6
			c0,1.1,0.1,2.2,0.3,3.2c0.2,0.9,0.4,2,1,2.7c0.6,0.8,1.5,0.7,2.4,0.7c2.5-0.1,5-0.1,7.5-0.2c0.9,0,0.9-1.5,0-1.5
			c-2.3,0.1-4.6,0.1-6.9,0.2c-0.5,0-1.1,0.1-1.6-0.1c-0.5-0.2-0.6-1-0.8-1.5c-0.3-1.1-0.5-2.2-0.4-3.3c0-0.9,0.4-1.9,0.2-2.8
			c-0.2-1-1.2-1.3-2-1.7c-2.1-1.1-4.2-2.2-6.3-3.3C388.4,64.8,387.7,66.1,388.5,66.5L388.5,66.5z"/>
	</g>
</g>
<g>
	<g>
		<path d="M409.7,90.3c-2.1,1.6-4.2,3.3-6.1,5.2c-1.7,1.7-2.8,3.6-1.9,6c0.4,1.1,1.1,2.1,1.6,3.2c0.7,1.4,1,2.9,0.9,4.5
			c-0.1,3.2-1.4,6.2-2.6,9.1c-0.4,0.8,0.9,1.6,1.3,0.7c2-4.5,4.1-9.7,1.9-14.6c-0.5-1.1-1.2-2.1-1.6-3.2c-0.7-1.7-0.2-2.9,1-4.2
			c1.9-2,4.1-3.8,6.3-5.4C411.2,91,410.5,89.7,409.7,90.3L409.7,90.3z"/>
	</g>
</g>
<g>
	<g>
		<path d="M422.4,89.8c1.3,0.4,2.6,0.8,4,1.2c1.3,0.4,2.9,0.5,3.5,1.8c1.2,2.6,1.1,5.5,1.2,8.2c0.1,2.4,1.1,4.1,2.6,5.9
			c1.7,2.2,3.2,4.6,4.3,7.2c0.4,0.9,1.6,0.1,1.3-0.7c-1.1-2.6-2.5-5-4.2-7.2c-0.9-1.1-1.8-2.3-2.2-3.7c-0.4-1.5-0.1-3.1-0.2-4.6
			c-0.1-1.4-0.3-2.7-0.7-4c-0.3-1-0.5-2.2-1.3-2.9c-0.8-0.8-2.3-1-3.3-1.3c-1.5-0.4-2.9-0.9-4.4-1.3
			C421.9,88.2,421.5,89.6,422.4,89.8L422.4,89.8z"/>
	</g>
</g>
<g>
	<g>
		<path d="M407.4,77.6c-5.4,6.4-10.8,12.8-15.8,19.5c-2.5,3.4-5,6.8-7.4,10.3c-1.9,2.8-4.2,5.9-4.8,9.3c-0.3,2.1,0.4,4.5,2.8,4.9
			c3.2,0.6,6.3-2.6,8.5-4.5c5.7-5.1,11.6-10.6,15.6-17.2c2.1-3.5,3.6-7.4,4.1-11.5c0.2-1.9,0.2-3.8-0.2-5.7
			c-0.1-0.8-0.3-1.6-0.6-2.3c-0.2-0.5-1.4-1.8-1.4-2.4c0-0.5-0.7-0.5-0.7,0c0,1,1.1,1.8,1.4,2.7c0.7,1.7,0.8,3.7,0.8,5.5
			c0,3.6-1,7.2-2.6,10.4c-2.9,6.2-7.8,11.2-12.8,15.9c-2.5,2.4-5,4.9-7.9,6.9c-1.6,1.1-4.5,2.4-5.9,0.2c-0.9-1.5-0.4-3.5,0.2-5
			c1.2-3.2,3.5-6.1,5.4-9c2-2.9,4.1-5.7,6.2-8.6c5-6.5,10.2-12.9,15.5-19.1C408.2,77.7,407.7,77.2,407.4,77.6L407.4,77.6z"/>
	</g>
</g>
<g>
	<g>
		<path d="M420.4,71.4c5.3,4.8,10.7,9.5,16.1,14.2c5.1,4.4,10.8,8.4,15.7,13c1.2,1.2,2.3,2.4,3.3,3.8c1,1.4,2.5,3.6,2.2,5.2
			c-0.2,1.1-0.4,1-1.4,1.1c-0.4,0-0.8,0.1-1.3,0.1c-1.1,0-2.1-0.2-3.2-0.5c-1.7-0.4-3.3-1-4.9-1.6c-6.1-2.4-12.3-6-17.4-10.2
			c-5.6-4.6-8.6-11.7-8.1-18.9c0-0.5-0.7-0.5-0.7,0c-0.4,6.3,1.8,12.7,6.1,17.4c2.4,2.6,5.5,4.5,8.5,6.4c3.2,2,6.6,4,10.1,5.5
			c3.1,1.3,6.7,2.8,10.2,2.7c0.9,0,2.5-0.1,3.1-0.9c0.7-0.9-0.2-2-0.6-2.8c-3.4-7-9.7-11.1-15.5-16c-7.4-6.1-14.6-12.5-21.8-18.9
			C420.6,70.6,420.1,71.1,420.4,71.4L420.4,71.4z"/>
	</g>
</g>
<g>
	<g>
		<path d="M511.5,65.7c-3.7,2.7-7.2,5.6-10.4,8.8c-1.6,1.6-3.1,3.2-4.6,4.9c-1.4,1.6-2.9,3.3-3.8,5.3c-1.2,2.8-0.6,6.8,2.9,7.6
			c1.7,0.4,3.4-0.2,5-0.9c2.4-1.1,4.6-2.5,6.9-3.7c-0.4-0.1-0.7-0.3-1.1-0.4c1.5,3.8,4.4,6.9,8.2,8.5c1.5,0.6,3.4,1.2,5,0.6
			c1.7-0.6,2.2-2.4,2.4-4c0.9-9.7-4.5-18.8-10.2-26.2c-0.6-0.7-1.8,0-1.3,0.7c4.7,6.1,9.1,13.2,9.9,21.1c0.2,1.7,0.3,3.8-0.1,5.5
			c-0.7,2.6-3.6,1.7-5.4,0.9c-3.3-1.4-5.9-4.2-7.1-7.5c-0.2-0.4-0.6-0.7-1.1-0.4c-1.8,1-3.6,2-5.4,3c-1.6,0.8-3.5,2-5.3,1.6
			c-1.8-0.4-2.6-2.2-2.4-3.9c0.2-2,1.6-3.7,2.8-5.2c4.6-5.6,10-10.6,15.9-14.9C513,66.5,512.2,65.2,511.5,65.7L511.5,65.7z"/>
	</g>
</g>
<g>
	<g>
		<path d="M511,67.7c0-0.1-0.1-0.1-0.1-0.2c0,0,0,0,0-0.1c0,0.1,0.1,0.1,0,0.1c0,0,0-0.1,0-0.1c-0.1-0.2-0.1-0.3-0.1-0.5
			c0,0.1,0,0.1,0,0.2c0-0.2,0-0.4,0-0.6c0,0.1,0,0.1,0,0.2c0-0.1,0-0.2,0.1-0.3c0,0,0-0.1,0-0.1c0.1-0.2-0.1,0.1,0,0
			c0-0.1,0.1-0.1,0.1-0.2c0,0,0,0,0-0.1c0,0,0,0.1-0.1,0.1c0,0,0.1-0.1,0.1-0.1c0,0,0,0,0.1-0.1c0.1-0.1-0.1,0.1,0,0
			c0.1,0,0.1-0.1,0.2-0.1c0.1-0.1-0.2,0.1,0,0c0,0,0.1,0,0.1,0c0.1,0,0.1,0,0.2,0c-0.1,0-0.1,0-0.2,0c0.1,0,0.3,0,0.4,0
			c-0.1,0-0.1,0-0.2,0c0.1,0,0.2,0,0.4,0.1c0.1,0-0.2-0.1-0.1,0c0,0,0,0,0.1,0c0.1,0,0.2,0.2,0,0c0,0,0.1,0.1,0.1,0.1
			c0,0.1,0.1,0.1,0-0.1c0,0,0,0,0,0.1c0,0,0,0,0,0.1c0.1,0.1-0.1-0.2,0-0.1c0,0.1,0,0.1,0,0.2c0-0.1,0-0.1,0-0.2c0,0.1,0,0.2,0,0.3
			c0-0.1,0-0.1,0-0.2c0,0.1,0,0.2-0.1,0.3c0.1-0.1,0.1-0.1,0-0.1c0,0,0,0,0,0.1c0,0,0,0.1-0.1,0.1c0,0-0.1,0.1-0.1,0.1
			c0.1-0.2,0-0.1,0,0c-0.1,0.1-0.1,0.1-0.2,0.2c-0.1,0.1-0.1,0.1-0.2,0.2c0.2-0.2,0,0,0,0c0,0-0.1,0.1-0.1,0.1
			c-0.2,0.1-0.3,0.2-0.5,0.3c-0.3,0.2-0.5,0.7-0.3,1c0.2,0.3,0.6,0.5,1,0.3c0.7-0.4,1.3-0.8,1.7-1.5c0.4-0.7,0.4-1.7-0.2-2.3
			c-0.5-0.5-1.3-0.7-2-0.5c-0.8,0.1-1.3,0.8-1.6,1.5c-0.3,0.8-0.1,1.8,0.4,2.5c0.2,0.3,0.7,0.5,1,0.3
			C511.1,68.5,511.2,68.1,511,67.7L511,67.7z"/>
	</g>
</g>
<g>
	<g>
		<path d="M502.1,54.4c1,0.6,1.8,1.4,2.6,2.3c0.9,1,1.8,1.9,2.6,2.9c1.5,1.7,3.2,3.4,3.7,5.7c0.2,0.9,1.6,0.5,1.4-0.4
			c-0.5-2.5-2.3-4.3-3.9-6.1c-0.9-1-1.9-2-2.8-3.1c-0.9-0.9-1.8-1.8-2.9-2.5C502,52.7,501.2,53.9,502.1,54.4L502.1,54.4z"/>
	</g>
</g>
<g>
	<g>
		<path d="M512.2,66.7c4.3-2.4,8.8-4.9,13.9-5c0.9,0,0.9-1.5,0-1.5c-5.3,0.1-10.1,2.7-14.6,5.2C510.6,65.9,511.4,67.2,512.2,66.7
			L512.2,66.7z"/>
	</g>
</g>
<g>
	<g>
		<path d="M507.1,66.2c0,1,0.2,1.9,0.6,2.8c0.1,0.2,0.3,0.3,0.4,0.3c0.2,0,0.4,0,0.6-0.1c0.2-0.1,0.3-0.2,0.3-0.4
			c0-0.2,0-0.4-0.1-0.6c0-0.1,0-0.1-0.1-0.2c0,0.1,0,0.1,0.1,0.2c-0.2-0.5-0.3-0.9-0.4-1.4c0,0.1,0,0.1,0,0.2c0-0.3-0.1-0.6,0-0.8
			c0-0.4-0.3-0.7-0.7-0.7C507.4,65.5,507.1,65.8,507.1,66.2L507.1,66.2z"/>
	</g>
</g>
<g>
	<g>
		<path d="M500.2,66c0.4,0.8,0.9,1.6,1.3,2.3c0.4,0.7,0.8,1.5,1.2,2.2c0.6,0.8,1.4,0.9,2.3,0.5c0.3-0.2,0.5-0.4,0.8-0.6
			c0.1-0.1,0.2-0.1,0.4-0.2c-0.1,0,0.1,0,0,0c-0.1,0,0.1,0,0.1,0.1c0.3,0.2,0.8,0,1-0.3c0.2-0.4,0.1-0.8-0.3-1
			c-0.6-0.5-1.5-0.2-2.1,0.2c-0.2,0.2-0.5,0.4-0.8,0.5c0,0-0.1,0-0.2,0c0,0,0,0,0,0c-0.1,0-0.1,0,0,0c0,0-0.1-0.1-0.1-0.2
			c-0.8-1.4-1.6-2.9-2.4-4.4C501,64.4,499.7,65.1,500.2,66L500.2,66z"/>
	</g>
</g>
<g>
	<g>
		<path d="M514.7,69.5c0.7-0.7,1.4-1.3,2.2-2c0.3-0.3,0.3-0.8,0-1c-0.3-0.3-0.7-0.3-1,0c-0.7,0.7-1.4,1.3-2.2,2
			c-0.3,0.3-0.3,0.8,0,1C513.9,69.8,514.4,69.8,514.7,69.5L514.7,69.5z"/>
	</g>
</g>
<g>
	<g>
		<path d="M515.7,71.2c0.2-0.5,0.8-0.8,1.3-0.6c0.3,0.1,0.5,0.4,0.8,0.6c0.4,0.3,0.8,0.5,1.3,0.6c2.1,0.3,3.5-1.4,4.5-3
			c0.5-0.8-0.8-1.5-1.3-0.7c-0.5,0.7-1,1.6-1.7,2c-0.3,0.2-0.7,0.3-1.1,0.3c-0.4,0-0.7-0.2-1-0.5c-0.7-0.6-1.4-0.9-2.3-0.8
			c-0.8,0.1-1.5,0.6-1.8,1.4c-0.2,0.4-0.1,0.8,0.3,1C515,71.6,515.5,71.5,515.7,71.2L515.7,71.2z"/>
	</g>
</g>
<g>
	<g>
		<path d="M574.5,87.6c0.1,1.6-1,2.7-1.6,4.1c-0.6,1.4-0.5,2.9-0.3,4.4c0.3,1.9,0.9,3.7,0,5.6c-0.7,1.4-1.3,2.7-1.7,4.2
			c-1.3,4.9,0.2,11.6,5.3,13.9c2.2,0.9,3.7-2.1,4.5-3.7c1-2.3,1.7-5,1.9-7.6c0.1-1.2,0.1-2.4-0.2-3.6c-0.3-1.2-1-1.9-1.7-2.9
			c-1-1.6,0.3-3.5,0.8-5.1c0.4-1.5,0.7-3,0.4-4.6c-0.1-0.9-0.6-1.7-0.8-2.6c-0.2-0.8,0.2-1.7,0.1-2.5c-0.2-1.1-1-1.9-2-2.3
			c-2.4-1-4.5,1.2-4.9,3.4c-0.2,0.9,1.3,1.3,1.4,0.4c0.2-0.9,0.5-1.8,1.3-2.3c1.4-0.8,2.7,0.2,2.6,1.8c0,0.5-0.2,0.9-0.1,1.5
			c0.1,0.7,0.4,1.3,0.6,2c0.6,1.9,0.2,3.7-0.4,5.5c-0.4,1.2-1.3,2.6-1.3,3.9c0,1.1,0.7,1.6,1.3,2.3c1,1.2,1.3,2.8,1.2,4.4
			c-0.1,2.8-0.9,6.1-2.2,8.5c-0.4,0.7-0.8,1.4-1.4,1.9c-0.8,0.6-1.4-0.1-2.1-0.6c-1.1-0.9-2-2.1-2.6-3.4c-1.5-3.2-1.2-7,0.3-10.2
			c0.5-1.2,1.3-2.2,1.5-3.5c0.2-1.3-0.2-2.7-0.4-4c-0.4-2.2-0.1-3.6,0.9-5.5c0.6-1.1,1-2,0.9-3.2C575.9,86.6,574.4,86.6,574.5,87.6
			L574.5,87.6z"/>
	</g>
</g>
<g>
	<g>
		<path d="M567,78.2c1.2,0.3,2.3,0.6,3.5,0.9c1,0.3,1.7,0.7,2.3,1.6c0.6,1,1.1,2,1.6,3c0.3,0.6,0.6,1.1,0.9,1.7
			c0.3,0.5,0.8,0.8,1.3,0.5c0.3-0.2,0.5-0.7,0.3-1c0,0,0,0,0,0c-0.5-0.8-1.8,0-1.3,0.7c0,0,0,0,0,0c0.1-0.3,0.2-0.7,0.3-1
			c0,0,0,0,0,0c0.1,0,0.2-0.1,0.4-0.1c0,0,0,0,0.1,0c0.1,0.1,0.2,0.1,0.3,0.2c-0.1-0.1-0.2-0.5-0.4-0.7c-0.1-0.3-0.3-0.5-0.4-0.8
			c-0.3-0.5-0.5-1.1-0.8-1.6c-0.5-0.9-0.9-1.8-1.6-2.6c-0.7-0.7-1.6-1.1-2.5-1.3c-1.1-0.3-2.3-0.6-3.4-0.9
			C566.4,76.6,566,78,567,78.2L567,78.2z"/>
	</g>
</g>
<g>
	<g>
		<path d="M589.3,76.3c-1.3,0.2-2.5,0.5-3.7,1c-1,0.5-2,1-2.7,1.9c-0.7,0.9-0.8,2.2-1.3,3.2c-0.5,1.1-1.2,2-2,2.8
			c-0.7,0.6,0.4,1.7,1,1c0.8-0.7,1.5-1.6,2-2.5c0.3-0.5,0.5-1,0.7-1.6c0.2-0.5,0.3-1.1,0.5-1.6c0.4-0.9,1.3-1.5,2.2-1.9
			c1-0.5,2.2-0.8,3.3-1c0.4-0.1,0.7-0.3,0.7-0.7C590,76.7,589.7,76.3,589.3,76.3L589.3,76.3z"/>
	</g>
</g>
<g>
	<g>
		<path d="M564.3,87.3c1,0.1,2,0.3,2.9,0.9c0.8,0.5,1.3,1.4,1.9,2.2c1.1,1.5,2.9,3.2,4.9,2.4c-0.2-0.4-0.5-0.8-0.7-1.2
			c-0.1,0.1-0.2,0.2-0.3,0.3c-0.7,0.7,0.4,1.7,1,1c0.1-0.1,0.2-0.2,0.3-0.3c0.5-0.5,0-1.5-0.7-1.2c-1.9,0.7-3.1-1.7-4-2.9
			c-0.6-0.8-1.3-1.5-2.2-1.9c-1-0.5-2-0.6-3-0.7C563.3,85.7,563.3,87.2,564.3,87.3L564.3,87.3z"/>
	</g>
</g>
<g>
	<g>
		<path d="M558.2,96.4c1.9,1.9,4.7,1.7,7.2,1.5c1.4-0.1,2.8,0.1,4.2-0.3c1.2-0.4,2.3-1.2,3.5-1.5c0.9-0.2,0.5-1.6-0.4-1.4
			c-1.1,0.3-2,1-3.1,1.4c-1.2,0.5-2.4,0.3-3.7,0.3c-2.2,0.1-5,0.7-6.7-1C558.6,94.7,557.6,95.7,558.2,96.4L558.2,96.4z"/>
	</g>
</g>
<g>
	<g>
		<path d="M588.1,84c-1,0-1.8,0.5-2.3,1.3c-0.6,0.8-0.8,1.8-1.1,2.8c-0.4,1.6-1.5,3-3.1,3.7c0.2,0.4,0.5,0.8,0.7,1.2
			c0.1-0.1,0.2-0.2,0.2-0.3c0.2-0.3,0.3-0.7,0-1c-0.3-0.3-0.8-0.3-1,0c-0.1,0.1-0.2,0.2-0.2,0.3c-0.2,0.2-0.3,0.6-0.1,0.9
			c0.1,0.3,0.5,0.5,0.8,0.3c1.7-0.6,3-1.9,3.7-3.5c0.4-0.9,0.5-1.9,0.9-2.8c0.2-0.6,0.8-1.3,1.5-1.3C589.1,85.4,589.1,84,588.1,84
			L588.1,84z"/>
	</g>
</g>
<g>
	<g>
		<path d="M596.7,99.4c-1.2-0.4-2.5-0.9-3.7-1.3c-1.2-0.4-2.4-0.8-3.7-0.8c-0.6,0-1.2,0.1-1.9,0.1c-0.7,0-1.3-0.2-1.9-0.4
			c-1.3-0.4-2.5-0.8-3.8-1.3c-0.9-0.3-1.3,1.1-0.4,1.4c1.2,0.4,2.4,0.9,3.6,1.2c1.3,0.4,2.4,0.5,3.8,0.3c1.3-0.1,2.5,0.3,3.7,0.7
			c1.3,0.5,2.6,0.9,3.9,1.4C597.2,101.1,597.6,99.7,596.7,99.4L596.7,99.4z"/>
	</g>
</g>
<g>
	<g>
		<path d="M572.9,93.9c-1,4.4-2.8,8.5-4.9,12.5c-1,1.9-2.1,3.7-3.1,5.5c-0.8,1.4-2.2,3.1-2.4,4.8c-0.2,1.5,0.8,3.3,1.8,4.4
			c0.8,0.9,1.6,0.4,2.3-0.3c2.7-2.5,3.8-6.2,4.8-9.6c0.1-0.5-0.6-0.6-0.7-0.2c-0.9,3-1.9,6.2-4.1,8.7c-0.7,0.7-1.3,1.4-2.2,0.4
			c-0.6-0.7-1.1-1.7-1.2-2.6c-0.2-1.8,1.4-3.8,2.3-5.3c3.4-5.7,6.7-11.6,8.1-18.2C573.7,93.7,573,93.5,572.9,93.9L572.9,93.9z"/>
	</g>
</g>
<g>
	<g>
		<path d="M580.9,92.3c1.6,4.9,3.2,9.7,4.8,14.6c1.6,4.8,3.7,9.8,2.7,14.9c0.2-0.1,0.4-0.1,0.6-0.2c-1.2-1.5-2.5-3-4.2-3.9
			c-1-0.6-2-0.6-2.6-1.8c-0.5-1.1-0.4-3-0.6-4.2c-0.1-0.5-0.8-0.5-0.7,0c0.2,1.7,0,4.8,1.6,5.9c1.1,0.7,2.3,0.9,3.3,1.8
			c1,0.8,1.8,1.8,2.6,2.8c0.2,0.2,0.6,0.1,0.6-0.2c0.9-4.9-0.8-9.6-2.4-14.2c-1.7-5.2-3.5-10.4-5.2-15.7
			C581.5,91.6,580.8,91.8,580.9,92.3L580.9,92.3z"/>
	</g>
</g>
<g>
	<g>
		<path d="M407.6,69.2c4.7,0,4.7-7.3,0-7.3S402.9,69.2,407.6,69.2L407.6,69.2z"/>
	</g>
</g>
<g>
	<g>
		<path d="M416,67.8c4.7,0,4.7-7.3,0-7.3C411.3,60.5,411.3,67.8,416,67.8L416,67.8z"/>
	</g>
</g>
<g>
	<g>
		<path d="M571.9,105.9c1.9,0.3,3.4,1.5,5.4,1.6c1.7,0.1,3.5-0.6,4.7-1.9c-0.4-0.3-0.8-0.6-1.2-0.9c-0.1,0.1-0.2,0.2-0.2,0.4
			c-0.5,0.8,0.7,1.5,1.3,0.7c0.1-0.1,0.2-0.2,0.2-0.4c0.5-0.7-0.6-1.5-1.2-0.9c-1,1.1-2.5,1.6-3.9,1.4c-1.7-0.2-3.1-1.3-4.7-1.5
			c-0.4-0.1-0.8,0.1-0.9,0.5C571.3,105.3,571.5,105.8,571.9,105.9L571.9,105.9z"/>
	</g>
</g>
<g>
	<g>
		<path d="M571.6,110.5c1.7-0.7,3.7-0.1,5.5,0c1.7,0.2,3.5,0,4.8-1.1c0.7-0.6-0.3-1.6-1-1c-1.2,1-3.1,0.8-4.6,0.6
			c-1.9-0.3-3.7-0.5-5.5,0.2c-0.4,0.2-0.4,0.7-0.3,1C570.9,110.6,571.3,110.7,571.6,110.5L571.6,110.5z"/>
	</g>
</g>
<g>
	<g>
		<path d="M572.8,115.1c0.6-0.5,1.4-0.3,2.1-0.2c0.9,0.1,1.7,0.3,2.6,0.2c1.6-0.2,3-1.1,3.9-2.3c0.2-0.3,0.1-0.8-0.3-1
			c-0.4-0.2-0.8-0.1-1,0.3c-0.8,1.1-2.2,1.7-3.5,1.7c-0.8,0-1.7-0.3-2.5-0.3c-0.8,0-1.6,0.2-2.3,0.7c-0.3,0.2-0.3,0.8,0,1
			C572.1,115.4,572.5,115.4,572.8,115.1L572.8,115.1z"/>
	</g>
</g>
<g>
	<g>
		<path d="M575.2,103.8c0.9,0,0.9-1.5,0-1.5S574.2,103.8,575.2,103.8L575.2,103.8z"/>
	</g>
</g>
<g>
	<g>
		<path d="M578.3,104.5c0.9,0,0.9-1.5,0-1.5C577.4,103,577.4,104.5,578.3,104.5L578.3,104.5z"/>
	</g>
</g>
<g>
	<g>
		<path d="M576.6,98.3c0.9,0,0.9-1.5,0-1.5C575.7,96.9,575.7,98.3,576.6,98.3L576.6,98.3z"/>
	</g>
</g>
<g>
	<g>
		<path d="M576.6,117c0.9,0,0.9-1.5,0-1.5C575.7,115.5,575.7,117,576.6,117L576.6,117z"/>
	</g>
</g>
<g>
	<g>
		<path d="M511.6,73.5c3.7,5.1,4.4,11.5,4.8,17.6c0,0.5,0.8,0.5,0.7,0c-0.4-6.2-1.1-12.8-4.9-18C512,72.7,511.3,73.1,511.6,73.5
			L511.6,73.5z"/>
	</g>
</g>
<g>
	<g>
		<path d="M511.7,79.8c1.2,3.6,1.9,7.4,2.1,11.2c0,0.4,0.6,0.5,0.7,0.1c0-0.1,0.1-0.2,0.1-0.3c0.1-0.5-0.6-0.7-0.7-0.2
			c0,0.1-0.1,0.2-0.1,0.3c0.2,0,0.5,0.1,0.7,0.1c-0.3-3.9-1-7.7-2.2-11.4C512.2,79.1,511.5,79.3,511.7,79.8L511.7,79.8z"/>
	</g>
</g>
<g>
	<g>
		<path d="M510.5,84.1c0.2,0.8,0.5,1.7,0.7,2.6c0.1,0.2,0.3,0.3,0.5,0.2c0.2-0.1,0.3-0.3,0.2-0.5c-0.2-0.8-0.5-1.7-0.7-2.6
			c-0.1-0.2-0.3-0.3-0.5-0.2S510.4,83.9,510.5,84.1L510.5,84.1z"/>
	</g>
</g>
<g>
	<g>
		<path d="M508.3,73.5c-4.5,3.5-8,8.1-10.3,13.3c-0.2,0.4,0.4,0.8,0.6,0.4c2.2-5.1,5.7-9.7,10.2-13.1
			C509.2,73.8,508.7,73.3,508.3,73.5L508.3,73.5z"/>
	</g>
</g>
<g>
	<g>
		<path d="M503.6,84.2c0.7-2,1.9-3.7,3.5-5.2c0.4-0.3-0.2-0.8-0.5-0.5c-1.6,1.5-2.9,3.4-3.7,5.5C502.7,84.4,503.4,84.6,503.6,84.2
			L503.6,84.2z"/>
	</g>
</g>
<g>
	<g>
		<path d="M429.4,84c7.2,8.3,15.9,15.2,25.7,20.3c0.4,0.2,0.8-0.4,0.4-0.6c-9.7-5.1-18.4-11.9-25.5-20.2
			C429.6,83.1,429.1,83.6,429.4,84L429.4,84z"/>
	</g>
</g>
<g>
	<g>
		<path d="M386.8,111.6c5-5.6,10.6-11.1,13.4-18.2c0.2-0.4-0.5-0.6-0.7-0.2c-2.7,6.9-8.2,12.4-13.2,17.8
			C386,111.5,386.5,112,386.8,111.6L386.8,111.6z"/>
	</g>
</g>
<g>
	<g>
		<path d="M565.6,116.9c1.3-1.4,2.3-3.2,2.8-5.1c0.1-0.5-0.6-0.6-0.7-0.2c-0.5,1.8-1.3,3.4-2.6,4.8
			C564.7,116.7,565.3,117.2,565.6,116.9L565.6,116.9z"/>
	</g>
</g>
<g>
	<g>
		<path d="M583.7,110.1c0.8,2.2,1.8,4.4,2.9,6.5c0.2,0.4,0.8,0,0.6-0.4c-1.1-2-2-4.1-2.8-6.3C584.3,109.4,583.6,109.6,583.7,110.1
			L583.7,110.1z"/>
	</g>
</g>
<g>
	<g>
		<path d="M326.1,62.9c2.4,0,2.4-3.7,0-3.7S323.8,62.9,326.1,62.9L326.1,62.9z"/>
	</g>
</g>
<g>
	<g>
		<path d="M329.6,62.6c0,0,0.1,0.1,0.1,0.1c0.2,0.2,0.4,0.3,0.6,0.4c0.2,0.1,0.5,0.2,0.7,0.2c0.2,0,0.5,0,0.7-0.2
			c0.2-0.1,0.4-0.2,0.6-0.4c0.1-0.1,0.2-0.2,0.3-0.4c0.2-0.3,0.2-0.6,0.2-0.9c0-0.2,0-0.3-0.1-0.5c-0.1-0.3-0.2-0.6-0.5-0.8
			c0,0-0.1-0.1-0.1-0.1c-0.2-0.2-0.4-0.3-0.6-0.4c-0.2-0.1-0.5-0.2-0.7-0.2c-0.2,0-0.5,0-0.7,0.2c-0.2,0.1-0.4,0.2-0.6,0.4
			c-0.1,0.1-0.2,0.2-0.3,0.4c-0.2,0.3-0.2,0.6-0.2,0.9c0,0.2,0,0.3,0.1,0.5C329.2,62.1,329.4,62.4,329.6,62.6L329.6,62.6z"/>
	</g>
</g>
<g>
	<g>
		<path d="M214.4,56.9C214.4,56.9,214.4,56.9,214.4,56.9c0,0.2,0,0.4,0.1,0.5c0,0.1,0.1,0.2,0.2,0.4c0.1,0.1,0.2,0.2,0.4,0.2
			c0.1,0.1,0.3,0.1,0.4,0.1c0.1,0,0.2,0,0.3,0c0.2-0.1,0.4-0.1,0.5-0.3c0.1-0.1,0.1-0.1,0.2-0.2c0.1-0.2,0.1-0.4,0.1-0.6
			c0,0,0,0,0-0.1c0-0.1,0-0.3-0.1-0.4c0-0.1-0.1-0.2-0.2-0.4c-0.1-0.1-0.2-0.2-0.4-0.2c-0.1-0.1-0.3-0.1-0.4-0.1c-0.1,0-0.2,0-0.3,0
			c-0.2,0.1-0.4,0.1-0.5,0.3c-0.1,0.1-0.1,0.1-0.2,0.2C214.5,56.5,214.4,56.7,214.4,56.9L214.4,56.9z"/>
	</g>
</g>
<g>
	<g>
		<path d="M218.4,57.5c1.4,0,1.4-2.2,0-2.2S217,57.5,218.4,57.5L218.4,57.5z"/>
	</g>
</g>
<g>
	<g>
		<path d="M214.9,55.5c-0.2,0.1-0.4,0.3-0.6,0.5c0,0,0,0,0,0c0,0.1-0.1,0.2-0.1,0.3c0,0,0,0.1,0,0.1c0,0.1-0.1,0.3,0,0.4
			c0,0.1,0,0.2,0,0.3c0,0,0,0,0,0.1c0,0.1,0.1,0.2,0.2,0.4c0.1,0.1,0.1,0.2,0.2,0.3c0.2,0.2,0.4,0.3,0.7,0.4c0.2,0.1,0.5,0.1,0.8,0
			c0.2-0.1,0.5-0.2,0.6-0.4c0.1-0.1,0.2-0.2,0.2-0.3c0-0.1,0.1-0.2,0.1-0.4c0-0.1,0.1-0.3,0-0.4c0-0.1,0-0.3-0.1-0.4
			c-0.1-0.3-0.1-0.3-0.3-0.6c-0.1-0.1-0.2-0.2-0.3-0.2c-0.1-0.1-0.3-0.1-0.4-0.1c-0.1,0-0.3,0-0.4,0c-0.1,0-0.3,0.1-0.4,0.2
			c-0.1,0.1-0.2,0.2-0.3,0.3c0,0.1-0.1,0.2-0.1,0.3c-0.1,0.2-0.1,0.4,0,0.6c0,0.1,0.1,0.2,0.1,0.3c0.1,0.2,0.2,0.3,0.4,0.4
			c0,0,0,0,0,0c-0.1-0.1-0.1-0.1-0.2-0.2c0,0,0,0,0,0c-0.1-0.1-0.1-0.1-0.2-0.2c0,0,0,0,0,0.1c0-0.1-0.1-0.2-0.1-0.3
			c0,0,0,0.1,0,0.1c0-0.1,0-0.2,0-0.3c0,0,0,0.1,0,0.1c0-0.1,0-0.2,0-0.3c0,0,0,0.1,0,0.1c0-0.1,0.1-0.2,0.1-0.3c0,0,0,0.1,0,0.1
			c0.1-0.1,0.1-0.1,0.2-0.2c0,0,0,0,0,0c0.1-0.1,0.1-0.1,0.2-0.2c0,0,0,0-0.1,0c0.1,0,0.2-0.1,0.3-0.1c0,0,0,0-0.1,0
			c0.1,0,0.2,0,0.3,0c0,0-0.1,0-0.1,0c0.1,0,0.2,0,0.3,0c0,0-0.1,0-0.1,0c0.1,0,0.2,0.1,0.3,0.1c0,0-0.1,0-0.1-0.1
			c0.1,0.1,0.1,0.1,0.2,0.2c0,0,0,0-0.1-0.1c0.1,0.1,0.1,0.1,0.2,0.2c0,0,0-0.1,0-0.1c0,0.1,0.1,0.2,0.1,0.3c0,0,0-0.1,0-0.1
			c0,0.1,0,0.2,0,0.3c0,0,0-0.1,0-0.1c0,0.1,0,0.2,0,0.3c0,0,0-0.1,0-0.1c0,0.1-0.1,0.2-0.1,0.3c0,0,0-0.1,0.1-0.1
			c-0.1,0.1-0.1,0.1-0.2,0.2c0,0,0.1-0.1,0.1-0.1c-0.1,0.1-0.1,0.1-0.2,0.2c0,0,0,0,0,0c0.1-0.1,0.2-0.2,0.3-0.3
			c0.1-0.1,0.2-0.2,0.2-0.4c0-0.1,0.1-0.3,0-0.4c0-0.1,0-0.3-0.1-0.4c-0.1-0.1-0.1-0.1-0.2-0.2c-0.1-0.1-0.3-0.2-0.5-0.3
			c-0.1,0-0.2,0-0.3,0C215.2,55.3,215,55.3,214.9,55.5L214.9,55.5z"/>
	</g>
</g>
<g>
	<g>
		<path d="M217.5,55.5c-0.1,0.1-0.2,0.2-0.2,0.3c0,0.1-0.1,0.2-0.1,0.3c0,0,0,0,0,0c-0.1,0.3-0.1,0.5,0,0.8c0.1,0.5,0.5,0.9,1,1
			c0.3,0.1,0.5,0.1,0.8,0c0.1,0,0.2-0.1,0.3-0.1c0.1-0.1,0.2-0.2,0.3-0.2c0.1-0.1,0.2-0.2,0.2-0.3c0.1-0.1,0.1-0.2,0.2-0.4
			c0-0.1,0-0.2,0.1-0.4c0,0,0,0,0,0c0-0.1,0-0.2,0-0.3c0,0,0,0,0,0c0-0.1-0.1-0.2-0.1-0.3c-0.1-0.1-0.1-0.2-0.2-0.3c0,0,0,0,0,0
			c-0.1-0.1-0.2-0.1-0.3-0.2c0,0,0,0,0,0c-0.1,0-0.2-0.1-0.3-0.1c-0.1,0-0.3-0.1-0.4,0c-0.1,0-0.3,0-0.4,0.1
			c-0.1,0.1-0.2,0.2-0.3,0.3c-0.1,0.1-0.2,0.2-0.2,0.4c0,0.1,0,0.2,0,0.3c0,0.2,0,0.4,0.1,0.6c0.1,0.1,0.1,0.1,0.2,0.2
			c0.1,0.1,0.3,0.2,0.5,0.3c0,0,0,0,0,0c-0.1,0-0.2-0.1-0.3-0.1c0,0,0,0,0.1,0c-0.1-0.1-0.1-0.1-0.2-0.2c0,0,0,0,0.1,0.1
			c-0.1-0.1-0.1-0.1-0.2-0.2c0,0,0,0.1,0,0.1c0-0.1-0.1-0.2-0.1-0.3c0,0,0,0.1,0,0.1c0-0.1,0-0.2,0-0.3c0,0,0,0.1,0,0.1
			c0-0.1,0-0.2,0-0.3c0,0,0,0.1,0,0.1c0-0.1,0.1-0.2,0.1-0.3c0,0,0,0,0,0.1c0.1-0.1,0.1-0.1,0.2-0.2c0,0,0,0-0.1,0.1
			c0.1-0.1,0.1-0.1,0.2-0.2c0,0-0.1,0-0.1,0c0.1,0,0.2-0.1,0.3-0.1c0,0-0.1,0-0.1,0c0.1,0,0.2,0,0.3,0c0,0-0.1,0-0.1,0
			c0.1,0,0.2,0,0.3,0c0,0-0.1,0-0.1,0c0.1,0,0.2,0.1,0.3,0.1c0,0,0,0-0.1,0c0.1,0.1,0.1,0.1,0.2,0.2c0,0,0,0-0.1-0.1
			c0.1,0.1,0.1,0.1,0.2,0.2c0,0,0-0.1,0-0.1c0,0.1,0.1,0.2,0.1,0.3c0,0,0-0.1,0-0.1c0,0.1,0,0.2,0,0.3c0,0,0-0.1,0-0.1
			c0,0.1,0,0.2,0,0.3c0,0,0-0.1,0-0.1c0,0.1-0.1,0.2-0.1,0.3c0,0,0,0,0-0.1c-0.1,0.1-0.1,0.1-0.2,0.2l0,0c0.1-0.1,0.2-0.2,0.2-0.4
			c0.1-0.1,0.1-0.3,0.1-0.4c0-0.1,0-0.3-0.1-0.4c0-0.1-0.1-0.2-0.2-0.4c-0.1-0.1-0.1-0.1-0.2-0.2c-0.2-0.1-0.4-0.1-0.6-0.1
			c-0.1,0-0.2,0-0.3,0C217.9,55.3,217.7,55.4,217.5,55.5L217.5,55.5z"/>
	</g>
</g>
<g>
	<g>
		<path d="M93.2,100.2c1.4,0,1.4-2.2,0-2.2C91.8,98,91.8,100.2,93.2,100.2L93.2,100.2z"/>
	</g>
</g>
<g>
	<g>
		<path d="M98.5,101.6c1.4,0,1.4-2.2,0-2.2S97.1,101.6,98.5,101.6L98.5,101.6z"/>
	</g>
</g>
<g>
	<g>
		<path d="M95.1,105.1c1.4,0,1.4-2.2,0-2.2C93.7,102.9,93.6,105.1,95.1,105.1L95.1,105.1z"/>
	</g>
</g>
<g>
	<g>
		<path d="M132.9,97.2c1.4,0,1.4-2.2,0-2.2C131.5,95,131.5,97.2,132.9,97.2L132.9,97.2z"/>
	</g>
</g>
<g>
	<g>
		<path d="M135.5,99.3c1.4,0,1.4-2.2,0-2.2C134.1,97.1,134.1,99.3,135.5,99.3L135.5,99.3z"/>
	</g>
</g>
<g>
	<g>
		<path d="M131.1,102.3c1.4,0,1.4-2.2,0-2.2S129.7,102.3,131.1,102.3L131.1,102.3z"/>
	</g>
</g>
<g>
	<g>
		<path d="M105.8,99.9c-1.1,1.1-2.1,2.3-1.9,3.9c0.2,1.5,1.2,2.8,1.6,4.2c0.3,0.9,0.3,1.7-0.1,2.6c-0.4,0.8-1,1.4-1.4,2.2
			c-0.5,1.1-0.6,2.6,0.5,3.3c0.4,0.3,0.7-0.4,0.4-0.6c-1.5-1,0.2-3,0.8-4c0.7-1.1,0.9-2.2,0.6-3.5c-0.4-1.2-1.1-2.3-1.5-3.5
			c-0.6-1.7,0.3-2.9,1.5-4.1C106.6,100.1,106.1,99.6,105.8,99.9L105.8,99.9z"/>
	</g>
</g>
<g>
	<g>
		<path d="M107.1,101.5c-0.6,1.2-0.8,2.5-0.6,3.8c0.1,0.7,0.4,1.4,0.7,2c0.4,0.7,1,1.2,1.3,1.9c0.8,1.8-0.8,2.9-1.6,4.3
			c-0.6,1-0.8,2.2,0,3.1c0.3,0.4,0.8-0.2,0.5-0.5c-1-1.2,0.5-2.6,1.2-3.5c0.7-1,1.2-2.1,0.8-3.3c-0.4-1.2-1.5-2-1.9-3.3
			c-0.5-1.3-0.3-2.8,0.3-4.1C107.9,101.5,107.3,101.1,107.1,101.5L107.1,101.5z"/>
	</g>
</g>
<g>
	<g>
		<path d="M120.8,102.8c1.6,0.2,2.3,1.9,2.7,3.2c0.4,1.4,0.7,2.9,1.6,4.1c1.6,2.1,4.3,2.9,6.8,3.2c0.5,0,0.5-0.7,0-0.7
			c-2.6-0.3-5.6-1.3-6.8-3.8c-0.7-1.4-0.7-3.1-1.5-4.5c-0.6-1.1-1.5-2-2.8-2.2C120.3,102.1,120.3,102.8,120.8,102.8L120.8,102.8z"/>
	</g>
</g>
<g>
	<g>
		<path d="M121.3,101.3c1.6,0.7,2.7,1.9,3.3,3.4c0.7,1.5,1,3.1,2,4.4c1.6,2.1,4.4,3.1,7,2.7c0.5-0.1,0.3-0.8-0.2-0.7
			c-2.8,0.5-5.6-0.9-6.9-3.4c-0.7-1.3-1-2.9-1.8-4.2c-0.7-1.2-1.8-2.2-3.1-2.8C121.2,100.5,120.9,101.1,121.3,101.3L121.3,101.3z"/>
	</g>
</g>
<g>
	<g>
		<path d="M119.7,103.9c0.7,0.3,1.3,0.8,1.7,1.5c0.4,0.7,0.5,1.4,0.8,2.1c0.4,1.2,1.1,2.4,1.9,3.4c1.7,2,4.1,3.4,6.6,3.8
			c0.5,0.1,0.7-0.6,0.2-0.7c-2.6-0.4-5.1-1.9-6.7-4c-0.8-1.1-1.3-2.3-1.7-3.7c-0.4-1.3-1.2-2.4-2.5-3
			C119.6,103.1,119.2,103.7,119.7,103.9L119.7,103.9z"/>
	</g>
</g>
<g>
	<g>
		<path d="M108.4,102c-0.3,1.2-0.5,2.4-0.2,3.6c0.2,1.2,0.8,2.1,1.5,3.1c0.8,1.2,1.1,2.3,0.4,3.6c-0.6,1.2-1.6,2-2.2,3.2
			c-0.2,0.4,0.4,0.8,0.6,0.4c1.1-2.1,3.5-3.8,2.4-6.4c-0.4-1-1.2-1.8-1.7-2.8c-0.7-1.4-0.5-3-0.1-4.4
			C109.2,101.8,108.5,101.6,108.4,102L108.4,102z"/>
	</g>
</g>
<g>
	<g>
		<path d="M209.2,77c0.5,0,0.9-0.2,1.3-0.5c0.6-0.4,1.1-0.6,1.8-0.2c1,0.5,1.7,1.6,2.9,1.6c1-0.1,1.6-0.9,2.3-1.5
			c0.2-0.1,0.4-0.4,0.6-0.4c0.2,0.1,0.4,0.3,0.6,0.4c0.5,0.2,1,0.2,1.4-0.1c0.4-0.2,0-0.9-0.4-0.6c-0.7,0.4-1-0.3-1.5-0.5
			c-0.4-0.1-0.8,0.2-1.1,0.4c-0.7,0.6-1.5,1.8-2.6,1.4c-1.1-0.4-1.7-1.5-2.8-1.7c-0.5-0.1-0.9,0-1.3,0.2c-0.5,0.2-0.8,0.6-1.4,0.6
			C208.7,76.3,208.7,77.1,209.2,77L209.2,77z"/>
	</g>
</g>
<g>
	<g>
		<path d="M209.1,78.8c0.3,0.2,0.7,0.2,1,0c0.6-0.2,0.9-0.4,1.5-0.1c0.8,0.5,1.5,1.4,2.6,1.3c0.4,0,0.7-0.2,1-0.5
			c0.2-0.1,0.3-0.3,0.5-0.4c0.3-0.1,0.6,0,0.9,0c1,0.3,2.1,0.3,3.1,0c0.5-0.1,0.3-0.8-0.2-0.7c-0.5,0.1-1,0.2-1.5,0.2
			c-0.6,0-1.1-0.2-1.6-0.3c-0.4-0.1-0.7-0.1-1.1,0.1c-0.4,0.2-0.6,0.5-1,0.6c-0.9,0.4-1.8-0.8-2.6-1.2c-0.4-0.2-0.8-0.3-1.2-0.2
			c-0.3,0.1-0.9,0.5-1.2,0.3C209,77.9,208.7,78.6,209.1,78.8L209.1,78.8z"/>
	</g>
</g>
<g>
	<g>
		<path d="M208.8,82.3c1.1-1.2,2.4,0.2,3.5,0.6c1,0.3,1.8-0.3,2.5-0.9c0.4-0.3,0.8-0.6,1.3-0.6c0.6,0.1,1,0.6,1.6,0.8
			c0.5,0.2,1,0.2,1.5,0c0.6-0.2,0.8-0.6,0.6-1.2c-0.1-0.5-0.8-0.3-0.7,0.2c0.1,0.4-0.6,0.5-0.8,0.5c-0.3,0-0.6-0.2-0.8-0.4
			c-0.4-0.3-0.8-0.6-1.3-0.6c-0.9,0-1.5,0.6-2.2,1.1c-0.4,0.3-0.8,0.5-1.3,0.4c-0.6-0.1-1-0.6-1.6-0.8c-0.9-0.4-2-0.4-2.7,0.4
			C208,82.2,208.5,82.7,208.8,82.3L208.8,82.3z"/>
	</g>
</g>
<g>
	<g>
		<path d="M212.2,68.7c0.8-1,2.2-1.7,3.4-2c0.7-0.1,1.4,0.2,2.1,0.4c0.3,0.1,0.6,0.2,1,0.4c0.2,0.1,0.3,0.2,0.5,0.2
			c0.1,0.1,0.4,0.2,0.4,0.3c0-0.1,0-0.2,0-0.4c0,0,0,0,0,0.1c0.1-0.1,0.3-0.1,0.4-0.2c0,0,0,0-0.1,0c-0.5-0.1-0.7,0.6-0.2,0.7
			c0,0,0,0,0.1,0c0.2,0,0.3,0,0.4-0.2c0.6-1-3.5-2.1-4.2-2.1c-0.8,0-1.7,0.4-2.5,0.8c-0.8,0.4-1.4,0.9-1.9,1.6
			C211.3,68.7,211.9,69.1,212.2,68.7L212.2,68.7z"/>
	</g>
</g>
<g>
	<g>
		<path d="M212,69.9c1.1-0.6,2.3-1.3,3.6-1.3c1.3-0.1,2.4,0.6,3.5,1.2c0.4,0.2,0.7-0.3,0.4-0.6c0-0.1-0.1-0.1-0.1-0.2
			c-0.3-0.4-0.8,0.1-0.5,0.5c0,0.1,0.1,0.1,0.1,0.2c0.1-0.2,0.3-0.4,0.4-0.6c-1.2-0.7-2.4-1.4-3.8-1.3c-1.4,0.1-2.7,0.8-3.9,1.4
			C211.3,69.5,211.6,70.1,212,69.9L212,69.9z"/>
	</g>
</g>
<g>
	<g>
		<path d="M211.6,71.2c1.2-0.5,2.6-0.6,3.8-0.4c1.2,0.2,2.7,0.6,3.4,1.6c0.3,0.4,0.9,0,0.6-0.4c-0.8-1.1-2.4-1.7-3.7-2
			c-1.5-0.3-3-0.1-4.4,0.4C211,70.6,211.2,71.3,211.6,71.2L211.6,71.2z"/>
	</g>
</g>
<g>
	<g>
		<path d="M310,93.2c2.5,3,6.1,4.7,9.9,5.5c2.1,0.4,4.2,0.5,6.4,0.5c2.1,0,4.3-0.1,6.3-0.8c0.9-0.3,0.5-1.8-0.4-1.4
			c-1.9,0.7-3.9,0.8-5.9,0.8c-2,0-4-0.1-6-0.5c-3.6-0.7-6.9-2.2-9.3-5.1C310.4,91.4,309.4,92.4,310,93.2L310,93.2z"/>
	</g>
</g>
<g>
	<g>
		<path d="M308.9,99.7c4.2,1.4,8.7,0.5,12.9,2c3.5,1.3,7.4,3.5,11,1.3c0.8-0.5,0.1-1.8-0.7-1.3c-3.6,2.2-7.6-0.8-11.1-1.8
			c-3.8-1.1-7.9-0.4-11.7-1.6C308.4,98,308,99.4,308.9,99.7L308.9,99.7z"/>
	</g>
</g>
<g>
	<path d="M326.1,113.4c-2.3-2.3-5.1-4.2-8.2-5.1c-3.1-0.9-6.6-0.9-9.6,0.3"/>
</g>
<path d="M308.4,109.4c0,0,2.2,6.1,6.5,6.5c4.3,0.3,11-1.8,11-1.8s0.1-1.8-4.6-3.9C316.5,108,310.2,107,308.4,109.4z"/>
<g>
	<g>
		<path d="M411.4,92.1c2.2-1.4,4.5,1.1,4.3,3.3c-0.1,1-0.7,1.9-1.7,2.4c-0.4,0.2-1,0.3-1.4,0.2c-0.2,0-0.5-0.1-0.7-0.2
			c-0.1-0.1-0.3-0.2-0.4-0.2c0,0-0.1,0.4-0.1,0.5c-0.1,0.1-0.2,0.1-0.3,0.2c0,0,0,0,0.1,0c0.9-0.3,0.5-1.7-0.4-1.4
			c-0.8,0.2-0.8,1.2-0.3,1.7c0.4,0.5,1.1,0.8,1.7,0.9c1.3,0.3,2.7-0.1,3.7-1c2.1-2,1.6-5.5-0.6-7.2c-1.3-1-3.1-1.2-4.5-0.3
			C409.9,91.3,410.6,92.6,411.4,92.1L411.4,92.1z"/>
	</g>
</g>
<g>
	<g>
		<path d="M421.8,88.5c-2.4-0.5-4.2,1.5-4.4,3.7c-0.1,2.2,1.6,4.3,3.5,5.3c1.1,0.6,2.6,0.7,3.5-0.4c0.6-0.7-0.4-1.7-1-1
			c-0.7,0.8-1.7,0.2-2.4-0.2c-0.8-0.6-1.5-1.3-1.9-2.2c-0.4-0.8-0.3-1.8,0.1-2.6c0.4-0.7,1.3-1.3,2.2-1.1c0.4,0.1,0.8-0.1,0.9-0.5
			C422.4,89,422.2,88.6,421.8,88.5L421.8,88.5z"/>
	</g>
</g>
<g>
	<g>
		<path d="M411.9,103.7c0.3-0.4,0.9-0.2,1.3,0c0.6,0.3,1,0.6,1.6,0.8c1.1,0.4,2.4,0.2,3.4-0.4c0.4-0.3,0.8-0.7,1.4-0.8
			c0.6-0.2,1.3,0.2,1.9,0.5c1.1,0.5,2.2,0.9,3.4,0.3c0.8-0.4,0.1-1.7-0.7-1.3c-0.6,0.3-1.3,0-1.8-0.3c-0.6-0.3-1.2-0.6-1.8-0.7
			c-0.6-0.1-1.2,0-1.8,0.2c-0.5,0.3-1,0.7-1.6,1c-0.6,0.2-1.2,0.2-1.8,0c-0.6-0.2-1.2-0.6-1.8-0.9c-1-0.4-2.3-0.3-2.9,0.7
			C410.1,103.8,411.4,104.5,411.9,103.7L411.9,103.7z"/>
	</g>
</g>
<g>
	<g>
		<path d="M412.1,106.5c0.7-0.2,1.5-0.4,2.2-0.1c0.6,0.2,1.1,0.6,1.7,0.9c1,0.5,2.2,0.8,3.2,0.4c0.5-0.2,1-0.6,1.5-0.8
			c0.7-0.2,1.3,0.2,1.9,0.5c0.8,0.3,1.8,0.3,2.4-0.5c-0.2-0.1-0.4-0.2-0.7-0.3c-0.1,0.2-0.1,0.3-0.2,0.5c-0.1,0.5,0.6,0.6,0.7,0.2
			c0.1-0.2,0.1-0.3,0.2-0.5c0.1-0.4-0.4-0.6-0.7-0.3c-0.6,0.9-2.2-0.3-3-0.4c-1.2-0.1-1.9,0.9-3,1c-1.2,0.1-2.2-0.6-3.2-1.2
			c-1.1-0.5-2.1-0.4-3.2-0.1C411.5,105.9,411.7,106.6,412.1,106.5L412.1,106.5z"/>
	</g>
</g>
</svg>
