<?xml version="1.0" encoding="utf-8"?>
<!-- Generator: Adobe Illustrator 24.3.0, SVG Export Plug-In . SVG Version: 6.00 Build 0)  -->
<svg version="1.1" id="Calque_4" xmlns="http://www.w3.org/2000/svg" xmlns:xlink="http://www.w3.org/1999/xlink" x="0px" y="0px"
	 viewBox="0 0 658.3 304.1" style="enable-background:new 0 0 658.3 304.1;" xml:space="preserve">
<style type="text/css">
	.st0{fill:#FFFFFF;stroke:#000000;stroke-width:2;stroke-linecap:round;stroke-linejoin:round;stroke-miterlimit:10;}
	.st1{fill:none;stroke:#000000;stroke-width:0.2;stroke-miterlimit:10;}
</style>
<path d="M462.6,244.95c3.4,21.4,4.5,45.4,4.5,45.4h13.5c0,0-8-88.3-4.8-102.3s-17.7,28.6-17.7,28.6L462.6,244.95z"/>
<g>
	<path class="st0" d="M362.6,187.25c-19,14.4-33.8,33.6-48.3,52.5c7.7-2.9,14.6-7.6,20.3-13.4c-2.3,4.4-4.6,8.8-6.9,13.2
		c11.8-12.7,24.2-24.8,37.3-36.1c15-13.1,31.9-25.6,51.6-28.4c-31.4,22.5-48.2,60.7-54.8,98.8c3.5-5.9,6.9-11.8,10.4-17.8
		c2,1.7,2.9,4.5,2.5,7.1c22.9-27.3,37.7-61.6,64.9-84.6c-24.3,27.5-35.7,65.8-30.4,102.1c1.6-0.7,2.7-2.3,2.7-4
		c0.6,1.6,1.1,3.2,1.7,4.8c6.8-12.9,14.7-25.3,23.5-36.9c3,9.7,4.4,19.9,4.2,30c1.1-1.2,2.3-2.5,3.4-3.7c1,0.8,2,1.6,3,2.3
		c14.4-23,23.5-49.3,26.3-76.2c3,14.4,1.1,29.4,1.4,44.1s3.2,30.5,13.8,40.8c0.8,0.8,1.7,1.5,2.8,1.5c1.3,0,2.3-1.1,3-2.2
		c4.7-6.6,6.7-14.8,8.1-22.9c2.5-14.4,3.3-29.2,2.4-43.8c1.6,7.7,3.2,15.4,4.8,23.1c1.7,8.2,3.5,16.5,6.8,24.2
		c3.1,7,7.4,13.4,12.8,18.7c1,1,2.1,2,3.5,2.1c1.4,0.1,2.9-1.2,2.5-2.5c1.4,1.1,2.9,2.1,4.3,3.1c2.4-4.8,2.5-10.4,2.2-15.8
		c-1.2-27.2-8.2-54.2-20.4-78.6c22.2,22.2,37.6,51.2,43.7,82.1c1.7-4.6,2.7-9.5,2.9-14.4c4,4.9,8,9.9,12,14.8
		c1.6-5.5,0.9-11.6-1.9-16.6c2,2.2,3.9,4.4,5.9,6.6c2.6-6.7,1.3-14.7-3.2-20.2c6.4,7.5,12.8,14.9,19.2,22.4
		c-0.8-15.4-12.9-27.5-21-40.6c-4.9-7.8-8.5-16.4-13.9-23.9c-12.2-17-32.1-26.5-51.1-35.3c-2-0.9-4.2-1.9-6.4-1.8
		c-2.3,0.1-4.4,1.2-6.4,2.2c-10.2,4.8-21.8,6.6-33,5c-6.1-0.9-12-2.7-17.9-4.4c-5.8-1.6-11.9-2.9-17.8-4.1c-4.7-1-10.8,0.9-15.4,1.8
		c-11,2.2-21.7,5.8-31.8,10.6C377.7,177.05,369.9,181.85,362.6,187.25z"/>
</g>
<g>
	<g>
		<path d="M415.3,260.25c0.7-20.7,8.4-40.4,18-58.4c2.8-5.3,5.8-10.4,9-15.4c0.2-0.3-0.3-0.6-0.5-0.3
			c-11.1,17.5-20.7,36.8-24.9,57.2c-1.2,5.6-1.9,11.2-2.1,16.9C414.6,260.65,415.2,260.65,415.3,260.25L415.3,260.25z"/>
	</g>
</g>
<g>
	<g>
		<path d="M425.5,244.25c10.6-19.2,19.2-39.5,25.6-60.5c0.1-0.4-0.5-0.5-0.6-0.2c-6.4,20.9-15,41.2-25.5,60.4
			C424.8,244.35,425.3,244.65,425.5,244.25L425.5,244.25z"/>
	</g>
</g>
<g>
	<g>
		<path d="M444.1,234.95c6.9-16.5,12.6-33.4,16.9-50.8c0.1-0.4-0.5-0.5-0.6-0.2c-4.3,17.3-10,34.3-16.9,50.8
			C443.3,235.05,443.9,235.25,444.1,234.95L444.1,234.95z"/>
	</g>
</g>
<g>
	<g>
		<path d="M451.8,244.35c9.2-18.9,15-39.4,17.2-60.3c0-0.4-0.5-0.4-0.6,0c-2.2,20.8-8,41.1-17.1,60
			C451.2,244.35,451.7,244.65,451.8,244.35L451.8,244.35z"/>
	</g>
</g>
<g>
	<g>
		<path d="M479.9,185.95c4.4,18.7,4.9,38,4.4,57.1c-0.1,5.4-0.4,10.8-0.6,16.2c0,0.4,0.6,0.4,0.6,0c0.7-19.2,1.5-38.6-1-57.8
			c-0.7-5.3-1.6-10.5-2.9-15.7C480.4,185.35,479.9,185.55,479.9,185.95L479.9,185.95z"/>
	</g>
</g>
<g>
	<g>
		<path d="M485.3,184.25c2.7,4.3,4.1,9.2,5.1,14.1c1.1,5.3,1.7,10.8,2.1,16.2c0.9,10.9,0.7,21.8,0.2,32.7
			c-0.3,6.2-0.7,12.3-1.1,18.5c0,0.4,0.6,0.4,0.6,0c1.4-21.9,2.8-44.2-1.1-66c-1-5.5-2.5-11-5.5-15.8
			C485.6,183.65,485.1,183.95,485.3,184.25L485.3,184.25z"/>
	</g>
</g>
<g>
	<g>
		<path d="M497.8,183.45c6.9,9.6,12.2,20.4,15.6,31.7c3.5,11.9,5.4,24.2,9.4,35.9c2.2,6.4,4.7,12.6,7.7,18.6c0.2,0.3,0.7,0,0.5-0.3
			c-5.5-11.1-9.4-22.8-12.3-34.9c-2.8-11.7-5.3-23.4-10.5-34.4c-2.8-6-6.2-11.7-10-17C498.1,182.85,497.6,183.15,497.8,183.45
			L497.8,183.45z"/>
	</g>
</g>
<g>
	<g>
		<path d="M498.4,177.45c4.8,3.4,7.6,8.8,10.4,13.8c3.1,5.4,5.9,10.8,8.5,16.4c2.6,5.8,5,11.7,6.9,17.7c1.9,6.3,3.4,12.7,5,19.1
			c1.7,7.2,3.5,14.5,5.2,21.7c0.1,0.4,0.7,0.2,0.6-0.2c-1.6-6.7-3.2-13.4-4.8-20.1c-1.6-6.6-3.1-13.2-5-19.7
			c-3.6-12.1-9.1-23.5-15.2-34.5c-3-5.4-6-11.3-11.2-15C498.3,176.75,498.1,177.25,498.4,177.45L498.4,177.45z"/>
	</g>
</g>
<g>
	<g>
		<path d="M514.1,173.45c4.6,3.6,10.2,5.7,15.2,8.9s9.7,6.9,14,11c8.9,8.4,16.1,18.4,22.2,28.9c3.6,6.2,6.8,12.5,9.8,19
			c0.2,0.3,0.7,0,0.5-0.3c-10.1-21.9-23.2-43.3-43.3-57.2c-2.7-1.9-5.5-3.6-8.4-5.1c-3.3-1.7-6.6-3.3-9.6-5.6
			C514.2,172.75,513.8,173.15,514.1,173.45L514.1,173.45z"/>
	</g>
</g>
<g>
	<g>
		<path d="M379.8,244.95c7.3-18.9,19.4-35.4,33.4-50c3.9-4.1,8-8,12.2-11.9c0.3-0.3-0.1-0.7-0.4-0.4c-14.9,13.7-28.6,29-38.5,46.8
			c-2.7,4.9-5.1,10.1-7.2,15.3C379.1,245.15,379.6,245.35,379.8,244.95L379.8,244.95z"/>
	</g>
</g>
<g>
	<g>
		<path d="M395.3,204.55c6.7-10.1,15.4-18.8,25.5-25.5c0.3-0.2,0-0.7-0.3-0.5c-10.2,6.7-19,15.5-25.7,25.7
			C394.6,204.65,395.1,204.85,395.3,204.55L395.3,204.55z"/>
	</g>
</g>
<g>
	<g>
		<path d="M339.3,216.75c13.9-18.1,32.4-32.5,53.4-41.4c6-2.6,12.1-4.6,18.4-6.3c0.4-0.1,0.2-0.7-0.2-0.6
			c-22.3,5.8-43,17.5-59.5,33.6c-4.6,4.5-8.8,9.3-12.7,14.3C338.5,216.75,339,217.05,339.3,216.75L339.3,216.75z"/>
	</g>
</g>
<g>
	<g>
		<path d="M423.7,151.05c3.6,2.2,6.5,5.5,8.3,9.3c0.2,0.3,0.7,0,0.5-0.3c-1.8-3.9-4.8-7.3-8.5-9.5
			C423.7,150.35,423.4,150.85,423.7,151.05L423.7,151.05z"/>
	</g>
</g>
<g>
	<g>
		<path d="M428.2,145.35c4,4.3,7.2,9.2,9.5,14.6c0.2,0.3,0.7,0,0.5-0.3c-2.4-5.4-5.6-10.4-9.6-14.7
			C428.3,144.75,427.9,145.15,428.2,145.35L428.2,145.35z"/>
	</g>
</g>
<g>
	<g>
		<path d="M431.7,140.85c3.1,6.4,6,12.8,8.6,19.4c0.1,0.4,0.7,0.2,0.6-0.2c-2.6-6.6-5.5-13.1-8.6-19.6
			C432.1,140.25,431.6,140.55,431.7,140.85L431.7,140.85z"/>
	</g>
</g>
<g>
	<g>
		<path d="M442.7,160.35c-2.3-7.6-3.6-15.5-4-23.5c0-0.4-0.6-0.4-0.6,0c0.4,8,1.8,15.9,4.1,23.6
			C442.3,160.85,442.8,160.75,442.7,160.35L442.7,160.35z"/>
	</g>
</g>
<g>
	<g>
		<path d="M440.9,136.05c1.7,9.8,3.5,19.7,7.8,28.8c0.2,0.3,0.7,0,0.5-0.3c-4.3-9-6-18.9-7.8-28.6
			C441.4,135.55,440.8,135.65,440.9,136.05L440.9,136.05z"/>
	</g>
</g>
<g>
	<g>
		<path d="M451.1,162.95c-2.6-9.6-3.3-19.6-2.3-29.5c0-0.4-0.5-0.4-0.6,0c-1.1,9.9-0.3,20,2.3,29.6
			C450.6,163.45,451.2,163.25,451.1,162.95L451.1,162.95z"/>
	</g>
</g>
<g>
	<g>
		<path d="M443.2,129.35c0,4.4,0.6,8.8,1.6,13.1c0.1,0.4,0.7,0.2,0.6-0.2c-1.1-4.2-1.6-8.6-1.6-12.9
			C443.8,128.95,443.2,128.95,443.2,129.35L443.2,129.35z"/>
	</g>
</g>
<g>
	<g>
		<path d="M440.4,141.95c-0.4-3.9-1.1-7.7-2.1-11.5c-0.1-0.4-0.7-0.2-0.6,0.2c1,3.7,1.7,7.5,2.1,11.4
			C439.9,142.25,440.5,142.35,440.4,141.95L440.4,141.95z"/>
	</g>
</g>
<g>
	<g>
		<path d="M435.8,138.95c0-0.5,0-0.9,0-1.4c0-0.2-0.1-0.3-0.3-0.3c-0.2,0-0.3,0.1-0.3,0.3c0,0.5,0,0.9,0,1.4c0,0.2,0.1,0.3,0.3,0.3
			S435.8,139.15,435.8,138.95L435.8,138.95z"/>
	</g>
</g>
<g>
	<g>
		<path d="M452.3,129.05c-1.5,11.2-0.7,22.5,2.4,33.4c0.1,0.4,0.7,0.2,0.6-0.2c-3.1-10.7-3.9-22-2.4-33.1
			C452.9,128.85,452.3,128.65,452.3,129.05L452.3,129.05z"/>
	</g>
</g>
<g>
	<g>
		<path d="M457.6,129.35c-0.7,10.4-0.4,20.9,0.8,31.3c0,0.4,0.6,0.4,0.6,0c-1.2-10.4-1.5-20.9-0.8-31.3
			C458.2,128.95,457.6,128.95,457.6,129.35L457.6,129.35z"/>
	</g>
</g>
<g>
	<g>
		<path d="M460.9,164.45c3.9-10.6,5.7-21.8,5.3-33c0-0.4-0.6-0.4-0.6,0c0.4,11.2-1.4,22.3-5.3,32.8
			C460.2,164.65,460.8,164.75,460.9,164.45L460.9,164.45z"/>
	</g>
</g>
<g>
	<g>
		<path d="M467.4,167.85c2.9-11,3.4-22.5,1.6-33.8c-0.1-0.4-0.6-0.2-0.6,0.2c1.8,11.1,1.2,22.5-1.6,33.5
			C466.7,168.05,467.3,168.25,467.4,167.85L467.4,167.85z"/>
	</g>
</g>
<g>
	<g>
		<path d="M471.4,133.75c3.6,9.4,4.5,19.5,2.6,29.4c-0.1,0.4,0.5,0.5,0.6,0.2c1.9-9.9,1-20.2-2.6-29.7
			C471.9,133.25,471.3,133.45,471.4,133.75L471.4,133.75z"/>
	</g>
</g>
<g>
	<g>
		<path d="M479.6,134.45c1.7,7.1,1.7,14.5,0.2,21.6c-0.1,0.4,0.5,0.5,0.6,0.2c1.6-7.2,1.5-14.7-0.2-21.9
			C480,133.95,479.5,134.15,479.6,134.45L479.6,134.45z"/>
	</g>
</g>
<g>
	<g>
		<path d="M476.2,164.35c7.2-6.5,10.7-15.8,14-24.6c0.1-0.4-0.4-0.5-0.6-0.2c-3.2,8.8-6.7,18-13.8,24.4
			C475.5,164.15,475.9,164.55,476.2,164.35L476.2,164.35z"/>
	</g>
</g>
<g>
	<g>
		<path d="M481.5,166.15c7.2-6.2,12-14.8,13.6-24.2c0.1-0.4-0.5-0.5-0.6-0.2c-1.6,9.3-6.4,17.8-13.5,23.9
			C480.8,166.05,481.2,166.45,481.5,166.15L481.5,166.15z"/>
	</g>
</g>
<g>
	<g>
		<path d="M489,166.35c5.3-5.7,8.5-13,9-20.8c0-0.4-0.6-0.4-0.6,0c-0.5,7.6-3.6,14.8-8.8,20.4C488.4,166.25,488.8,166.65,489,166.35
			L489,166.35z"/>
	</g>
</g>
<g>
	<g>
		<path d="M496.2,163.25c2.4-3,3.8-6.7,4.2-10.5c0-0.4-0.5-0.4-0.6,0c-0.3,3.7-1.7,7.2-4,10.1
			C495.5,163.05,495.9,163.45,496.2,163.25L496.2,163.25z"/>
	</g>
</g>
<g>
	<g>
		<path d="M505.6,152.55c-1.2,4.2-4.7,7-7.9,9.7c-0.3,0.2,0.1,0.7,0.4,0.4c3.3-2.7,6.8-5.7,8.1-9.9
			C506.3,152.35,505.7,152.15,505.6,152.55L505.6,152.55z"/>
	</g>
</g>
<g>
	<g>
		<path d="M509.9,153.85c-2.5,2.8-5.6,5.1-9.1,6.6c-0.3,0.2,0,0.7,0.3,0.5c3.5-1.5,6.6-3.8,9.2-6.7
			C510.5,153.95,510.1,153.55,509.9,153.85L509.9,153.85z"/>
	</g>
</g>
<g>
	<g>
		<path d="M506.4,142.45c-1,2.2-2.3,4.3-3.8,6.1c-0.2,0.3,0.2,0.7,0.4,0.4c1.6-1.9,2.9-4,3.9-6.2
			C507.1,142.45,506.6,142.15,506.4,142.45L506.4,142.45z"/>
	</g>
</g>
<g>
	<g>
		<path d="M502.7,135.65c-1.3,4-3.1,7.8-5.2,11.4c-0.2,0.3,0.3,0.6,0.5,0.3c2.1-3.6,3.9-7.5,5.3-11.5
			C503.4,135.45,502.8,135.35,502.7,135.65L502.7,135.65z"/>
	</g>
</g>
<g>
	<g>
		<path d="M495.4,132.95c-1,6.2-3,12.3-5.7,18c-0.2,0.3,0.3,0.6,0.5,0.3c2.8-5.7,4.8-11.8,5.8-18.1
			C496.1,132.75,495.5,132.55,495.4,132.95L495.4,132.95z"/>
	</g>
</g>
<g>
	<g>
		<path d="M486,130.25c0,6.1-1.1,12.2-3.2,18c-0.1,0.4,0.4,0.5,0.6,0.2c2.1-5.8,3.2-11.9,3.2-18.1
			C486.6,129.85,486,129.85,486,130.25L486,130.25z"/>
	</g>
</g>
<g>
	<g>
		<path d="M475.5,130.75c0.4,3.1,0.6,6.2,0.7,9.4c0,0.4,0.6,0.4,0.6,0c-0.1-3.1-0.3-6.3-0.7-9.4
			C476,130.35,475.5,130.35,475.5,130.75L475.5,130.75z"/>
	</g>
</g>
<g>
	<g>
		<path d="M462.3,127.75c-0.7,6.3-0.5,12.6,0.4,18.8c0.1,0.4,0.6,0.2,0.6-0.2c-1-6.2-1.1-12.5-0.4-18.7
			C462.9,127.35,462.3,127.35,462.3,127.75L462.3,127.75z"/>
	</g>
</g>
<g>
	<g>
		<path d="M456,123.65c-0.4,4.7-1,9.3-2,13.9c-0.1,0.4,0.5,0.5,0.6,0.2c0.9-4.6,1.6-9.3,2-14C456.6,123.25,456,123.25,456,123.65
			L456,123.65z"/>
	</g>
</g>
<g>
	<g>
		<path d="M447.5,127.05c-0.4,3.7,0.1,7.4,1.5,10.8c0.1,0.4,0.7,0.2,0.6-0.2c-1.3-3.4-1.8-7-1.4-10.7
			C448.2,126.65,447.6,126.65,447.5,127.05L447.5,127.05z"/>
	</g>
</g>
<g>
	<g>
		<path d="M465,124.65c0.4,2,0.5,4.1,0.2,6.1c0,0.4,0.5,0.4,0.6,0c0.3-2.1,0.2-4.2-0.3-6.2C465.5,124.15,464.9,124.25,465,124.65
			L465,124.65z"/>
	</g>
</g>
<g>
	<g>
		<path d="M471.2,126.15c0.1,1.1,0.2,2.3,0.2,3.4c0,0.4,0.6,0.4,0.6,0c-0.1-1.1-0.2-2.3-0.2-3.4
			C471.7,125.75,471.1,125.75,471.2,126.15L471.2,126.15z"/>
	</g>
</g>
<g>
	<g>
		<path d="M478.5,125.75c1.2,6.5,1.5,13.1,0.8,19.6c0,0.4,0.5,0.4,0.6,0c0.7-6.6,0.4-13.2-0.8-19.7
			C479,125.25,478.5,125.35,478.5,125.75L478.5,125.75z"/>
	</g>
</g>
<g>
	<g>
		<path d="M483.9,128.95c0.7,6.9,0.4,13.9-0.9,20.7c-0.1,0.4,0.5,0.5,0.6,0.2c1.3-6.9,1.6-13.9,0.9-20.9
			C484.5,128.55,483.9,128.55,483.9,128.95L483.9,128.95z"/>
	</g>
</g>
<g>
	<g>
		<path d="M479.4,167.25c2.5-2.7,4.7-5.7,6.5-8.9c0.2-0.3-0.3-0.6-0.5-0.3c-1.8,3.2-4,6.1-6.4,8.8
			C478.7,167.15,479.2,167.55,479.4,167.25L479.4,167.25z"/>
	</g>
</g>
<g>
	<g>
		<path d="M486.1,167.25c2.3-3.1,4.6-6.1,6.9-9.1c0.2-0.3-0.3-0.6-0.5-0.3c-2.3,3.1-4.6,6.1-6.9,9.1
			C485.4,167.25,485.9,167.55,486.1,167.25L486.1,167.25z"/>
	</g>
</g>
<g>
	<g>
		<path d="M472.5,157.95c0,3.3,0.2,6.6,0.7,9.9c0.1,0.4,0.6,0.2,0.6-0.2c-0.5-3.2-0.7-6.5-0.7-9.8
			C473.1,157.55,472.5,157.55,472.5,157.95L472.5,157.95z"/>
	</g>
</g>
<g>
	<g>
		<path d="M490.4,129.55c0,3.8-0.4,7.6-1.1,11.4c-0.1,0.4,0.5,0.5,0.6,0.2c0.7-3.8,1.1-7.7,1.1-11.5
			C490.9,129.25,490.4,129.25,490.4,129.55L490.4,129.55z"/>
	</g>
</g>
<g>
	<g>
		<path d="M501.3,133.05c0.1,3.1-0.5,6.2-1.8,9c-0.2,0.3,0.4,0.6,0.5,0.3c1.3-2.9,2-6.1,1.9-9.3
			C501.9,132.65,501.3,132.65,501.3,133.05L501.3,133.05z"/>
	</g>
</g>
<g>
	<g>
		<path d="M459.7,137.15c-0.3,5.9-0.2,11.9,0.3,17.8c0,0.4,0.6,0.4,0.6,0c-0.5-5.9-0.6-11.9-0.3-17.8
			C460.3,136.75,459.7,136.75,459.7,137.15L459.7,137.15z"/>
	</g>
</g>
<g>
	<g>
		<path d="M457.6,164.25c-1.2-3.7-2.1-7.5-2.5-11.3c0-0.4-0.6-0.4-0.6,0c0.5,3.9,1.3,7.8,2.6,11.5
			C457.1,164.75,457.7,164.65,457.6,164.25L457.6,164.25z"/>
	</g>
</g>
<g>
	<g>
		<path d="M435.7,141.55c0.7,2.7,1.4,5.5,2.1,8.2c0.1,0.4,0.7,0.2,0.6-0.2c-0.7-2.7-1.4-5.5-2.1-8.2
			C436.2,141.05,435.6,141.15,435.7,141.55L435.7,141.55z"/>
	</g>
</g>
<g>
	<g>
		<path d="M445.1,129.35c0.1,3,0.2,5.9,0.2,8.9c0,0.4,0.6,0.4,0.6,0c-0.1-3-0.2-5.9-0.2-8.9C445.6,128.95,445,128.95,445.1,129.35
			L445.1,129.35z"/>
	</g>
</g>
<g>
	<g>
		<path d="M445.4,146.95c0.2,5.4,1,10.7,2.5,15.8c0.1,0.4,0.7,0.2,0.6-0.2c-1.4-5.1-2.3-10.4-2.4-15.7
			C446,146.55,445.4,146.55,445.4,146.95L445.4,146.95z"/>
	</g>
</g>
<g>
	<g>
		<path d="M476.9,166.85c1.5-1.8,3.1-3.5,4.6-5.3c0.2-0.3-0.2-0.7-0.4-0.4c-1.5,1.8-3.1,3.5-4.6,5.3
			C476.3,166.75,476.7,167.15,476.9,166.85L476.9,166.85z"/>
	</g>
</g>
<g>
	<g>
		<path d="M493.2,167.05c1.1-1.5,2.1-2.9,3.2-4.3c0.2-0.3-0.3-0.6-0.5-0.3c-1.1,1.5-2.1,2.9-3.2,4.3
			C492.5,167.05,493,167.35,493.2,167.05L493.2,167.05z"/>
	</g>
</g>
<g>
	<g>
		<path d="M503.2,152.65c-1,2.4-2,4.9-3,7.3c-0.1,0.4,0.4,0.5,0.6,0.2c1-2.4,2-4.9,3-7.3C503.9,152.45,503.3,152.25,503.2,152.65
			L503.2,152.65z"/>
	</g>
</g>
<g>
	<g>
		<path d="M501.8,163.65c3.5-2.3,6.5-5.2,9-8.5c0.2-0.3-0.3-0.6-0.5-0.3c-2.5,3.3-5.5,6.1-8.8,8.3
			C501.2,163.35,501.5,163.85,501.8,163.65L501.8,163.65z"/>
	</g>
</g>
<g>
	<g>
		<path d="M507.1,162.45c2-1.9,3.8-4,5.6-6.1c0.2-0.3-0.2-0.7-0.4-0.4c-1.8,2.1-3.6,4.2-5.6,6.1
			C506.4,162.35,506.8,162.75,507.1,162.45L507.1,162.45z"/>
	</g>
</g>
<g>
	<g>
		<path d="M505.7,162.75c2.1-2.1,3.9-4.4,5.5-6.9c0.2-0.3-0.3-0.6-0.5-0.3c-1.6,2.5-3.4,4.7-5.4,6.8
			C505.1,162.55,505.5,162.95,505.7,162.75L505.7,162.75z"/>
	</g>
</g>
<g>
	<g>
		<path d="M497.1,165.85c1.4-2.1,2.7-4.3,3.9-6.6c0.2-0.3-0.3-0.6-0.5-0.3c-1.2,2.3-2.5,4.5-3.9,6.6
			C496.4,165.85,496.9,166.15,497.1,165.85L497.1,165.85z"/>
	</g>
</g>
<g>
	<g>
		<path d="M490.7,167.65c1.5-2,2.8-4.1,3.9-6.4c0.2-0.3-0.3-0.6-0.5-0.3c-1.1,2.3-2.4,4.4-3.9,6.4
			C489.9,167.65,490.4,167.95,490.7,167.65L490.7,167.65z"/>
	</g>
</g>
<g>
	<g>
		<path d="M475.7,169.15c-1.5-4.3-2.7-8.6-3.5-13.1c-0.1-0.4-0.6-0.2-0.6,0.2c0.8,4.4,2,8.8,3.5,13.1
			C475.3,169.65,475.9,169.45,475.7,169.15L475.7,169.15z"/>
	</g>
</g>
<g>
	<g>
		<path d="M471,167.45c-0.9-4.8-1.4-9.7-1.4-14.6c0-0.4-0.6-0.4-0.6,0c0,4.9,0.5,9.9,1.4,14.7C470.6,167.95,471.1,167.85,471,167.45
			L471,167.45z"/>
	</g>
</g>
<g>
	<g>
		<path d="M464.3,168.45c-0.7-5-0.4-10.1,0.8-15c0.1-0.4-0.5-0.5-0.6-0.2c-1.2,5-1.5,10.1-0.9,15.2
			C463.8,168.85,464.4,168.85,464.3,168.45L464.3,168.45z"/>
	</g>
</g>
<g>
	<g>
		<path d="M452.9,165.05c-0.4-5.1-0.7-10.2-1.1-15.3c0-0.4-0.6-0.4-0.6,0c0.4,5.1,0.7,10.2,1.1,15.3
			C452.4,165.45,452.9,165.45,452.9,165.05L452.9,165.05z"/>
	</g>
</g>
<g>
	<g>
		<path d="M444.5,159.45c-1.1-3.9-2.1-7.7-3-11.7c-0.1-0.4-0.6-0.2-0.6,0.2c0.9,3.9,1.9,7.8,3,11.7
			C444.1,159.95,444.6,159.85,444.5,159.45L444.5,159.45z"/>
	</g>
</g>
<g>
	<g>
		<path d="M429,152.25c3.3,2.3,6,5.5,7.5,9.3c0.1,0.3,0.7,0.2,0.6-0.2c-1.6-3.9-4.3-7.2-7.7-9.6C429,151.55,428.7,152.05,429,152.25
			L429,152.25z"/>
	</g>
</g>
<g>
	<g>
		<path d="M470,138.75c1.1,6.1,1.6,12.3,1.7,18.5c0,0.4,0.6,0.4,0.6,0c-0.1-6.2-0.6-12.5-1.7-18.6
			C470.5,138.25,469.9,138.45,470,138.75L470,138.75z"/>
	</g>
</g>
<g>
	<g>
		<path d="M473.4,125.95c-0.3,5-0.2,10.1,0.3,15.1c0,0.4,0.6,0.4,0.6,0c-0.5-5-0.6-10.1-0.3-15.1
			C474,125.55,473.4,125.55,473.4,125.95L473.4,125.95z"/>
	</g>
</g>
<g>
	<g>
		<path d="M468,127.65c0.2,1,0.3,2,0.5,3c0,0.2,0.2,0.2,0.4,0.2c0.2,0,0.2-0.2,0.2-0.4c-0.2-1-0.3-2-0.5-3c0-0.2-0.2-0.2-0.4-0.2
			C468,127.25,467.9,127.45,468,127.65L468,127.65z"/>
	</g>
</g>
<g>
	<g>
		<path d="M483.3,126.35c0.2,3.5,0.3,7,0.5,10.5c0,0.4,0.6,0.4,0.6,0c-0.2-3.5-0.3-7-0.5-10.5
			C483.9,126.05,483.3,126.05,483.3,126.35L483.3,126.35z"/>
	</g>
</g>
<g>
	<g>
		<path d="M504.3,141.65c-2,5.3-4.3,11-9.5,13.9c-0.3,0.2,0,0.7,0.3,0.5c5.3-2.9,7.7-8.8,9.8-14.3
			C505,141.45,504.4,141.25,504.3,141.65L504.3,141.65z"/>
	</g>
</g>
<g>
	<g>
		<path d="M509.2,146.85c-1.2,2.6-2.9,4.9-5,6.8c-0.3,0.3,0.1,0.7,0.4,0.4c2.1-1.9,3.9-4.3,5.1-6.9
			C509.8,146.75,509.3,146.45,509.2,146.85L509.2,146.85z"/>
	</g>
</g>
<g>
	<g>
		<path d="M511,150.95c-1.8,2.6-3.7,5.1-5.7,7.5c-0.2,0.3,0.2,0.7,0.4,0.4c2-2.4,4-5,5.8-7.6C511.7,150.95,511.2,150.65,511,150.95
			L511,150.95z"/>
	</g>
</g>
<g>
	<g>
		<path d="M432.5,137.45c1.5,3.8,3.2,7.6,5.1,11.3c0.2,0.3,0.7,0,0.5-0.3c-1.9-3.6-3.6-7.3-5.1-11.1
			C432.9,136.95,432.3,137.15,432.5,137.45L432.5,137.45z"/>
	</g>
</g>
<g>
	<g>
		<path d="M451.1,127.65c0.7,0,0.7-1.2,0-1.2C450.3,126.45,450.3,127.65,451.1,127.65L451.1,127.65z"/>
	</g>
</g>
<g>
	<g>
		<path d="M442.6,127.15c0.7,0,0.7-1.2,0-1.2C441.9,125.95,441.9,127.15,442.6,127.15L442.6,127.15z"/>
	</g>
</g>
<g>
	<g>
		<path d="M452.2,123.75c0.7,0,0.7-1.2,0-1.2C451.5,122.55,451.5,123.75,452.2,123.75L452.2,123.75z"/>
	</g>
</g>
<g>
	<g>
		<path d="M453.1,121.05c0.7,0,0.7-1.2,0-1.2S452.4,121.05,453.1,121.05L453.1,121.05z"/>
	</g>
</g>
<g>
	<g>
		<path d="M461.2,123.55c0.7,0,0.7-1.2,0-1.2C460.4,122.35,460.4,123.55,461.2,123.55L461.2,123.55z"/>
	</g>
</g>
<g>
	<g>
		<path d="M459.3,127.85c0.7,0,0.7-1.2,0-1.2C458.6,126.75,458.6,127.85,459.3,127.85L459.3,127.85z"/>
	</g>
</g>
<g>
	<g>
		<path d="M458.2,121.95c0.7,0,0.7-1.2,0-1.2S457.4,121.95,458.2,121.95L458.2,121.95z"/>
	</g>
</g>
<g>
	<g>
		<path d="M468,121.45c0.7,0,0.7-1.2,0-1.2S467.3,121.45,468,121.45L468,121.45z"/>
	</g>
</g>
<g>
	<g>
		<path d="M469.8,125.15c0.7,0,0.7-1.2,0-1.2S469.1,125.15,469.8,125.15L469.8,125.15z"/>
	</g>
</g>
<g>
	<g>
		<path d="M465,121.25c0.7,0,0.7-1.2,0-1.2S464.3,121.25,465,121.25L465,121.25z"/>
	</g>
</g>
<g>
	<g>
		<path d="M475.8,121.95c0.7,0,0.7-1.2,0-1.2C475,120.75,475,121.95,475.8,121.95L475.8,121.95z"/>
	</g>
</g>
<g>
	<g>
		<path d="M473.7,120.35c0.7,0,0.7-1.2,0-1.2C473,119.15,473,120.35,473.7,120.35L473.7,120.35z"/>
	</g>
</g>
<g>
	<g>
		<path d="M475.1,124.95c0.7,0,0.7-1.2,0-1.2S474.4,124.95,475.1,124.95L475.1,124.95z"/>
	</g>
</g>
<g>
	<g>
		<path d="M481.7,122.35c0.7,0,0.7-1.2,0-1.2S481,122.35,481.7,122.35L481.7,122.35z"/>
	</g>
</g>
<g>
	<g>
		<path d="M476.5,130.65c0.7,0,0.7-1.2,0-1.2S475.7,130.65,476.5,130.65L476.5,130.65z"/>
	</g>
</g>
<g>
	<g>
		<path d="M481.5,130.35c0.7,0,0.7-1.2,0-1.2C480.8,129.25,480.8,130.35,481.5,130.35L481.5,130.35z"/>
	</g>
</g>
<g>
	<g>
		<path d="M481.3,126.55c0.7,0,0.7-1.2,0-1.2C480.5,125.35,480.5,126.55,481.3,126.55L481.3,126.55z"/>
	</g>
</g>
<g>
	<g>
		<path d="M488.1,125.55c0.7,0,0.7-1.2,0-1.2S487.4,125.55,488.1,125.55L488.1,125.55z"/>
	</g>
</g>
<g>
	<g>
		<path d="M488.1,125.55c0.7,0,0.7-1.2,0-1.2S487.4,125.55,488.1,125.55L488.1,125.55z"/>
	</g>
</g>
<g>
	<g>
		<path d="M488.1,130.35c0.7,0,0.7-1.2,0-1.2S487.4,130.35,488.1,130.35L488.1,130.35z"/>
	</g>
</g>
<g>
	<g>
		<path d="M485.9,125.15c0.7,0,0.7-1.2,0-1.2C485.1,123.95,485.1,125.15,485.9,125.15L485.9,125.15z"/>
	</g>
</g>
<g>
	<g>
		<path d="M492.7,128.15c0.7,0,0.7-1.2,0-1.2C492,126.95,492,128.15,492.7,128.15L492.7,128.15z"/>
	</g>
</g>
<g>
	<g>
		<path d="M495,133.15c0.7,0,0.7-1.2,0-1.2C494.2,131.95,494.2,133.15,495,133.15L495,133.15z"/>
	</g>
</g>
<g>
	<g>
		<path d="M494.3,127.45c0.7,0,0.7-1.2,0-1.2S493.6,127.45,494.3,127.45L494.3,127.45z"/>
	</g>
</g>
<g>
	<g>
		<path d="M493.4,136.35c0.7,0,0.7-1.2,0-1.2S492.6,136.35,493.4,136.35L493.4,136.35z"/>
	</g>
</g>
<g>
	<g>
		<path d="M497.5,140.25c0.7,0,0.7-1.2,0-1.2S496.8,140.25,497.5,140.25L497.5,140.25z"/>
	</g>
</g>
<g>
	<g>
		<path d="M498,132.25c0.7,0,0.7-1.2,0-1.2C497.2,131.05,497.2,132.25,498,132.25L498,132.25z"/>
	</g>
</g>
<g>
	<g>
		<path d="M498.9,137.05c0.7,0,0.7-1.2,0-1.2S498.1,137.05,498.9,137.05L498.9,137.05z"/>
	</g>
</g>
<g>
	<g>
		<path d="M500,131.35c0.7,0,0.7-1.2,0-1.2S499.3,131.35,500,131.35L500,131.35z"/>
	</g>
</g>
<g>
	<g>
		<path d="M504.4,137.05c0.7,0,0.7-1.2,0-1.2C503.6,135.85,503.6,137.05,504.4,137.05L504.4,137.05z"/>
	</g>
</g>
<g>
	<g>
		<path d="M505.5,141.85c0.7,0,0.7-1.2,0-1.2S504.8,141.85,505.5,141.85L505.5,141.85z"/>
	</g>
</g>
<g>
	<g>
		<path d="M508.7,142.05c0.7,0,0.7-1.2,0-1.2C508,140.85,508,142.05,508.7,142.05L508.7,142.05z"/>
	</g>
</g>
<g>
	<g>
		<path d="M448.6,124.65c0.7,0,0.7-1.2,0-1.2C447.9,123.45,447.8,124.65,448.6,124.65L448.6,124.65z"/>
	</g>
</g>
<g>
	<g>
		<path d="M444,123.95c0.7,0,0.7-1.2,0-1.2C443.3,122.75,443.3,123.95,444,123.95L444,123.95z"/>
	</g>
</g>
<g>
	<g>
		<path d="M438.7,127.45c0.7,0,0.7-1.2,0-1.2C438,126.25,438,127.45,438.7,127.45L438.7,127.45z"/>
	</g>
</g>
<g>
	<g>
		<path d="M442.2,131.35c0.7,0,0.7-1.2,0-1.2C441.5,130.15,441.4,131.35,442.2,131.35L442.2,131.35z"/>
	</g>
</g>
<g>
	<g>
		<path d="M435.5,134.75c0.7,0,0.7-1.2,0-1.2S434.8,134.75,435.5,134.75L435.5,134.75z"/>
	</g>
</g>
<g>
	<g>
		<path d="M432.8,132.05c0.7,0,0.7-1.2,0-1.2C432,130.85,432,132.05,432.8,132.05L432.8,132.05z"/>
	</g>
</g>
<g>
	<g>
		<path d="M432.8,136.15c0.7,0,0.7-1.2,0-1.2C432,134.95,432,136.15,432.8,136.15L432.8,136.15z"/>
	</g>
</g>
<g>
	<g>
		<path d="M430.7,139.35c0.7,0,0.7-1.2,0-1.2C430,138.15,430,139.35,430.7,139.35L430.7,139.35z"/>
	</g>
</g>
<g>
	<g>
		<path d="M429.1,145.05c0.7,0,0.7-1.2,0-1.2C428.4,143.85,428.4,145.05,429.1,145.05L429.1,145.05z"/>
	</g>
</g>
<g>
	<g>
		<path d="M426.2,140.25c0.7,0,0.7-1.2,0-1.2C425.4,139.05,425.4,140.25,426.2,140.25L426.2,140.25z"/>
	</g>
</g>
<g>
	<g>
		<path d="M426.4,146.85c0.7,0,0.7-1.2,0-1.2C425.7,145.65,425.6,146.85,426.4,146.85L426.4,146.85z"/>
	</g>
</g>
<g>
	<g>
		<path d="M424.6,148.25c0.7,0,0.7-1.2,0-1.2C423.8,147.05,423.8,148.25,424.6,148.25L424.6,148.25z"/>
	</g>
</g>
<g>
	<g>
		<path d="M513.1,150.55c0.7,0,0.7-1.2,0-1.2S512.3,150.55,513.1,150.55L513.1,150.55z"/>
	</g>
</g>
<g>
	<g>
		<path d="M509.6,145.45c0.7,0,0.7-1.2,0-1.2C508.9,144.35,508.9,145.45,509.6,145.45L509.6,145.45z"/>
	</g>
</g>
<g>
	<g>
		<path d="M505.8,148.95c0.7,0,0.7-1.2,0-1.2C505,147.75,505,148.95,505.8,148.95L505.8,148.95z"/>
	</g>
</g>
<g>
	<g>
		<path d="M511.5,148.45c0.7,0,0.7-1.2,0-1.2C510.7,147.25,510.7,148.45,511.5,148.45L511.5,148.45z"/>
	</g>
</g>
<g>
	<g>
		<path d="M514,144.35c0.7,0,0.7-1.2,0-1.2S513.2,144.35,514,144.35L514,144.35z"/>
	</g>
</g>
<g>
	<g>
		<path d="M511.2,140.65c0.7,0,0.7-1.2,0-1.2C510.5,139.55,510.5,140.65,511.2,140.65L511.2,140.65z"/>
	</g>
</g>
<g>
	<g>
		<path d="M505.8,133.15c0.7,0,0.7-1.2,0-1.2C505,131.95,505,133.15,505.8,133.15L505.8,133.15z"/>
	</g>
</g>
<g>
	<g>
		<path d="M431.4,146.15c0.7,0,0.7-1.2,0-1.2C430.7,144.95,430.7,146.15,431.4,146.15L431.4,146.15z"/>
	</g>
</g>
<g>
	<g>
		<path d="M426.2,135.15c0.7,0,0.7-1.2,0-1.2C425.4,134.05,425.4,135.15,426.2,135.15L426.2,135.15z"/>
	</g>
</g>
<g>
	<g>
		<path d="M432.6,127.15c0.7,0,0.7-1.2,0-1.2C431.9,125.95,431.8,127.15,432.6,127.15L432.6,127.15z"/>
	</g>
</g>
<g>
	<g>
		<path d="M441.5,123.75c0.7,0,0.7-1.2,0-1.2C440.8,122.55,440.7,123.75,441.5,123.75L441.5,123.75z"/>
	</g>
</g>
<g>
	<g>
		<path d="M447,117.85c0.7,0,0.7-1.2,0-1.2C446.2,116.65,446.2,117.85,447,117.85L447,117.85z"/>
	</g>
</g>
<g>
	<g>
		<path d="M451.3,121.25c0.7,0,0.7-1.2,0-1.2S450.6,121.25,451.3,121.25L451.3,121.25z"/>
	</g>
</g>
<g>
	<g>
		<path d="M459.8,116.85c0.7,0,0.7-1.2,0-1.2S459,116.85,459.8,116.85L459.8,116.85z"/>
	</g>
</g>
<g>
	<g>
		<path d="M462.8,120.35c0.7,0,0.7-1.2,0-1.2S462,120.35,462.8,120.35L462.8,120.35z"/>
	</g>
</g>
<g>
	<g>
		<path d="M456.6,116.45c0.7,0,0.7-1.2,0-1.2C455.8,115.25,455.8,116.45,456.6,116.45L456.6,116.45z"/>
	</g>
</g>
<g>
	<g>
		<path d="M466.9,114.65c0.7,0,0.7-1.2,0-1.2S466.1,114.65,466.9,114.65L466.9,114.65z"/>
	</g>
</g>
<g>
	<g>
		<path d="M474.9,117.85c0.7,0,0.7-1.2,0-1.2S474.1,117.85,474.9,117.85L474.9,117.85z"/>
	</g>
</g>
<g>
	<g>
		<path d="M470.3,117.35c0.7,0,0.7-1.2,0-1.2C469.5,116.15,469.5,117.35,470.3,117.35L470.3,117.35z"/>
	</g>
</g>
<g>
	<g>
		<path d="M470.5,121.95c0.7,0,0.7-1.2,0-1.2S469.8,121.95,470.5,121.95L470.5,121.95z"/>
	</g>
</g>
<g>
	<g>
		<path d="M474.6,114.15c0.7,0,0.7-1.2,0-1.2S473.9,114.15,474.6,114.15L474.6,114.15z"/>
	</g>
</g>
<g>
	<g>
		<path d="M479.2,119.15c0.7,0,0.7-1.2,0-1.2C478.5,118.05,478.5,119.15,479.2,119.15L479.2,119.15z"/>
	</g>
</g>
<g>
	<g>
		<path d="M423.7,145.05c0.7,0,0.7-1.2,0-1.2C422.9,143.85,422.9,145.05,423.7,145.05L423.7,145.05z"/>
	</g>
</g>
<g>
	<g>
		<path d="M429.1,150.05c0.7,0,0.7-1.2,0-1.2C428.4,148.85,428.4,150.05,429.1,150.05L429.1,150.05z"/>
	</g>
</g>
<g>
	<g>
		<path d="M422.7,156.05c0.7,0,0.7-1.2,0-1.2C422,154.85,422,156.05,422.7,156.05L422.7,156.05z"/>
	</g>
</g>
<g>
	<g>
		<path d="M427.1,158.25c0.7,0,0.7-1.2,0-1.2C426.3,157.15,426.3,158.25,427.1,158.25L427.1,158.25z"/>
	</g>
</g>
<g>
	<g>
		<path d="M421.6,153.45c0.7,0,0.7-1.2,0-1.2C420.8,152.35,420.8,153.45,421.6,153.45L421.6,153.45z"/>
	</g>
</g>
<g>
	<g>
		<path d="M479.9,115.05c0.7,0,0.7-1.2,0-1.2C479.2,113.95,479.2,115.05,479.9,115.05L479.9,115.05z"/>
	</g>
</g>
<g>
	<g>
		<path d="M487,121.05c0.7,0,0.7-1.2,0-1.2C486.2,119.85,486.2,121.05,487,121.05L487,121.05z"/>
	</g>
</g>
<g>
	<g>
		<path d="M495.7,93.35c2.6-6.1,7.3-10.9,11.8-15.6c4.3-4.6,8.8-9.1,13.4-13.5c9.3-8.8,19-17.2,29.5-24.6
			c10.2-7.3,21.1-13.7,32.6-18.8c2.9-1.3,5.8-2.6,8.9-3.6c2.7-0.9,5.8-1.7,8.6-0.6c6,2.3,4.3,10.2,2.8,14.9
			c-4.3,13.2-13.3,24.4-16.2,38.1c-1.4,6.4-0.9,12.6,0.8,18.9s4.2,12.8,3.5,19.4c-0.3,3.4-1.7,6.6-2.2,9.9c-0.3,1.6-0.3,3.2-1.1,4.6
			c-0.7,1.3-1.7,2.3-2.7,3.4c-2,2.1-3.3,4-4.1,6.8c-0.4,1.4-0.9,2.7-2,3.6c-1,0.9-2.3,1.5-3.6,2.2c-1.1,0.6-2.2,1.2-3.1,2
			c-1.2,1-2.1,2.3-3.3,3.4c-2.4,2.1-5.7,2.5-8.8,2.6c-3.1,0.1-6.4,0.1-9.4-0.7c-3.2-0.8-5.4-3.5-8.5-4.6c-1.5-0.5-3.1-0.7-4.6-0.9
			c-1.7-0.3-3.3-0.8-4.9-1.5c-3.3-1.4-6.6-3-9.8-4.5c-3-1.4-6.1-2.7-9-4.2c-2.4-1.2-4.9-2.7-6.6-4.8c-2.1-2.7-1.5-5.4-1.1-8.6
			c0.3-2.2-0.1-4.3-1-6.3c-1.9-4.2-5.6-7.3-7.9-11.2c-1.1-1.9-1.9-3.9-1.7-6.1c0.1-1.2-1.8-1.2-1.9,0c-0.3,4.8,2.9,8.6,5.7,12.1
			c1.5,1.9,3.1,3.8,4.1,6c0.5,1,0.8,2.1,0.9,3.2c0.2,1.7-0.4,3.4-0.5,5.2c-0.7,5.8,4,9.6,8.7,12c3.1,1.6,6.3,2.9,9.4,4.4
			c3.3,1.5,6.6,3.1,10,4.6c1.5,0.6,3,1.2,4.6,1.5c1.8,0.4,3.6,0.5,5.3,1.1c1.7,0.6,3,1.8,4.4,2.8c1.3,0.9,2.8,1.5,4.3,1.8
			c3.2,0.7,6.6,0.7,9.9,0.6c2.8-0.1,5.8-0.5,8.2-2c2.6-1.6,4.1-4.3,6.7-5.8c2.3-1.3,5-2.4,6.3-4.9c0.6-1.3,0.8-2.6,1.3-3.9
			c0.5-1.5,1.6-2.8,2.7-3.9c2-2.1,3.9-4.1,4.4-7.1c0.3-1.6,0.5-3.2,0.9-4.8c0.5-1.9,1-3.7,1.4-5.6c0.6-3.1,0.5-6.3,0-9.4
			c-1.1-6.9-4.1-13.4-4.8-20.5c-1.3-15.1,8.2-28.1,14.1-41.2c2.4-5.3,5.1-11.6,4.1-17.6c-0.4-2.5-1.8-4.8-4.1-6.1
			c-2.3-1.3-5.1-1.3-7.7-0.8c-3.2,0.6-6.2,2-9.2,3.2c-2.9,1.2-5.8,2.6-8.7,4c-6,2.9-11.9,6.2-17.5,9.8c-11.2,7-21.6,15.1-31.5,23.9
			c-5,4.5-9.9,9.1-14.7,13.9c-4.7,4.8-9.6,9.6-13.8,14.9c-2,2.5-3.8,5.2-5.1,8.2C493.6,93.55,495.3,94.45,495.7,93.35L495.7,93.35z"
			/>
	</g>
</g>
<g>
	<g>
		<path d="M499,101.55c0-6.5,4.9-11.6,10.1-14.9c5.5-3.5,11.8-5.5,18.1-7.2c6.2-1.6,12.4-2.9,18.5-4.8c6.4-2,13-6,20-5.4
			c3.9,0.3,7.3,2.2,10.6,4.3c3.5,2.2,6.8,4.5,10.2,6.8c0.3,0.2,0.6-0.3,0.3-0.5c-3.3-2.2-6.5-4.4-9.8-6.6c-2.8-1.8-5.7-3.5-9-4.2
			c-7.1-1.6-13.8,2.1-20.3,4.4c-12.7,4.4-26.7,5.4-38.4,12.5c-5.5,3.4-10.8,8.7-10.8,15.6C498.4,101.95,499,101.95,499,101.55
			L499,101.55z"/>
	</g>
</g>
<g>
	<path d="M510.1,84.65c3.7-7.1,9.8-12.7,16-17.8c5.3-4.4,10.9-8.5,17.5-10.6c3-1,7-1.1,8.6,1.7c1.1,2,0.3,4.5-1.3,6.2
		c-1.5,1.6-3.6,2.6-5.6,3.6c-3.5,1.9-7,4.5-8.3,8.3"/>
</g>
<g>
	<g>
		<path d="M553.1,59.15c5-3.4,11.7-5.8,17.9-5.2c1.6,0.2,3.3,0.7,4.4,2c0.7,0.7,1.5,2,0.7,3c-0.6,0.7-1.9,0.8-2.8,0.9
			c-2,0.2-4.6,0.4-5.2,2.7c0,0.2,0.1,0.3,0.2,0.4c0.5,0.2,1,0.4,1.5,0.6c0.2,0.1,0.4,0.2,0.6,0.3c0.6,0.3,0.7,0.6,0.4,0.9
			c-0.3,0.7-1.7,1.2-2.3,1.6c-1,0.7-1.8,1.6-1.8,2.9c0,0.4,0.6,0.4,0.6,0c-0.2-2.6,3.4-2.5,4.2-4.5c0.2-0.4,0.2-0.7-0.2-1
			c-0.7-0.6-2-0.9-2.9-1.2c0.1,0.1,0.1,0.2,0.2,0.4c0.6-2.3,3.4-2.1,5.3-2.4c1.1-0.2,2.5-0.5,3-1.6c0.4-1-0.2-2.1-0.7-2.9
			c-0.9-1.1-2.2-1.9-3.5-2.2c-3.2-0.9-6.9-0.2-10.1,0.6c-3.5,0.9-6.8,2.4-9.8,4.4C552.5,58.85,552.8,59.35,553.1,59.15L553.1,59.15z
			"/>
	</g>
</g>
<g>
	<path d="M546.2,50.75c0.8-2.2,2.8-3.6,4.7-4.9c0.5-0.4,1.1-0.8,1.8-0.9c0.7-0.1,1.4,0.1,1.7,0.7c0.1,0.3,0.1,0.6,0.3,0.9
		c0.4,0.5,1.3,0.4,1.9,0.7c0.6,0.3,0.8,1.1,0.6,1.7c-0.2,0.6-0.7,1.1-1.2,1.6c-2.5,2-6.4,2.1-9,0.2"/>
</g>
<g>
	<g>
		<path d="M578.4,44.15c-2.2-0.5-4.9-0.7-6.7,1c-0.6,0.6-1.1,1.5-1,2.4c0,0.4,0.2,0.7,0.5,1c0.5,0.3,1.3,0.1,1.5,0.7
			c0.3,0.8-1.5,1.5-0.4,2.2c0.8,0.6,2.1,0.9,3.2,1c2.1,0.2,4.3-0.9,5.2-2.9c0.8-1.9-0.1-4.4-2.2-5c-0.4-0.1-0.5,0.5-0.2,0.6
			c1.6,0.5,2.4,2.4,1.9,4c-0.6,1.8-2.5,2.8-4.2,2.8c-1,0-2.1-0.3-3-0.7c-0.3-0.2-0.4-0.3-0.2-0.6c0.1-0.1,0.3-0.3,0.4-0.4
			c0.2-0.3,0.2-0.5,0.2-0.9c0-0.3-0.2-0.6-0.4-0.8c-0.3-0.3-0.7-0.2-1.1-0.3c-1-0.2-0.4-1.7,0-2.2c1.5-1.9,4.2-1.6,6.4-1.2
			C578.6,44.85,578.7,44.25,578.4,44.15L578.4,44.15z"/>
	</g>
</g>
<g>
	<g>
		<path d="M571.4,43.55c-0.6-0.8-1.1-1.7-1.5-2.7c-0.4-0.9-0.6-1.8-0.9-2.7c-0.3-0.7-0.6-1.4-1.3-1.7c-0.8-0.4-1.6-0.3-2.4,0.1
			c-1.5,0.7-2.7,2.1-3,3.7c-0.2,1.5,0.5,3.1,1.9,3.8c0.9,0.4,2,0.3,2.9,0.1c1.3-0.2,2.5-0.5,3.8-0.7c0.4-0.1,0.2-0.6-0.2-0.6
			c-0.9,0.2-1.9,0.4-2.8,0.5c-0.9,0.2-1.9,0.5-2.8,0.4c-1.4-0.2-2.4-1.6-2.4-3c0-1.5,1.1-2.8,2.4-3.5c0.7-0.4,1.6-0.7,2.3-0.2
			c0.6,0.4,0.8,1.1,1.1,1.7c0.6,1.8,1.3,3.5,2.4,5C571.1,44.15,571.6,43.85,571.4,43.55L571.4,43.55z"/>
	</g>
</g>
<g>
	<g>
		<path d="M591.6,28.65c-0.5-3.3-4-4.5-6.9-4.3c-3.8,0.3-6.6,2.4-9.7,4.5c-1.1,0.7-2.7,1.3-3.5,2.4c-0.6,0.9-0.4,2,0.6,2.6
			c1.3,0.9,2.9,0.2,4.2-0.3c2-0.7,4.1-1.1,6.3-1.2c1.9-0.1,3.8,0.3,5.7-0.1c1.8-0.4,2.7-1.7,3.5-3.3c0.2-0.3-0.3-0.6-0.5-0.3
			c-0.4,0.8-0.8,1.6-1.5,2.2c-0.8,0.7-1.9,0.9-2.9,0.9c-1.7,0.1-3.4-0.1-5.1,0c-1.9,0.2-3.7,0.5-5.5,1.1c-0.8,0.3-1.7,0.7-2.6,0.7
			c-1.4,0-2.5-1.3-1.3-2.4c0.6-0.6,1.4-0.9,2.1-1.3s1.3-0.9,2-1.3c1.6-1.1,3.2-2.2,5-2.9c3.3-1.2,9-1.4,9.7,3.1
			C591.1,29.25,591.7,29.05,591.6,28.65L591.6,28.65z"/>
	</g>
</g>
<g>
	<path d="M585.2,36.75c-0.3-0.2-0.7-0.1-1,0.1c-0.5,0.3-1,0.7-1,1.3c0,0.5,0.5,0.9,1,1s1-0.1,1.5-0.3c0.3-0.2,0.5-0.4,0.6-0.7
		c0.1-0.3-0.1-0.7-0.3-1s-0.5-0.5-0.8-0.6"/>
</g>
<g>
	<path d="M602.9,23.85c-1.5,0-3,0.8-3.8,2.1c0,0.1-0.1,0.1-0.1,0.2s0,0.1,0.1,0.2c0.4,0.4,1,0.5,1.5,0.3s1-0.5,1.4-0.9
		c0.5-0.5,1-1,1.2-1.6c-0.1,0-0.1,0.1-0.2,0.1"/>
</g>
<g>
	<path d="M600.6,30.35c-1-0.2-2.1,0.2-2.6,1.1c-0.1,0.2-0.2,0.4-0.2,0.6c0.1,0.4,0.5,0.6,0.8,0.6c0.4,0,0.7-0.2,1-0.4
		s0.5-0.3,0.8-0.5s0.6-0.4,0.7-0.7c0.1-0.3,0-0.8-0.4-0.8"/>
</g>
<g>
	<path d="M594.9,38.55c-0.8-0.1-1.6,0.6-1.5,1.4c0.1,0.8,1,1.4,1.8,1.2c0.5-0.2,0.8-0.6,1.1-1c0.1-0.1,0.2-0.3,0.2-0.5
		c0-0.1-0.1-0.3-0.2-0.4c-0.4-0.4-0.9-0.7-1.3-0.8"/>
</g>
<g>
	<path d="M592.7,43.45c-0.3,0.4-0.5,0.9-0.4,1.4c0.1,0.5,0.6,0.9,1.1,0.9s1-0.4,1-0.9c0-0.4-0.3-0.8-0.6-1.1
		c-0.2-0.1-0.3-0.3-0.5-0.3s-0.5,0.1-0.4,0.4"/>
</g>
<g>
	<g>
		<path d="M589,47.95c-0.9-0.2-1.3,1-1.3,1.6c0,0.7,0.2,1.6,1,1.9c0.7,0.3,1.5-0.2,1.8-0.8c0.2-0.3,0.3-0.7,0.4-1.1
			c0.1-0.4,0.1-0.8-0.1-1.2s-0.6-0.6-1-0.7c-0.5-0.1-0.9,0-1.4,0.2c-0.1,0.1-0.2,0.2-0.2,0.4c0,0.1,0.2,0.3,0.4,0.2
			c0.5-0.2,1.1-0.4,1.5,0c0.4,0.4,0.2,1.1,0,1.5s-0.5,0.9-1,0.9s-0.8-0.5-0.9-1c0-0.3,0-0.6,0.1-1c0-0.2,0.2-0.6,0.4-0.5
			C589.2,48.65,589.4,48.05,589,47.95L589,47.95z"/>
	</g>
</g>
<g>
	<path d="M584.8,53.55c-0.5,0-1,0.2-1.3,0.5c-0.3,0.4-0.6,0.8-0.7,1.3c-0.2,0.7-0.3,1.5,0,2.1c0.4,0.9,1.6,1.3,2.5,0.9
		c0.9-0.3,1.5-1.3,1.6-2.2c0-1-0.5-1.9-1.3-2.4c-0.4-0.2-0.9-0.4-1.2,0"/>
</g>
<g>
	<g>
		<path d="M580.8,60.75c-1.2-0.3-2.3,0.7-2.9,1.7c-0.3,0.5-0.4,1.1-0.3,1.7c0.1,0.5,0.3,1.1,0.7,1.6c0.8,1,2.2,0.8,3.1,0.2
			c0.9-0.6,1.8-1.6,1.7-2.8c-0.2-1.4-1.5-2.2-2.8-2.3c-0.4,0-0.4,0.5,0,0.6c0.9,0.1,1.8,0.6,2.1,1.5c0.3,0.9-0.3,1.7-1,2.3
			c-0.7,0.5-1.7,1.1-2.5,0.4c-0.3-0.3-0.5-0.7-0.6-1.1c-0.1-0.5-0.2-1,0-1.5s0.6-0.9,0.9-1.3c0.4-0.4,0.9-0.6,1.4-0.5
			C581,61.45,581.2,60.85,580.8,60.75L580.8,60.75z"/>
	</g>
</g>
<g>
	<path d="M582.6,68.65c-0.4,0.1-0.7,0.5-0.9,1c-0.2,0.8,0,1.8,0.6,2.4c0.3,0.4,0.8,0.6,1.3,0.5c0.3-0.1,0.5-0.3,0.6-0.5
		c0.5-1,0-2.2-0.8-3c-0.1-0.1-0.3-0.2-0.5-0.3c-0.2,0-0.4,0-0.5,0.2"/>
</g>
<g>
	<path d="M591.4,36.05c-2.6-1.3-5.7-1.6-8.6-0.8c-1.8,0.5-3.6,1.4-5.5,1.5c-0.8,0.1-1.6,0-2.3,0.1c-0.7,0.1-1.5,0.5-1.9,1.1
		c-0.4,0.6-0.2,1.7,0.5,2c0.5,0.2,1.2,0.2,1.4,0.7c-0.5,0-0.6,0.9-0.2,1.3c0.4,0.4,1,0.4,1.5,0.4c4.1-0.1,8.3-0.4,12.2-1.6
		c1-0.3,2-0.7,2.7-1.5c0.7-0.7,1.1-1.9,0.7-2.9C591.7,36.15,591.5,35.95,591.4,36.05"/>
</g>
<g>
	<g>
		<path d="M506.3,82.65c0.5-0.4,0.9-1,1.2-1.5c0.4-0.6,0.9-1.2,1.4-1.8c0.9-1.1,1.8-2.3,2.8-3.4c1.9-2.1,4-4.2,6.2-6
			c0.3-0.2-0.1-0.7-0.4-0.4c-2.2,1.9-4.3,3.9-6.2,6c-0.9,1.1-1.9,2.2-2.7,3.3c-0.4,0.5-0.8,1-1.2,1.6c-0.5,0.6-0.9,1.3-1.5,1.8
			C505.6,82.55,506,82.95,506.3,82.65L506.3,82.65z"/>
	</g>
</g>
<g>
	<g>
		<path d="M527.2,62.05c1.6-1.3,3.3-2.7,4.9-4c0.3-0.2-0.1-0.7-0.4-0.4c-1.6,1.3-3.3,2.7-4.9,4C526.4,61.85,526.9,62.25,527.2,62.05
			L527.2,62.05z"/>
	</g>
</g>
<g>
	<g>
		<path d="M541.3,49.25c4.4-4.1,9.3-7.6,14.5-10.5c0.3-0.2,0-0.7-0.3-0.5c-5.3,2.9-10.2,6.5-14.7,10.6
			C540.6,49.15,541,49.55,541.3,49.25L541.3,49.25z"/>
	</g>
</g>
<g>
	<path d="M512.6,99.95c0.2-4.2,2.6-8.2,6.1-10.4c1.5-0.9,3.2-1.5,4.8-2.4c2.6-1.5,4.7-3.9,7.6-4.6c0.6-0.2,1.3-0.2,1.8,0.2
		c0.9,0.8,0.2,2.2,0,3.4c-0.1,0.9,0.2,1.8-0.2,2.6c-0.2,0.5-0.6,0.8-1,1.2c-4.8,4.3-10,8.6-16.2,10.5c-1,0.3-2,0.5-2.9,0.1"/>
</g>
<g>
	<g>
		<path d="M536.6,92.45c-0.7,0.1-1.5,0.1-2.2,0.3c-0.2,0-0.5,0.2-0.7,0.2c-1.4-0.1,0-1.1,0.4-1.5c1.7-1.5,3.4-3.1,5.1-4.6
			c3.1-2.9,6-5.9,9.6-8.2c1.7-1.2,3.6-2.1,5.7-2.7c1.6-0.5,2.9-0.5,4.2,0.5c1,0.7,1.9,1.5,2.7,2.4c0.4,0.4,0.8,0.7,1.1,1.1
			c0.4,0.5,0.4,0.2,0.3,1c-0.1,0.9-0.1,0.5-0.6,0.9c-1,0.7-2.4,1-3.5,1.5c-2.2,1-4.4,2-6.6,2.9c-2.6,1.1-5.1,2.3-7.7,3.4
			C541.8,90.75,539.3,91.85,536.6,92.45c-0.4,0.1-0.2,0.6,0.2,0.6c2.8-0.6,5.4-1.9,8.1-3c3-1.3,6-2.7,9-4c2.9-1.3,5.9-2.5,8.8-3.9
			c2.3-1.1,0.6-2.4-0.7-3.6c-1.4-1.4-3.5-3.7-5.7-3.6c-2.4,0.1-4.8,1.4-6.8,2.6c-4.7,2.8-8.5,6.9-12.5,10.6
			c-1.1,1.1-2.3,2.1-3.5,3.1c-0.4,0.4-1.1,0.9-1.2,1.5c0,0.5,0.2,0.8,0.7,0.9c0.4,0.1,0.8-0.1,1.2-0.2c0.8-0.2,1.7-0.2,2.6-0.4
			C537.1,92.95,537,92.35,536.6,92.45z"/>
	</g>
</g>
<g>
	<path d="M549.8,96.35c-1.5,0-3-0.3-4.5-0.5c-0.8-0.1-1.5-0.1-2.3-0.1c-0.4,0-1,0.2-1.4,0c-0.8-0.3-0.9-1.3-0.3-1.8
		c0.6-0.5,1.4-0.6,2.1-0.9c7.9-3.6,16-6.6,24.2-9.1c1.3-0.4,2.6-0.8,3.9-0.4c1.5,0.4,2.5,1.7,3.5,2.9c0.8,1,1.6,2.4,0.9,3.5
		c-0.4,0.6-1.1,0.9-1.8,1.1c-2.4,0.5-4.9,0.2-7.3,0.4C560.9,92.25,555.7,96.45,549.8,96.35z"/>
</g>
<g>
	<g>
		<path d="M582.8,101.85c0.9-2.6,2.9-7.9,0-10c-1.5-1.1-3.5-0.4-5.1,0.2c-2.2,0.8-4.4,1.8-6.6,2.6c-2.4,0.9-4.8,1.2-7.4,1.4
			c-1.8,0.2-4.1,0.3-5.6,1.4c-1,0.8-0.8,1.9,0.3,2.5c0.6,0.3,1.3,0.4,2,0.5c1.4,0.2,2.7,0.3,4.1,0.5c5.8,0.6,11.7,1.7,17.5,1.4
			c0.4,0,0.4-0.6,0-0.6c-5,0.2-10-0.6-15-1.1c-1.4-0.2-2.7-0.3-4.1-0.5c-1.2-0.1-2.5-0.1-3.6-0.4c-0.3-0.1-0.6-0.2-0.8-0.3
			c-0.3-1.1,0-1.7,0.9-1.9c0.6-0.2,1.2-0.4,1.8-0.5c1.3-0.3,2.6-0.3,3.8-0.5c2.2-0.2,4.3-0.6,6.3-1.4c2.1-0.8,4.2-1.8,6.4-2.5
			c1.1-0.4,2.5-0.9,3.7-0.6c1.4,0.3,2,1.6,2,2.9c0.2,2.3-0.7,4.7-1.4,6.8C582.2,102.05,582.7,102.25,582.8,101.85L582.8,101.85z"/>
	</g>
</g>
<g>
	<g>
		<path d="M544.1,97.85c-0.7,0.2-1.4,0.4-2.1,0.6c-1.4,0.3-1.9-0.3-2.7-1.2c-0.8-0.9-1.9-1.3-3.1-1.5c-3.3-0.5-6.4,0.9-9.2,2.6
			c-3.2,2-6.1,4.2-9.7,5.4c-1.1,0.4-6.3,1.3-4.1,3.6c0.7,0.8,2,0.8,2.9,0.9c2,0.2,4,0.2,6,0.1c4.1-0.3,8.1-1,12.2-1.4
			c4.1-0.4,8.2-0.5,12.3-0.7c1.9-0.1,3.8-0.1,5.7-0.2c1.3-0.1,2.6-0.2,3.8-0.8c0.8-0.4,1.7-1.1,1.4-2.2c-0.4-1.3-1.9-2.6-2.9-3.4
			C551.7,97.45,547.8,97.15,544.1,97.85c-0.4,0.1-0.2,0.6,0.2,0.6c3.2-0.6,6.6-0.4,9.5,1.3c1.1,0.7,2.6,1.8,3.1,3.1
			c0.9,2.1-2.4,2.5-3.8,2.6c-6.4,0.5-12.8,0.5-19.2,1.1c-3.2,0.3-6.3,0.8-9.4,1.1c-1.5,0.2-2.9,0.3-4.4,0.3s-3.8,0.2-5.2-0.4
			c-0.7-0.3-3.4-0.3-0.1-2.4c0.2-0.1,0.7-0.2,0.8-0.2c0.7-0.2,1.3-0.4,2-0.6c1.3-0.4,2.6-1,3.8-1.6c2.5-1.3,4.6-3.1,7-4.5
			c2.7-1.6,7.4-3.3,10.2-0.9c0.7,0.7,1.2,1.6,2.2,1.8c1.1,0.2,2.3-0.5,3.4-0.7C544.6,98.35,544.5,97.75,544.1,97.85z"/>
	</g>
</g>
<g>
	<g>
		<path d="M513,115.95c1.6,3.5,3.7,6.8,6.8,9.2c2.7,2.2,5.8,3.7,8.9,5.1c3.5,1.5,7,2.9,10.5,4.6c3.8,1.8,7.4,3.9,11.2,5.7
			c1.1,0.5,3,2,4.3,1.6c0.4-0.1,0.6-0.4,0.8-0.7c0.6-0.6,0.5-0.8,1.9-0.7c0.5,0,0.8,0.3,1.3,0.2c2.3-0.3,1.8-3.2,0.5-4.3
			c-1.1-0.9-2.6-1.3-3.9-1.8c-2.1-0.8-4.2-1.6-6.3-2.5c-4.1-1.6-8-3.3-11.9-5.3c-2-1-4-2-6.1-2.8c-2.3-0.9-4.6-1.5-6.9-2.4
			c-2.2-0.8-4.2-1.8-6.2-3.1c-1-0.7-1.9-1.4-2.8-2.2c-0.5-0.4-0.7-0.9-1.4-0.9c-0.1,0-0.2,0.1-0.3,0.1c-0.1,0.2-0.1,0.3,0,0.6
			c0,0.1,0.2,0.2,0.3,0.1h0.1c0.4,0,0.4-0.6,0-0.6c-0.1,0,1.4,1.6,1.6,1.7c0.5,0.4,1,0.8,1.6,1.2c1.4,1,3,1.9,4.6,2.6
			c3.1,1.5,6.5,2.3,9.7,3.6c3.6,1.4,6.9,3.3,10.4,4.9c3.4,1.5,6.8,2.8,10.3,4.2c1.6,0.6,3.2,1.2,4.8,1.9c0.8,0.3,1.7,0.7,2.4,1.3
			c0.5,0.5,0.8,1.2,0.6,2c-0.3,1-1.3,1-2.1,0.9c-1-0.1-1.5-0.2-2.2,0.6c-0.9,1-2.1,0.5-3.1,0c-0.8-0.4-1.6-0.8-2.5-1.2
			c-6.3-3.1-12.5-6.4-19-9.1c-3.4-1.4-6.8-3-9.8-5.2c-3.4-2.5-5.6-5.9-7.4-9.6C513.4,115.35,512.9,115.65,513,115.95L513,115.95z"/>
	</g>
</g>
<g>
	<path d="M565.8,136.25c-0.3-0.9-0.2-1.9,0.3-2.7c0.7-1.3,2.3-2.2,2.6-3.6c0.3-1.6-1.1-2.9-2.3-3.8c-6.9-5.3-15.1-8.7-23.4-11.4
		c-2.6-0.8-5.2-1.6-7.8-2.1c-2.5-0.4-5-0.5-7.5-0.5c-4.4-0.1-8.9-0.3-13.3-0.4c-0.2,0-0.4,0-0.6,0.1c-0.5,0.3,0,1.1,0.5,1.4
		c11.7,7.3,24.6,12.5,37.3,17.8c2.7,1.1,5.5,2.3,7.8,4.1c1,0.8,2,1.7,3.2,2.1c1.2,0.4,2.8,0.2,3.4-0.9"/>
</g>
<g>
	<g>
		<path d="M544.5,111.35c1.6,2.3,4.2,3.1,6.9,3.7c3.4,0.7,6.3,1.8,9.1,3.8c2.6,1.9,4.8,4.4,7.4,6.4c2,1.4,4.4,1.9,6.3,0.1
			c0.5-0.5,0.9-1,1.4-1.5s1.1-0.9,1.7-1.3c0.8-0.7,0.8-1.6,0.8-2.6c0-1.1-0.1-2.4-0.6-3.4c-0.6-1.1-1.7-1.7-2.7-2.3
			c-5.1-2.9-10.6-8.1-17-6.1c-1.7,0.5-3.1,1.7-4.7,2.2c-2.2,0.6-4.1-0.4-6.2-0.8c-0.9-0.2-2-0.2-2.6,0.5c-0.5,0.6-0.4,1.5,0.2,2
			c0.3,0.2,0.7-0.2,0.4-0.4c0.2-0.3,0.4-0.5,0.5-0.8c0.2-0.8,0.6-1,1.3-0.7c0.2,0,0.5,0.1,0.7,0.2c0.6,0.2,1.1,0.3,1.7,0.5
			c1,0.3,2.1,0.5,3.1,0.4c2.3-0.3,4.1-2.1,6.4-2.6c5.7-1.2,10.4,3,14.9,5.7c1,0.6,2.2,1.1,3,2c1,1.1,1,2.8,1,4.2
			c-0.1,1.4-0.9,1.8-1.8,2.7c-0.8,0.8-1.5,1.8-2.4,2.4c-3,1.9-5.9-1.4-7.9-3.2c-1.6-1.5-3.3-3-5.1-4.2c-2.1-1.5-4.4-2.6-7-3.1
			c-2.9-0.7-6.3-1-8.1-3.7C544.8,110.75,544.3,111.05,544.5,111.35L544.5,111.35z"/>
	</g>
</g>
<g>
	<path d="M582.6,110.35c-0.1-0.8,0.4-1.5,0.7-2.2c0.3-0.7,0.4-1.7-0.3-2.1c-0.3-0.2-0.6-0.2-0.9-0.3c-1.6-0.3-3.3-0.5-4.9-0.6
		c-2.8-0.1-5.5,0.4-8.3,0.1c-1.5-0.2-3-0.7-4.5-0.6c-0.2,0-0.4,0-0.5,0.2c-0.1,0.1-0.1,0.3,0,0.4c0.3,1.4,2,2,3.4,2.4
		c2.6,0.8,5.1,2.1,7.3,3.8c0.9,0.7,1.7,1.4,2.8,1.6c1.9,0.4,3.6-1.1,5-2.5"/>
</g>
<g>
	<g>
		<path d="M563.2,71.15c-0.9,0.1-1.5,0.8-2.1,1.4c-0.6,0.7-0.5,1.5,0,2.1c0.7,0.7,1.6,0.8,2.5,1.1c0.8,0.4,1.4,1,1.6,1.8
			c0.1,0.2,0.3,0.3,0.5,0.1c1-1.1,1.4-2.7,0.9-4.2c-0.5-1.4-1.7-2.4-3.1-2.7c-0.4-0.1-0.5,0.5-0.2,0.6c1.2,0.2,2.3,1.1,2.7,2.3
			c0.4,1.2,0.2,2.6-0.7,3.6c0.2,0,0.3,0.1,0.5,0.1c-0.2-0.7-0.6-1.3-1.2-1.8c-0.6-0.5-1.4-0.7-2.2-0.9c-0.7-0.2-1.6-0.9-1-1.7
			c0.4-0.6,1.1-1.3,1.9-1.4C563.8,71.65,563.6,71.05,563.2,71.15L563.2,71.15z"/>
	</g>
</g>
<g>
	<g>
		<path d="M569.8,77.15c-0.2,0.8-0.2,1.6,0.2,2.4c0.4,0.6,1,1.1,1.7,1.1s1.4-0.4,1.6-1.1c0.3-0.7-0.1-1.5-0.7-2
			c-0.6-0.6-1.5-0.9-2.4-0.8c-0.2,0-0.3,0.1-0.3,0.3c0,0.1,0.1,0.3,0.3,0.3c0.6-0.1,1.2,0.1,1.7,0.4s0.9,0.8,0.8,1.4
			c0,0.5-0.5,0.8-1,0.9s-1-0.3-1.3-0.7c-0.4-0.6-0.4-1.4-0.2-2C570.5,76.95,569.9,76.75,569.8,77.15L569.8,77.15z"/>
	</g>
</g>
<g>
	<path d="M577.4,81.15c-0.1,1,0.1,2.2,0.8,2.9c0.7,0.8,2.1,0.9,2.7,0.1c0.4-0.6,0.3-1.5-0.1-2.1c-0.4-0.6-1.1-1-1.7-1.4
		c-0.3-0.1-0.5-0.3-0.8-0.3s-0.6,0.1-0.7,0.4"/>
</g>
<g>
	<g>
		<path d="M582.1,86.95c-0.4,0.6-0.4,1.5,0.1,2.1c0.4,0.6,1.2,0.8,1.9,0.6c0.7-0.2,1.2-0.9,1.1-1.6c0-0.8-0.6-1.4-1.2-1.7
			c-0.6-0.3-1.6-0.5-1.9,0.3c0,0.2,0.1,0.3,0.2,0.4c0.2,0,0.3-0.1,0.4-0.2c0-0.1,0,0,0,0l0,0c0,0,0,0,0.1-0.1c0,0,0.1,0,0.2,0
			c0.2,0,0.4,0.1,0.6,0.2c0.4,0.2,0.9,0.6,1,1.1c0.1,0.4-0.2,0.9-0.6,1.1c-0.4,0.2-0.9,0.1-1.3-0.2c-0.4-0.4-0.4-1.1-0.1-1.5
			C582.9,86.95,582.3,86.65,582.1,86.95L582.1,86.95z"/>
	</g>
</g>
<g>
	<path d="M586.4,93.25c-0.1,0.7-0.2,1.3-0.1,2c0.1,0.6,0.4,1.3,1,1.6c0.1,0.1,0.2,0.1,0.3,0.1c0.3,0,0.4-0.4,0.5-0.7
		c0.1-0.6,0.2-1.3,0-1.9s-0.8-1.1-1.4-1.1"/>
</g>
<g>
	<g>
		<path d="M586.2,100.85c-0.6,0.5-0.9,1.2-0.9,1.9c0,0.7,0.4,1.4,0.9,1.8c0.3,0.2,0.7,0.4,1,0.2c0.3-0.2,0.5-0.5,0.7-0.8
			c0.4-0.6,0.6-1.4,0.4-2.1s-0.8-1.3-1.5-1.5c-0.4-0.1-0.5,0.5-0.2,0.6c0.5,0.1,0.9,0.5,1.1,0.9c0.2,0.5,0.2,1.1-0.1,1.5
			c-0.1,0.2-0.3,0.5-0.4,0.7c0,0.1-0.2,0.2-0.3,0.2c-0.1,0-0.3-0.1-0.3-0.2c-0.4-0.3-0.7-0.8-0.7-1.3c-0.1-0.6,0.2-1.2,0.7-1.6
			c0.1-0.1,0.1-0.3,0-0.4C586.5,100.65,586.3,100.75,586.2,100.85L586.2,100.85z"/>
	</g>
</g>
<g>
	<path d="M587.1,107.65c-0.5,0.1-0.7,0.7-0.8,1.2c0,0.4,0,0.9,0.2,1.2c0.2,0.4,0.7,0.6,1.1,0.5c0.2-0.1,0.3-0.2,0.4-0.3
		c0.4-0.4,0.6-1.1,0.4-1.7s-0.8-1-1.4-0.8"/>
</g>
<g>
	<g>
		<path d="M583.1,114.45c-0.7,0.2-1.1,0.9-1.2,1.5c-0.2,0.8-0.3,1.8,0.4,2.4c0.6,0.6,1.5,0.3,2.1-0.2c0.5-0.6,0.8-1.4,0.6-2.2
			C584.8,115.05,584.1,114.45,583.1,114.45c-0.3,0-0.3,0.6,0.1,0.6c0.5,0,1,0.4,1.1,0.9c0.2,0.5,0.1,1.1-0.2,1.6
			c-0.3,0.4-0.9,0.9-1.3,0.5c-0.5-0.4-0.4-1.1-0.3-1.7c0.1-0.5,0.3-1.2,0.8-1.3C583.7,114.95,583.5,114.35,583.1,114.45
			L583.1,114.45z"/>
	</g>
</g>
<g>
	<path d="M579.7,122.85c-0.2,0.5-0.3,1-0.2,1.5s0.5,1,1,1.1c0.6,0.1,1.2-0.3,1.6-0.7c0.6-0.6,1-1.6,0.4-2.3
		c-0.4-0.4-1.1-0.5-1.6-0.3s-1,0.6-1.4,1"/>
</g>
<g>
	<g>
		<path d="M575.2,128.95c-0.3,0.9,0.6,1.7,1.4,1.8c0.8,0.1,1.7-0.2,2.2-0.9s0.4-1.6-0.1-2.3c-0.5-0.7-1.4-1-2.2-0.7
			c-0.8,0.4-1.4,1.4-1,2.3c0.1,0.2,0.2,0.2,0.4,0.2c0.1,0,0.3-0.2,0.2-0.4c-0.2-0.5,0-1.1,0.5-1.5s1.1-0.3,1.5,0.2
			c0.4,0.4,0.6,1,0.4,1.6c-0.2,0.5-0.8,0.9-1.4,0.9c-0.3,0-0.7,0-0.9-0.3c-0.3-0.2-0.5-0.5-0.3-0.9
			C575.9,128.75,575.3,128.65,575.2,128.95L575.2,128.95z"/>
	</g>
</g>
<g>
	<g>
		<path d="M571,130.75c-0.7,1,0.1,2.6,1.4,2.6c0.7,0,1.3-0.5,1.6-1.2c0.2-0.6,0-1.3-0.4-1.7c-0.5-0.5-1.3-0.6-2-0.4
			c-0.1,0.1-0.2,0.3-0.1,0.4c0.1,0.2,0.3,0.2,0.4,0.1c0.2-0.1,0.4-0.1,0.6-0.1s0.4,0.1,0.6,0.2c0.3,0.2,0.5,0.7,0.4,1.1
			c-0.1,0.4-0.5,0.8-0.9,0.9c-0.4,0.1-0.8-0.2-1-0.5c-0.1-0.2-0.2-0.4-0.2-0.6c0-0.1,0-0.2,0-0.3s0.1-0.2,0.2-0.3
			c0.1-0.1,0-0.3-0.1-0.4C571.2,130.55,571.1,130.55,571,130.75L571,130.75z"/>
	</g>
</g>
<g>
	<path d="M567.9,137.45c-0.2,0.2-0.2,0.5-0.1,0.7c0.1,0.2,0.3,0.4,0.6,0.5c0.5,0.3,1.1,0.4,1.6,0.3c0.8-0.2,1.2-1.2,0.9-2
		s-1.2-1.2-2-1s-1.4,1-1.4,1.8"/>
</g>
<g>
	<g>
		<path d="M490,117.95c-0.5,0.3-0.9,0.8-1.3,1.2c-0.6,0.5-1.4,0.2-2,0c-1.4-0.5-2.6-1.4-3.9-2.2c-0.5-0.4-1.2-0.5-1.9-0.2
			c-0.6,0.3-0.7,1-0.8,1.7c-0.2,1.6-0.1,3.2,0.4,4.7c0.2,0.7,1.3,0.4,1.1-0.3c-0.4-1.4-0.5-2.8-0.3-4.3c0-0.2,0-0.7,0.2-0.8
			c0.2-0.1,0.6,0.2,0.8,0.3c0.6,0.4,1.1,0.8,1.7,1.1c1.1,0.7,2.5,1.4,3.8,1.5c0.6,0,1.1-0.2,1.6-0.5c0.4-0.4,0.7-0.8,1.2-1.1
			C491.2,118.65,490.7,117.65,490,117.95L490,117.95z"/>
	</g>
</g>
<g>
	<g>
		<path d="M496.4,123.15c-0.1,1.7,0,3.6,1.4,4.8c0.7,0.5,1.5,0.8,2.3,1c1.1,0.3,2.3,0.5,3.4,0.8c0.9,0.2,1.9,0.4,2.7,0.9
			c1,0.6,1.2,1.7,1.1,2.8c-0.1,2.4-0.4,4.8-0.6,7.1c-0.1,0.7,1.1,0.7,1.2,0c0.2-2.4,0.5-4.8,0.6-7.1c0.1-1.8-0.5-3.4-2.3-4.1
			c-1.8-0.8-4-1-5.9-1.5c-1.1-0.3-2.1-0.7-2.5-1.8c-0.4-0.9-0.3-1.9-0.2-2.8C497.6,122.35,496.5,122.35,496.4,123.15L496.4,123.15z"
			/>
	</g>
</g>
<g>
	<g>
		<path d="M481.2,92.85c-1.4-2.4-3-4.1-5.9-4.5c-3.6-0.5-7.3-0.7-10.9-0.9c-3.7-0.2-7.5-0.3-11.2-0.1c-2.8,0.1-5.7,0.2-8,2.1
			c-0.6,0.5,0.2,1.3,0.8,0.8c2.2-1.8,5.6-1.7,8.3-1.8c3.2-0.1,6.3,0,9.5,0.1c3.1,0.2,6.1,0.4,9.2,0.7c1.5,0.1,3.1,0.1,4.4,0.9
			c1.3,0.7,2.1,2,2.8,3.3C480.6,94.05,481.6,93.45,481.2,92.85L481.2,92.85z"/>
	</g>
</g>
<g>
	<g>
		<path d="M441.8,101.15c0.8-1.3,1.6-2.8,2.9-3.7c1.3-0.9,2.8-1.1,4.3-1.4c3.5-0.6,7-1.1,10.5-1.5c3.3-0.4,6.6-0.6,9.9-0.7
			c1,0,10.3-0.6,10.4,0.1s1.2,0.4,1.1-0.3c-0.1-1.1-1.3-1.1-2.2-1.1c-2.1-0.1-4.1,0-6.2,0c-4.2,0.1-8.5,0.4-12.7,0.8
			c-4,0.4-7.9,0.9-11.9,1.7c-1.5,0.3-3,0.7-4.2,1.7c-1.3,1-2.1,2.4-2.9,3.8C440.4,101.15,441.4,101.75,441.8,101.15L441.8,101.15z"
			/>
	</g>
</g>
<g>
	<g>
		<path d="M479.3,101.05c-1.4,1.8-3.9,2.4-5.7,3.6c-1.9,1.3-3.8,2.8-5.4,4.4c-1.4,1.4-2.2,3-2,5c0.2,2.3,1.3,4.4,1.2,6.7
			c0,0.4,0.6,0.4,0.6,0c0.1-2-0.7-3.9-1-5.9c-0.2-1.2-0.3-2.5,0.3-3.6c0.5-1,1.3-1.7,2.1-2.4c1.7-1.5,3.5-3.1,5.5-4.2
			c1.7-1,3.7-1.6,5-3.2C479.9,101.15,479.5,100.75,479.3,101.05L479.3,101.05z"/>
	</g>
</g>
<g>
	<path d="M505.8,115.35c-1.4,4.2-1.7,6.5-6,7c-4.4,0.5-9.5-2.8-11.6-8.4s-4.6-10.3-4.2-12.8c0.4-2.4,2.6-7.5,4.5-7.9
		c1.8-0.4,6.2-0.4,6.2-0.4c-1.4,0-2.9,0-4.3,0c-0.6,0-1.3,0-1.8,0.4c-0.4,0.3-0.7,0.8-1.1,1.1c-1,0.5-2-0.5-3-1
		c-1.6-0.8-3.7,0-4.7,1.5s-1.1,3.4-0.6,5.1c0.4,1.5,1.3,3,2.6,3.8c1.3,0.8,3.2,0.8,4.4-0.2c1-0.9,1.3-2.5,1.4-3.9
		c0.1-1.8-0.1-3.8-1.5-4.9"/>
</g>
<path class="st1" d="M504.4,108.85c0.9,3.4,2.7,6.7-1.9,12.5"/>
</svg>
