<?xml version="1.0" encoding="utf-8"?>
<!-- Generator: Adobe Illustrator 24.3.0, SVG Export Plug-In . SVG Version: 6.00 Build 0)  -->
<svg version="1.1" id="Calque_5" xmlns="http://www.w3.org/2000/svg" xmlns:xlink="http://www.w3.org/1999/xlink" x="0px" y="0px"
	 viewBox="0 0 517.3 331.3" style="enable-background:new 0 0 517.3 331.3;" xml:space="preserve">
<g>
	<g>
		<path d="M74.5,118.8c-8.5-0.9-15.9,4.6-19.9,11.8c-5.1,9-3.9,19.7-1.1,29.3c1.6,5.4,3.5,10.8,5.8,16c2.1,4.8,5.2,8.3,8.8,12
			c7.1,7.1,10.9,16.1,12.4,26c1.7,11.1,0.8,22.5-0.3,33.7c-0.1,1.2,1.7,1.4,2.1,0.3c2.5-7.8,3.3-15.9,3.7-24
			c0.4-8.6,0.7-17.2,1-25.8c0.3-8.8,1-17.7,0.9-26.5c-0.1-8.4-2.6-16.2-5.1-24.1c-1.5-4.7-3-9.3-4.4-14c-0.7-2.1-1.2-4.2-2.1-6.2
			c-0.9-2.2-2.4-4.5-0.9-6.8c0.8-1.1-1.1-2.2-1.8-1.1c-1.7,2.4-1,4.7,0.1,7.3c1.7,4,2.9,8.2,4.2,12.3c2.6,8.3,5.9,16.6,7.3,25.1
			c1.4,8.9,0.3,18.2,0,27.1c-0.3,8.9-0.7,17.7-1,26.5c-0.4,9.9-0.9,19.9-3.9,29.4c0.7,0.1,1.4,0.2,2.1,0.3
			c1.7-17.1,3.2-36.4-5.6-51.9c-2.2-3.9-5-7.1-8.1-10.2c-4-4-6.6-8.1-8.6-13.4c-3.9-10.2-8.4-21.6-6.3-32.8
			c1.9-9.7,10.2-19.4,20.8-18.2C75.8,121.1,75.8,119,74.5,118.8L74.5,118.8z"/>
	</g>
</g>
<g>
	<g>
		<path d="M54.5,134.1c-1.6-1.6-2.5-4-1.7-6.2c0.6-1.7,2.4-3.2,4.2-3.5c-0.2,0,0.1,0,0.2,0c0.1,0,0.4,0,0.3,0c-0.1,0,0.2,0,0.3,0.1
			c0,0,0.1,0,0.1,0c0.2,0-0.1-0.1,0,0c0.5,0.2,0.7,0.5,1,1.1c0.6,1.2,2.5,0.1,1.8-1.1c-0.7-1.3-1.8-2.1-3.3-2.2
			c-1.3-0.1-2.6,0.4-3.6,1.2c-1.1,0.7-2.1,1.7-2.7,2.9c-0.7,1.4-0.9,3-0.6,4.6c0.3,1.7,1.2,3.4,2.5,4.6
			C54,136.5,55.5,135,54.5,134.1L54.5,134.1z"/>
	</g>
</g>
<g>
	<g>
		<path d="M50.3,146c-3.4,1.4-6.5,4.4-6.3,8.4c0.1,1.7,0.8,3.5,2.2,4.7c1.3,1.1,3,1.5,4.7,1.2c1.8-0.4,3.3-1.7,3.8-3.4
			c0.4-1.3-1.7-1.9-2-0.6c-0.4,1.3-1.7,2-2.9,2c-1.5,0-2.7-0.9-3.2-2.3c-1.4-3.4,1.3-6.7,4.3-8c0.5-0.2,0.9-0.7,0.7-1.3
			C51.4,146.3,50.8,145.8,50.3,146L50.3,146z"/>
	</g>
</g>
<g>
	<g>
		<path d="M55.3,165.9c-6.2,5.5-15.4,3.6-22.9,3.2c-4.7-0.2-9.5-0.1-14.2,0.4c-3.2,0.4-6.5,0.9-8.3,3.9c-3.3,5.5-0.2,13.5,2.3,18.7
			c3.1,6.5,7.8,12.1,13.6,16.3c3.4,2.5,13.8,9.5,16.6,2.5c0.1-0.4,0-0.8-0.3-1c-2.1-2.3-5.1-2.7-8-3.2c-3.7-0.7-6.5-2.4-8.9-5.3
			c-2.5-3-4.5-6.5-6.6-9.8c-2-3.1-7.6-9-3.2-12c3.3-2.2,8.3-2.2,12-2.3c4.2-0.2,8.4,0,12.7,0c3.9,0,7.9,0,11.8-0.6
			c2.9-0.4,5.5-1.4,7.1-3.9c0.7-1.1-1.1-2.2-1.8-1.1c-2.4,3.7-8.7,3.3-12.5,3.4c-4.5,0.1-9,0-13.6,0c-4.3,0-9,0.1-13.2,1.2
			c-2.5,0.7-5.4,2.1-6.2,4.8c-1.1,3.6,2.3,7.2,4.1,10c2.3,3.5,4.4,7.2,7,10.6c2,2.6,4.4,5,7.6,6.2c3.3,1.3,7.7,0.6,10.3,3.5
			c-0.1-0.3-0.2-0.7-0.3-1c-1.2,3.1-6.6,0.4-8.4-0.6c-2.8-1.5-5.5-3.3-7.9-5.5c-4.8-4.3-8.7-9.6-11-15.6c-2.1-5.2-5-15.1,2.8-16.7
			c7.4-1.5,15.2-0.8,22.6-0.4c6.5,0.4,13.3,0.3,18.4-4.2C57.9,166.5,56.4,165,55.3,165.9L55.3,165.9z"/>
	</g>
</g>
<g>
	<g>
		<path d="M85.1,156.7c2.5,2.8,6.9,1.6,8.7-1.4c2.9-4.7,1.3-12,1.1-17.2c-0.5-10.9,1.1-27.5,15-29.1c5.9-0.7,11.7,1.7,17.5,2.7
			c5.3,0.9,10,0.5,15-1.6c4.9-2.1,9.9-5.4,15.4-5.5c6.5-0.1,11,5.1,13.5,10.6c2.7,6,3.9,12.6,6.4,18.7c1,2.4,2.1,4.8,3.3,7.1
			c1.3,2.5,2.7,5.6,4.9,7.3c4,3.2,8-0.8,10.7-3.8c3.7-4.2,5.7-9.1,7.8-14.2c2.1-5.2,5-9.5,9.9-12.3c4-2.3,8.6-3.6,13.2-4.3
			c9.2-1.4,18.7-0.8,28-0.1c24.8,1.8,49.2,9.5,69.4,24.2c9,6.6,17.1,14.6,23.7,23.7c6.3,8.6,12.1,18.8,14.4,29.3
			c1.1,4.9,1.5,10.7-1.3,15.2c-3.3,5.4-9.7,6.3-15.4,5.2c-6-1.2-11.6-4.1-17.2-6.6c-5.8-2.6-11.6-5.3-17.3-8
			c-22.7-10.6-45.7-21.2-70-27.5c-11.9-3.1-24.2-5.2-36.6-5.6c-6.5-0.2-13,0.1-19.3,1.5c-5.9,1.4-11.5,3.8-17.1,5.9
			c-5.7,2.2-11.6,4.1-17.7,4c-6.4-0.1-12.5-2.6-18.8-3.4c-2.9-0.3-5.6-0.1-8.5,0.5c-3.7,0.8-6.7,0.3-10.4-0.4
			c-6.2-1.2-12.6-1.9-18.9-1.6c-1.7,0.1-11.5,0.4-8.3,4.2c0.9,1,2.4-0.5,1.5-1.5c-0.1-0.1-0.2-0.3-0.3-0.4c0.1,0.3,0.2,0.7,0.3,1
			c0.3-1.5,8.3-1.3,9.7-1.2c3.5,0,7.1,0.3,10.6,0.8c3.3,0.4,6.5,1.3,9.8,1.7c2.9,0.4,5.5-0.3,8.3-0.8c6.7-1.2,13.5,1.8,20.1,2.9
			c5.6,0.9,11,0.2,16.4-1.3c5.8-1.7,11.3-4.2,16.9-6.2c6.4-2.2,12.9-3.4,19.6-3.6c13.2-0.4,26.5,1.7,39.3,4.8
			c24.9,6.1,48.2,16.8,71.4,27.6c5.9,2.7,11.8,5.5,17.8,8.2c5.3,2.4,10.5,5.1,16.1,6.6c4.5,1.2,9.5,1.7,13.9-0.3
			c4-1.8,6.7-5.5,7.7-9.7c2.3-9.4-2-19.5-6.1-27.8c-4.9-9.8-11.4-18.7-19-26.5c-16.1-16.5-37-27.6-59.3-33
			c-11.2-2.7-22.7-3.9-34.2-4.4c-9-0.4-18.5-0.4-27.3,2.4c-3.9,1.3-7.6,3.2-10.7,6c-3.9,3.6-5.7,8.5-7.7,13.3
			c-1.1,2.8-2.4,5.5-4.2,7.9c-1.7,2.3-5.9,8.2-9.3,6.6c-2.3-1.2-3.9-5-5-7.2c-1.7-3.3-3.2-6.6-4.5-10.1c-3.5-9.5-5-23.4-16.5-26.8
			c-10.6-3.2-19.5,7.5-30,7.1c-10.3-0.4-21.3-7.3-30.6,0.2c-8.9,7.2-9,19.5-8.5,29.8c0.2,3.3,0.5,6.6,0.2,9.9
			c-0.1,1.8-0.5,3.9-1.9,5.2c-1.3,1.2-3.4,1.4-4.6,0C85.7,154.2,84.2,155.7,85.1,156.7L85.1,156.7z"/>
	</g>
</g>
<g>
	<g>
		<path d="M194.9,147.3c4.9,3.9,10.9,2.6,16.2,0.3c6.1-2.6,12.1-5.5,17.9-8.6c11.1-6,21.5-13.5,28.5-24.1c0.8-1.1-1.1-2.2-1.8-1.1
			c-6.4,9.6-15.6,16.5-25.6,22.1c-4.7,2.7-9.7,5.1-14.6,7.3c-5.6,2.6-13.3,7-19.1,2.5C195.4,145,193.8,146.5,194.9,147.3
			L194.9,147.3z"/>
	</g>
</g>
<g>
	<g>
		<path d="M228.5,139.9c2.7-0.3,5.7-0.2,8.2,1.3c2.7,1.7,3.6,4.9,3.8,7.9c0.4,6.2-1.9,12.3-6.1,16.8c-0.9,1,0.6,2.5,1.5,1.5
			c4.9-5.2,7.5-12.5,6.6-19.7c-0.4-3.2-1.6-6.3-4.4-8.2c-2.8-1.9-6.3-2.2-9.6-1.8C227.1,137.9,227.1,140,228.5,139.9L228.5,139.9z"
			/>
	</g>
</g>
<g>
	<g>
		<path d="M243.1,150.5c5.6,0.5,11.2-0.6,16.5-2.3c5-1.5,10-3.2,14.7-5.5c9.6-4.8,14.7-13,19.4-22.2c0.6-1.2-1.2-2.3-1.8-1.1
			c-2.1,4.1-4.2,8.3-7,12c-3.1,4.1-7,7.2-11.6,9.5c-4.4,2.2-9.1,3.7-13.8,5.2c-5.3,1.6-10.8,2.8-16.4,2.3
			C241.7,148.3,241.7,150.4,243.1,150.5L243.1,150.5z"/>
	</g>
</g>
<g>
	<g>
		<path d="M267.2,145.9c7.2,9.4,2.1,21.5-2.3,30.8c-0.6,1.2,1.3,2.3,1.8,1.1c4.7-10,10-22.9,2.3-33
			C268.2,143.7,266.3,144.8,267.2,145.9L267.2,145.9z"/>
	</g>
</g>
<g>
	<g>
		<path d="M272.2,161.4c5.6-1.3,11.3-2.7,16.9-4c5.3-1.3,10.7-2.3,15.7-4.4c8.2-3.4,14.8-9.9,18.4-18c0.6-1.2-1.3-2.3-1.8-1.1
			c-3.7,8.5-10.6,14.8-19.4,17.9c-4.7,1.6-9.6,2.6-14.5,3.8c-5.3,1.3-10.6,2.6-15.9,3.8C270.3,159.7,270.9,161.8,272.2,161.4
			L272.2,161.4z"/>
	</g>
</g>
<g>
	<g>
		<path d="M297.1,155.2c1,2.9,1.9,5.8,2.5,8.7c0.6,2.7,1.4,5.8,0.9,8.6c-0.5,2.7-2.6,4.6-4.4,6.6c-2.1,2.3-4.3,4.6-6.4,6.9
			c-0.9,1,0.6,2.5,1.5,1.5c2.3-2.5,4.7-5.1,7-7.6c1.9-2,3.8-4,4.3-6.8c0.5-2.8-0.1-5.8-0.7-8.5c-0.7-3.4-1.6-6.7-2.8-9.9
			C298.7,153.4,296.7,153.9,297.1,155.2L297.1,155.2z"/>
	</g>
</g>
<g>
	<g>
		<path d="M303.7,171.4c7.5-0.4,14.8-1.5,21.9-4c6.8-2.4,13.3-5.9,19-10.3c1.1-0.8,0-2.7-1.1-1.8c-5.6,4.3-11.9,7.7-18.5,10.1
			c-6.9,2.4-14,3.5-21.4,3.9C302.4,169.4,302.3,171.5,303.7,171.4L303.7,171.4z"/>
	</g>
</g>
<g>
	<g>
		<path d="M325.1,167.1c0.2,3,0.4,5.9,0.6,8.9c0.2,2.6,0.9,5.9-0.5,8.2c-1.4,2.3-3.8,4.2-5.6,6.2c-2.1,2.2-4.2,4.4-6.2,6.6
			c-0.9,1,0.6,2.5,1.5,1.5c2.2-2.4,4.4-4.7,6.7-7.1c1.9-2,4.4-4.1,5.8-6.6c1.3-2.4,0.8-5.3,0.6-8c-0.2-3.3-0.4-6.5-0.7-9.8
			C327.2,165.7,325,165.7,325.1,167.1L325.1,167.1z"/>
	</g>
</g>
<g>
	<g>
		<path d="M326.6,186.9c5.5,1.4,11.8,3.9,17.5,2.9c2.8-0.5,5.3-2,7.7-3.3c2.8-1.4,5.7-2.9,8.5-4.4c1.2-0.6,0.1-2.5-1.1-1.8
			c-2.6,1.4-5.3,2.7-7.9,4.1c-2.3,1.2-4.7,2.7-7.2,3.2c-2.7,0.6-5.6,0.1-8.3-0.6c-2.9-0.7-5.8-1.4-8.7-2.2
			C325.8,184.5,325.2,186.6,326.6,186.9L326.6,186.9z"/>
	</g>
</g>
<g>
	<g>
		<path d="M341.4,190.8c-0.5,3.9,1.7,7.7,5.5,8.9c1,0.3,2.3,0.4,3.1,1.2c0.8,0.7,1,1.9,1.4,2.9c0.9,2.5,1.7,5.1,2.5,7.6
			c0.4,1.3,2.5,0.7,2-0.6c-0.8-2.3-1.6-4.7-2.3-7c-0.6-1.9-1.2-4.1-3.1-5.2c-1.7-1-3.7-0.8-5.2-2.3c-1.3-1.3-2.1-3.2-1.8-5
			C343.6,190,341.5,189.4,341.4,190.8L341.4,190.8z"/>
	</g>
</g>
<g>
	<g>
		<path d="M341.4,194.7c-5.3,1.9-9.8,5.5-12.8,10.3c-0.7,1.2,1.1,2.2,1.8,1.1c2.7-4.3,6.8-7.6,11.6-9.3
			C343.2,196.3,342.7,194.2,341.4,194.7L341.4,194.7z"/>
	</g>
</g>
<g>
	<g>
		<path d="M101.6,113.6c3.2,10.4,6.8,21.5,15.9,28.4c2.4,1.9,5.3,3.3,7.2,5.7c2.1,2.6,2.4,5.8,2.4,9c-0.1,5.2-1,10.5,1.6,15.3
			c0.7,1.2,2.5,0.1,1.8-1.1c-2.9-5.2-0.9-11.3-1.4-17c-0.4-5.2-3.1-8.5-7.2-11.5c-5-3.6-9-7.3-11.9-12.8c-2.8-5.3-4.6-11-6.4-16.7
			C103.3,111.8,101.2,112.3,101.6,113.6L101.6,113.6z"/>
	</g>
</g>
<g>
	<g>
		<path d="M164.1,106c24.8-16.2,49.4-32.9,74.7-48.4c12.2-7.5,25-13.9,38.5-18.8c12.8-4.6,26.1-8.1,39.4-11.2
			c24.7-5.7,56.9-14.8,78.6,3.9c4.7,4,9.4,9.9,9.4,16.4c0,7-7.3,11.6-12.5,15.2c-10.3,7.3-22,12.8-34.3,15.9
			c-3.4,0.9-6.9,1.4-10.4,2.1c-2.4,0.5-4.2,1.6-4.6,4.2c-0.4,2.2-0.4,3.7-2,5.4c-1.1,1.2-2.6,2-4.1,2.7c-3.4,1.8-6.9,3.3-10.4,4.9
			c-14.8,6.9-29.8,13.3-45.6,17.5c-1.3,0.3-0.8,2.4,0.6,2c14.3-3.7,28.1-9.4,41.5-15.6c3.3-1.5,6.7-3.1,10-4.7
			c2.8-1.3,5.9-2.5,8.4-4.5c1.8-1.4,3-3.1,3.4-5.3c0.2-1.2,0.2-1.7,0.8-2.8c0.7-1.4,1.1-1.4,2.5-1.8c1.8-0.4,3.7-0.6,5.6-1
			c12.9-2.7,25.3-7.8,36.3-15c4.9-3.2,10.6-6.9,14.2-11.6c3.6-4.7,3.1-10.5,0.6-15.6c-5.1-10.6-16.6-17.1-27.6-19.9
			c-14.1-3.5-28.7-1.4-42.7,1.4c-28.4,5.7-57.2,12.5-83,26.2c-14.9,7.9-28.9,17.6-43.1,26.9c-15.1,9.8-30.2,19.7-45.4,29.5
			C161.9,104.9,163,106.8,164.1,106L164.1,106z"/>
	</g>
</g>
<g>
	<g>
		<path d="M177.8,124.5c2.2-2.8,7.2-3.4,10.3-4.3c4.1-1.1,8.2-2.1,12.3-2.9c8.3-1.7,16.7-2.9,25.2-3.6c1.4-0.1,1.4-2.2,0-2.1
			c-9.3,0.7-18.5,2.1-27.6,4c-4.6,1-9.1,2.1-13.6,3.4c-3.2,0.9-6.4,1.7-8.5,4.4C175.2,124.5,177,125.6,177.8,124.5L177.8,124.5z"/>
	</g>
</g>
<g>
	<g>
		<path d="M169.1,108.5c13.1-11.6,28.5-19.8,44.1-27.5c15.7-7.7,31.5-15,46.3-24.4c8.9-5.7,17.8-11.7,27.7-15.7
			c1.3-0.5,0.7-2.6-0.6-2c-8.6,3.5-16.4,8.4-24.2,13.3c-7.7,4.9-15.5,9.7-23.6,13.9c-15.7,8.2-32.1,15.1-47.5,24
			C183,95,175,100.5,167.7,107C166.6,107.9,168.1,109.4,169.1,108.5L169.1,108.5z"/>
	</g>
</g>
<g>
	<g>
		<path d="M171.2,112.1c28.9-15.6,58.9-29,88.6-43c14.5-6.8,29.1-13.2,44.5-17.7c15-4.4,30.5-7.3,46-8.9c17.4-1.8,34.8-1.9,52.2-0.8
			c0-0.7,0-1.4,0-2.1c-1.1,0-2.2-0.1-3.3-0.1c-1.4-0.1-1.4,2.1,0,2.1c1.1,0,2.2,0.1,3.3,0.1c1.4,0.1,1.4-2,0-2.1
			c-31.2-2-62.8,0.1-93.1,8.1c-15.3,4.1-29.9,9.9-44.3,16.5c-15.1,7-30.2,14.1-45.3,21.2c-16.8,7.9-33.5,15.9-49.8,24.7
			C168.9,110.9,170,112.8,171.2,112.1L171.2,112.1z"/>
	</g>
</g>
<g>
	<g>
		<path d="M308.6,30.7c2.9,2.2,5.9,4.3,8.7,6.5c0.2,0.1,0.6,0.4,0.7,0.6c0.1,0.3-0.1,0.8-0.3,1.1c-0.3,0.9-0.6,1.7-0.9,2.6
			c-0.6,1.7-1.2,3.4-1.9,5.1c-0.5,1.3,1.6,1.9,2,0.6c0.7-2,1.4-3.9,2.2-5.9c0.6-1.7,1.7-3.6,0.2-5.1c-0.6-0.6-1.4-1.1-2.1-1.6
			c-0.8-0.6-1.6-1.2-2.5-1.8c-1.7-1.3-3.5-2.6-5.2-3.9C308.6,28.1,307.5,29.9,308.6,30.7L308.6,30.7z"/>
	</g>
</g>
<g>
	<g>
		<path d="M319.9,38.8c11.6-4.3,24.1-3.4,36.3-3.8c12.5-0.3,25-2.4,37.4-3.9c1.3-0.2,1.4-2.3,0-2.1c-12.7,1.6-25.5,3.6-38.3,3.9
			c-12,0.3-24.4-0.5-35.9,3.8C318.1,37.3,318.6,39.3,319.9,38.8L319.9,38.8z"/>
	</g>
</g>
<g>
	<g>
		<path d="M174.8,117.7c36.5-28.6,83.4-39.3,129.1-39.6c6.8,0,13.6,0.1,20.4,0.5c3.4,0.2,6.8,0.4,10.2,0.7c2.6,0.2,10.3-0.1,11.4,3
			c0.4,1.3,2.5,0.7,2-0.6c-1.5-4.6-9-4.3-12.9-4.6c-6.5-0.5-12.9-0.9-19.4-1.1c-13.3-0.4-26.6,0-39.8,1.3
			c-23.8,2.4-47.2,8.2-68.9,18.2c-12,5.5-23.2,12.4-33.6,20.5C172.2,117,173.7,118.5,174.8,117.7L174.8,117.7z"/>
	</g>
</g>
<g>
	<g>
		<path d="M331.3,77.8c1.2-5.2,2.7-11.3,7.6-14.2c2.8-1.7,6.3-2.3,9.5-2.9c3.3-0.7,6.7-1.2,10.1-1.5c13-1.4,26.1-0.4,38.8,2.6
			c1.3,0.3,1.9-1.7,0.6-2c-14.1-3.4-28.6-4.2-43-2.3c-6,0.8-13.6,1.4-18.5,5.3c-4.3,3.5-5.8,9.3-7,14.5
			C328.9,78.6,331,79.2,331.3,77.8L331.3,77.8z"/>
	</g>
</g>
<g>
	<g>
		<path d="M389.7,42.2c-0.2,5.3-1.2,10.5-2.9,15.5c-0.4,1.3,1.6,1.9,2,0.6c1.7-5.2,2.7-10.6,2.9-16.1
			C391.9,40.8,389.7,40.8,389.7,42.2L389.7,42.2z"/>
	</g>
</g>
<g>
	<g>
		<path d="M323.1,46.8c1,1.7,0.7,3.9,1.7,5.6c0.5,0.8,1.1,1.4,2,1.7c1.2,0.4,2.5,0.1,3.6,0c1.2-0.1,2.5-0.2,3.7-0.3
			c0.3,0,1.1-0.2,1.3,0c0.2,0.2,0.2,1,0.2,1.2c0.4,2.5,0.7,4.9,1.1,7.4c0.1,0.6,0.8,0.9,1.3,0.7c0.6-0.2,0.8-0.7,0.7-1.3
			c-0.4-2.5-0.7-5-1.1-7.6c-0.1-0.9-0.3-1.8-1.1-2.3c-0.9-0.6-2.3-0.3-3.3-0.1c-1.3,0.1-2.6,0.2-3.9,0.4c-1,0.1-2,0.3-2.6-0.6
			c-0.5-0.7-0.7-1.7-0.8-2.6c-0.2-1.1-0.4-2.2-1-3.2C324.3,44.6,322.4,45.7,323.1,46.8L323.1,46.8z"/>
	</g>
</g>
<g>
	<g>
		<path d="M175.9,119.8c25.5-12.3,51.9-24.3,80.1-28.4c6.9-1,13.9-1.5,20.8-1.4c7.1,0.1,14.2,0.9,21.4,1.1c6.6,0.2,13.3,0,19.8-1.8
			c1.6-0.4,4.5-1,4.7-3.1c0.2-1.9-1.9-2.6-3.4-3.1c-15-5-31.2-6.5-46.9-5.1c-1.4,0.1-1.4,2.3,0,2.1c13.3-1.2,26.8-0.2,39.7,3.1
			c1.6,0.4,3.2,0.9,4.7,1.3c0.4,0.1,1.5,0.3,1.9,0.6c0.3,0.1,0.6,0.2,0.9,0.3c0.3,0.9,0,1.4-0.9,1.3c-1.1,0.7-2.9,0.8-4.2,1.1
			c-1.9,0.4-3.9,0.7-5.8,0.9c-6.4,0.6-12.9,0.1-19.3-0.3c-12.7-0.9-25.2-0.7-37.8,1.5c-12.7,2.2-25.2,6-37.2,10.6
			c-13.5,5.1-26.6,11.2-39.6,17.5C173.6,118.6,174.6,120.4,175.9,119.8L175.9,119.8z"/>
	</g>
</g>
<g>
	<g>
		<path d="M176.5,124c7.1-5.5,15.6-8.6,24-11.3c8.3-2.7,16.8-4.9,25.4-6.6c17.6-3.3,35.6-4.4,53.5-3.1c10.3,0.7,20.5,2.3,30.5,4.6
			c1.3,0.3,1.9-1.7,0.6-2c-35.5-8.1-73-6.7-107.8,4.1c-9.5,3-19.3,6.3-27.3,12.5C174.4,123,175.4,124.8,176.5,124L176.5,124z"/>
	</g>
</g>
<g>
	<g>
		<path d="M393.3,40.3c0.3-0.6,0.7-1.2,1.1-1.8c0.4-0.5,0.8-1.1,1.1-1.6c0.9-1.1,1.8-2.1,2.8-3c0.4-0.4,0.4-1.1,0-1.5
			c-0.4-0.4-1.1-0.4-1.5,0c-2.1,2-3.9,4.3-5.4,6.8c-0.3,0.5-0.1,1.2,0.4,1.4C392.4,40.9,393,40.8,393.3,40.3L393.3,40.3z"/>
	</g>
</g>
<g>
	<g>
		<path d="M307.5,90.5c3.8,4.1,7.5,8.2,11.3,12.3c0.9,1,2.4-0.5,1.5-1.5c-3.8-4.1-7.5-8.2-11.3-12.3C308.1,88,306.5,89.5,307.5,90.5
			L307.5,90.5z"/>
	</g>
</g>
<g>
	<g>
		<path d="M322.1,87.8c6.5-3,14-0.5,20.8,0c1.4,0.1,1.4-2,0-2.1c-7.3-0.6-14.9-3-21.8,0.3C319.7,86.5,320.8,88.3,322.1,87.8
			L322.1,87.8z"/>
	</g>
</g>
<g>
	<g>
		<path d="M170.7,114.9c-7.2,6.1-14.7,14-14.8,24.1c0,5.5,2.2,10.8,4.3,15.8c2.4,5.7,5,11.4,7.6,17.1c0.6,1.2,2.4,0.1,1.8-1.1
			c-2.3-4.9-4.6-9.9-6.7-14.9c-2.2-5-4.6-10.3-4.9-15.9c-0.4-9.9,7.1-17.6,14.1-23.5C173.2,115.5,171.7,114,170.7,114.9L170.7,114.9
			z"/>
	</g>
</g>
<g>
	<g>
		<path d="M157,177.2c1.4,1.1,2.7,2.2,4.1,3.3c1.3,1,2.5,2.2,4,2.7c1.5,0.5,3.1,0.2,4.1-1.1c0.8-1.1,0.8-2.5,0.6-3.8
			c-0.3-1.6-1.3-3.2-0.7-4.9c0.4-1.3-1.6-1.9-2-0.6c-0.6,1.9,0.2,3.6,0.6,5.4c0.2,0.9,0.4,2.5-0.6,3c-0.6,0.3-1.3,0-1.8-0.3
			c-0.7-0.4-1.4-1-2-1.5c-1.6-1.3-3.1-2.5-4.6-3.8c-0.4-0.4-1.1-0.4-1.5,0C156.6,176,156.5,176.8,157,177.2L157,177.2z"/>
	</g>
</g>
<g>
	<g>
		<path d="M164.8,183.4c-0.6,1.5-0.7,3.3-0.4,4.9c0.3,1.6,1.2,3.4,2.8,4c1.4,0.6,3.1,0,4-1.1c1.1-1.3,1.3-3.1,0.8-4.7
			c-0.6-1.8-1.9-3.3-3.2-4.6c-1-1-2.5,0.5-1.5,1.5c0.9,0.9,1.8,1.8,2.4,2.9c0.5,0.9,0.7,2.2,0.2,3.1c-0.2,0.4-0.4,0.6-0.8,0.8
			c0,0-0.2,0.1-0.1,0c0,0-0.1,0-0.2,0.1c-0.1,0-0.2,0.1-0.3,0.1c-0.1,0,0,0,0,0c-0.1,0-0.1,0-0.2,0c0,0-0.2,0-0.1,0
			c0.1,0-0.1,0-0.1,0c-0.3-0.1-0.2,0-0.4-0.2c-0.2-0.2-0.4-0.4-0.5-0.6c-0.3-0.5-0.5-1.1-0.7-1.6c-0.3-1.3-0.2-2.7,0.3-4
			c0.2-0.5-0.2-1.2-0.7-1.3C165.5,182.5,165.1,182.9,164.8,183.4L164.8,183.4z"/>
	</g>
</g>
<g>
	<g>
		<path d="M166,192.5c1.5,5.3,2.2,10.8,1.9,16.3c-0.1,2.7-0.5,5.5-1.1,8.2c-0.4,1.6-1.7,4.3,0.4,5.3c1.9,0.9,5,0.9,7,0.6
			c2-0.3,3.2-1.6,3.8-3.5c0.7-2.2,0.8-4.8,0.8-7.2c0-2.5-0.3-5-1-7.4c-0.8-2.5-2.2-4.8-3.5-7c-0.7-1.1-1.3-2.2-1.9-3.4
			c-0.4-0.9-0.6-2.5-1.6-3c-0.6-0.3-1.1-0.1-1.4,0.4c0,0,0,0.1-0.1,0.1c-0.2,0.3-0.2,0.7,0,1.1c0,0,0,0.1,0.1,0.1
			c0.2,0.4,0.8,0.6,1.2,0.5c0,0,0.1,0,0.1,0c1.3-0.5,0.7-2.6-0.6-2c0,0-0.1,0-0.1,0c0.4,0.2,0.8,0.3,1.2,0.5c0,0,0-0.1-0.1-0.1
			c0,0.4,0,0.7,0,1.1c0,0,0-0.1,0.1-0.1c-0.5,0.1-1,0.3-1.4,0.4c0.1,0.1,0.4,1.2,0.5,1.4c0.3,0.6,0.5,1.2,0.8,1.7
			c0.6,1.1,1.3,2.3,1.9,3.4c1.3,2.2,2.6,4.4,3.2,7c0.6,2.7,0.7,5.5,0.4,8.2c-0.1,1.3-0.2,2.7-0.6,3.9c-0.5,1.5-1.6,2-3.2,2
			c-0.7,0-1.3,0-2,0c-0.4,0-2.3,0-2.5-0.4c-0.3-0.4,0.2-1.3,0.3-1.8c0.2-0.7,0.3-1.4,0.5-2.2c0.5-2.6,0.8-5.3,0.9-7.9
			c0.2-5.6-0.5-11.2-2-16.6C167.7,190.6,165.6,191.1,166,192.5L166,192.5z"/>
	</g>
</g>
<g>
	<g>
		<path d="M167.3,221.5c-1.4,6.2-3.1,12.3-4.2,18.5c-1.1,5.7-1.8,11.9-0.1,17.5c0.7,2.2,2.1,2.7,4.2,3.1c1.7,0.3,5,1.5,6.7,0.4
			c1.8-1.2,1.4-4.9,1.3-6.8c-0.2-3-0.9-5.9-1.3-8.8c-1.1-7.3-1.5-14.7-1.3-22.1c0-1.4-2.1-1.4-2.1,0c-0.2,6.6,0.1,13.3,1,19.8
			c0.4,3.2,1,6.3,1.4,9.4c0.2,1.6,0.3,3.2,0.2,4.8c-0.1,1.6-0.4,2-1.9,1.7c-0.8-0.1-1.6-0.3-2.4-0.4c-0.7-0.1-1.4-0.2-2-0.4
			c-1.3-0.4-1.6-0.8-1.9-2.1c-0.4-1.5-0.6-3.1-0.7-4.6c-0.2-3.5,0.2-7,0.8-10.4c1.1-6.5,2.9-12.8,4.4-19.2
			C169.7,220.7,167.6,220.2,167.3,221.5L167.3,221.5z"/>
	</g>
</g>
<g>
	<g>
		<path d="M164.9,260.6c0.3,9,3.7,17.9,9.7,24.7c1.3,1.4,2.9,3.7,5,3.9c1.8,0.2,4.1-1.2,5.2-2.6c1.5-2-0.2-3.8-1.4-5.4
			c-1.4-1.8-2.8-3.5-4.2-5.3c-1.7-2.1-3.3-4.3-4.7-6.6c-0.6-1.1-1.2-2.2-1.7-3.3c-0.3-0.6-0.5-1.3-0.7-1.9c-0.1-0.2-0.7-1.7-0.6-1.8
			c-0.3,0.2-0.6,0.4-0.9,0.5c0.1,0,0.1,0,0.2,0c-0.3-0.2-0.6-0.4-0.9-0.5c0,0,0.1,0.1,0.1,0.1c0-0.4,0-0.7,0-1.1c0,0,0,0.1-0.1,0.1
			c-0.7,1.2,1.1,2.2,1.8,1.1c0,0,0-0.1,0.1-0.1c0.2-0.3,0.2-0.8,0-1.1c-0.3-0.4-0.6-0.6-1.2-0.7c-0.4,0-0.7,0.2-0.9,0.5
			c-0.7,1.4,0.4,3.7,1,5.1c0.7,1.8,1.6,3.4,2.6,5c2.1,3.4,4.7,6.5,7.2,9.6c0.6,0.8,1.3,1.6,1.9,2.4c0.3,0.3,0.9,1,0.9,1.4
			c0,0.6-0.8,1.1-1.3,1.4c-1,0.6-2.1,1.3-3.2,0.4c-0.8-0.7-1.6-1.5-2.3-2.3c-2.7-3-4.9-6.5-6.5-10.2c-1.8-4.3-2.8-8.8-3-13.5
			C167,259.2,164.9,259.2,164.9,260.6L164.9,260.6z"/>
	</g>
</g>
<g>
	<g>
		<path d="M179.7,288.7c-0.7,2.3,1.4,4.6,3.7,4.5c2.4-0.1,4.9-2.5,4.4-5c-0.3-1.3-1.4-2.1-2.5-2.8c-0.5-0.3-1.2-0.1-1.4,0.4
			c-0.3,0.5-0.1,1.1,0.4,1.4c0.2,0.1,0.3,0.2,0.5,0.3c0.1,0,0.1,0.1,0.2,0.1c0,0,0.1,0,0.1,0.1c-0.1-0.1-0.1-0.1,0,0
			c0.1,0.1,0.3,0.3,0.4,0.4c0,0,0.1,0.1,0.1,0.1c0,0-0.1-0.2,0,0c0,0.1,0.1,0.2,0.1,0.3c0.1,0.1,0,0,0-0.1c0,0,0,0.1,0,0.1
			c0,0.1,0.1,0.3,0,0.1c0,0.1,0,0.2,0,0.3c0,0,0-0.1,0,0c0,0.1,0,0.1,0,0.2c0,0-0.1,0.3,0,0.2c0,0.1-0.1,0.2-0.1,0.3
			c0,0.1-0.1,0.1-0.1,0.2c0,0-0.1,0.1-0.1,0.1c-0.1,0.1-0.1,0.1,0,0c-0.1,0.1-0.3,0.3-0.4,0.4c0,0-0.2,0.2-0.1,0.1c0.1-0.1,0,0,0,0
			c0,0-0.1,0.1-0.1,0.1c-0.1,0.1-0.2,0.1-0.3,0.1c0,0-0.3,0.1-0.1,0.1c0.1,0-0.1,0-0.2,0.1c-0.1,0-0.2,0.1-0.3,0.1c0,0-0.1,0-0.1,0
			c0,0,0.2,0,0.1,0c-0.1,0-0.2,0-0.3,0c-0.1,0-0.3,0-0.1,0c-0.1,0-0.2,0-0.3-0.1c-0.1,0-0.3-0.1-0.1,0c-0.1,0-0.1-0.1-0.2-0.1
			c-0.1,0-0.1-0.1-0.2-0.1c0,0-0.1-0.1,0,0c0,0-0.1-0.1-0.1-0.1c-0.1-0.1-0.1-0.1-0.2-0.2c0,0,0-0.1-0.1-0.1c0.1,0.1,0.1,0.1,0,0
			c0-0.1-0.1-0.2-0.1-0.2c0,0,0-0.1,0-0.1c-0.1-0.1,0,0.2,0,0c0-0.1,0-0.2-0.1-0.3c0-0.1,0,0.1,0,0.1c0,0,0-0.1,0-0.1
			c0,0,0-0.1,0-0.1c0-0.1,0-0.1,0,0c0-0.1,0-0.2,0.1-0.3c0.2-0.5-0.2-1.2-0.7-1.3C180.4,287.8,179.9,288.1,179.7,288.7L179.7,288.7z
			"/>
	</g>
</g>
<g>
	<g>
		<path d="M185,293.1c1,0.8,2,1.6,3.3,2c1.1,0.3,2.4,0.2,3.4-0.5c1.1-0.8,1.5-2,1.3-3.3c-0.2-1.1-0.9-2.1-1.9-2.7
			c-1.2-0.6-2.7-0.7-3.9-0.2c-0.5,0.2-0.9,0.7-0.7,1.3c0.2,0.5,0.7,1,1.3,0.7c0.2-0.1,0.4-0.1,0.6-0.2c0.1,0,0.2,0,0.3-0.1
			c0.1,0-0.2,0,0,0c0.1,0,0.1,0,0.2,0c0.1,0,0.5,0,0.6,0c0,0-0.2,0-0.1,0c0.1,0,0.1,0,0.2,0c0.1,0,0.2,0.1,0.3,0.1c0,0,0.1,0,0.1,0
			c-0.2-0.1-0.1,0,0,0c0.1,0,0.2,0.1,0.3,0.1c0.1,0,0.3,0.2,0.1,0c0.1,0.1,0.1,0.1,0.2,0.2c0,0,0.1,0.1,0.1,0.1c0,0-0.1-0.2,0-0.1
			c0,0.1,0.1,0.1,0.1,0.2c0,0,0,0.1,0.1,0.1c0.1,0.1,0,0,0,0c0,0,0.1,0.3,0.1,0.3c0,0.1,0,0.2,0.1,0.3c0,0.1,0-0.1,0-0.1
			c0,0,0,0.1,0,0.1c0,0.1,0,0.2,0,0.3c0,0,0,0.1,0,0.1c0-0.1,0-0.2,0-0.1c0,0,0,0,0,0.1c0,0.1,0,0.2-0.1,0.3c0,0.1,0,0,0,0
			c0,0,0,0.1,0,0.1c0,0-0.1,0.1-0.1,0.1c0,0.1,0-0.1,0.1-0.1c0,0.1-0.1,0.2-0.2,0.2c-0.1,0.1,0,0,0,0c0,0-0.1,0.1-0.1,0.1
			c-0.1,0-0.1,0.1-0.2,0.1c0.2-0.1,0,0-0.1,0c-0.1,0-0.2,0.1-0.3,0.1c0,0,0.2,0,0.1,0c-0.1,0-0.1,0-0.2,0c-0.1,0-0.2,0-0.3,0
			c-0.1,0-0.3,0-0.2,0c0.1,0,0,0,0,0c-0.1,0-0.1,0-0.2,0c-0.1,0-0.3-0.1-0.4-0.1c0,0-0.1,0-0.1,0c-0.2-0.1,0.2,0.1-0.1,0
			c-0.2-0.1-0.5-0.2-0.7-0.4c-0.2-0.1-0.4-0.3-0.6-0.4c0,0-0.1-0.1-0.1-0.1c0.1,0.1,0,0-0.1,0c-0.1-0.1-0.2-0.2-0.3-0.3
			c-0.4-0.3-1.1-0.4-1.5,0C184.7,292,184.5,292.7,185,293.1L185,293.1z"/>
	</g>
</g>
<g>
	<g>
		<path d="M191.7,295.2c1.1,0.7,2.4,1.2,3.6,1.5c0.6,0.1,1.3,0.3,2,0.3c0.7,0.1,1.4,0.1,2-0.4c1.1-0.9,0.7-2.5-0.1-3.4
			c-0.7-0.9-1.8-1.5-2.9-1.9c-1.2-0.4-2.6-0.4-3.9,0c-0.5,0.2-0.9,0.7-0.7,1.3c0.2,0.5,0.7,0.9,1.3,0.7c0.2-0.1,0.4-0.1,0.6-0.2
			c0.1,0,0.3,0,0.1,0c0.1,0,0.3,0,0.4,0c0.2,0,0.4,0,0.6,0c0.1,0,0.3,0,0.1,0c0.1,0,0.3,0,0.4,0.1c0.2,0,0.4,0.1,0.6,0.1
			c0.1,0,0.2,0.1,0.3,0.1c0,0-0.1-0.1,0,0c0.1,0,0.1,0.1,0.2,0.1c0.2,0.1,0.4,0.2,0.5,0.3c0.1,0.1,0.2,0.1,0.3,0.2
			c-0.1-0.1,0.1,0,0.1,0.1c0.2,0.1,0.3,0.3,0.4,0.4c0.1,0.1,0,0,0-0.1c0,0,0,0.1,0.1,0.1c0,0,0.1,0.1,0.1,0.1c0,0,0.1,0.2,0,0.1
			c-0.1-0.1,0,0.1,0.1,0.2c0,0,0,0.1,0,0.1c0,0.1,0-0.2,0-0.1v0.1c0,0,0-0.2,0-0.1c0,0.1,0,0.2,0,0c0-0.1,0-0.1,0,0c0,0,0,0,0,0
			c0,0,0.1-0.1,0.1-0.1c-0.1,0.1,0,0,0,0c0,0-0.2,0,0,0c0.1,0,0,0-0.1,0c-0.3,0-0.5,0-0.8-0.1c0,0-0.4,0-0.2,0c-0.1,0-0.2,0-0.3-0.1
			c-0.3,0-0.6-0.1-0.8-0.2c-0.6-0.1-1.1-0.3-1.6-0.5c0,0,0.1,0,0,0c-0.1,0-0.2-0.1-0.3-0.1c-0.1-0.1-0.2-0.1-0.3-0.2
			c-0.3-0.1-0.6-0.3-0.8-0.4c-0.5-0.3-1.2-0.1-1.4,0.4C191.1,294.3,191.2,294.9,191.7,295.2L191.7,295.2z"/>
	</g>
</g>
<g>
	<g>
		<path d="M199.4,296.9c1.2,1.3,3.5,0.8,4.2-0.7c0.8-1.7-0.3-3.8-2.1-4.3c-1-0.3-2.1-0.1-3.1,0.4c-0.5,0.3-0.7,1-0.4,1.4
			c0.3,0.5,0.9,0.7,1.4,0.4c0.1,0,0.2-0.1,0.3-0.1c-0.1,0-0.2,0.1-0.1,0c0,0,0.1,0,0.1,0c0.2-0.1,0.4-0.1,0.6-0.1
			c-0.1,0-0.2,0-0.3,0c0.3,0,0.5,0,0.7,0c-0.1,0-0.2,0-0.3,0c0.1,0,0.2,0,0.4,0.1c0.1,0,0.1,0,0.2,0.1c0,0-0.1,0-0.1-0.1
			c0,0,0.1,0,0.1,0c0.1,0,0.2,0.1,0.3,0.2c-0.3-0.2-0.1-0.1-0.1,0c0,0,0.1,0.1,0.1,0.1c0,0,0.1,0.1,0.1,0.1c0,0.1,0,0-0.1-0.1
			c0,0,0,0.1,0.1,0.1c0.1,0.1,0.1,0.2,0.1,0.3c0,0.1,0,0.2,0-0.1c0,0,0,0.1,0,0.1c0,0.1,0.1,0.2,0.1,0.3c0-0.1,0-0.2,0-0.3
			c0,0.2,0,0.4,0,0.5c0-0.1,0-0.2,0-0.3c0,0.1,0,0.1,0,0.2c0,0,0,0.1,0,0.1c0,0,0.1-0.3,0-0.1c0,0-0.2,0.3,0,0.1c0.1-0.1,0,0,0,0
			c0,0-0.1,0.1-0.1,0.1c0,0-0.1,0.1,0,0c0.1-0.1,0,0,0,0c-0.1,0-0.1,0.1-0.2,0.1c-0.1,0.1,0.3-0.1,0.1,0c0,0-0.1,0-0.1,0
			c-0.1,0-0.1,0-0.2,0c0.1,0,0.2,0,0.3,0c-0.1,0-0.3,0-0.5,0c0.1,0,0.2,0,0.3,0c-0.1,0-0.1,0-0.2,0c0,0-0.1,0-0.1,0
			c0,0,0.3,0.1,0.1,0c0,0-0.1-0.1-0.2-0.1c0,0,0.2,0.2,0.1,0.1c0,0-0.1-0.1-0.1-0.1c-0.4-0.4-1.1-0.4-1.5,0
			C199,295.8,199,296.4,199.4,296.9L199.4,296.9z"/>
	</g>
</g>
<g>
	<g>
		<path d="M203.7,294.2c1-0.8,2-1.2,3.3-1.4c-0.1,0,0.3,0,0.3,0c0.1,0,0.3,0,0.5,0c0.3,0,0.6,0,0.9,0c0.1,0,0.1,0,0.1,0
			c0.1,0,0.1,0,0.2,0c0.1,0,0.3,0.1,0.5,0.1c0.3,0.1,0.6,0.2,0.9,0.3c0.5,0.2,1.2-0.2,1.3-0.7c0.2-0.6-0.2-1.1-0.7-1.3
			c-2.7-1-6-0.6-8.3,1.1c-0.5,0.3-0.7,0.9-0.4,1.4C202.5,294.3,203.2,294.6,203.7,294.2L203.7,294.2z"/>
	</g>
</g>
<g>
	<g>
		<path d="M204.3,297c2.9,0.2,5.6,1.6,7.6,3.7c0.9,1,2.4-0.5,1.5-1.5c-2.4-2.6-5.7-4.1-9.2-4.4c-0.6,0-1.1,0.5-1.1,1.1
			C203.2,296.5,203.7,296.9,204.3,297L204.3,297z"/>
	</g>
</g>
<g>
	<g>
		<path d="M170.8,173.7c2.1,1.4,4.2,2.8,6.3,4.2c0.9,0.6,1.9,1.5,3,0.9c0.4-0.2,0.7-0.5,1-0.9c0.3-0.3,0.6-0.5,0.9-0.7
			c1.6-1,3.3-1.8,3.7-3.9c0.4-2.2-0.4-4.6-1.6-6.5c-0.7-1.1-2.6-0.1-1.8,1.1c0.9,1.4,1.7,3.3,1.4,4.9c-0.3,1.5-1.9,1.9-3,2.7
			c-0.3,0.2-0.7,0.4-0.9,0.7c-0.1,0.1-0.2,0.2-0.3,0.3c-0.1,0.1-0.3,0.2-0.1,0.2c0.2,0-0.3-0.3-0.4-0.3c-0.2-0.1-0.4-0.2-0.5-0.4
			c-0.4-0.3-0.9-0.6-1.3-0.9c-1.7-1.2-3.4-2.3-5.2-3.5C170.8,171.1,169.7,172.9,170.8,173.7L170.8,173.7z"/>
	</g>
</g>
<g>
	<g>
		<path d="M179,177.7c-0.9,1.8-0.1,3.6,0.8,5.3c0.8,1.4,2,2.8,3.8,2.6c0.9-0.1,1.7-0.7,2.3-1.3c0.7-0.6,1.3-1.3,2-2
			c0.7-0.6,1.5-1.3,2-2.1c0.6-1,0.2-2-0.5-2.8c-1.2-1.6-2.9-2.7-4.8-3.3c-0.5-0.2-1.2,0.2-1.3,0.7c-0.2,0.6,0.2,1.1,0.7,1.3
			c1.1,0.4,2.2,1.1,3.1,1.9c0.2,0.2,0.4,0.4,0.6,0.7c0.1,0.1,0.1,0.2,0.2,0.3c0,0,0.1,0.2,0.1,0.2c0,0,0,0,0-0.1
			c-0.3,0.4-0.8,0.9-1.2,1.2c-0.5,0.5-1.1,1.1-1.6,1.6c-0.4,0.4-0.9,1-1.4,1.3c-0.4,0.3-0.7,0.3-1,0.1c-0.4-0.2-0.7-0.6-0.9-1
			c-0.4-0.6-0.7-1.2-0.9-1.8c-0.2-0.5-0.4-1.2-0.2-1.8c0.3-0.5,0.1-1.1-0.4-1.4C180,177.1,179.3,177.2,179,177.7L179,177.7z"/>
	</g>
</g>
<g>
	<g>
		<path d="M183.5,185c3.4,5.9,9.6,9.1,16.3,8.9c2.2-0.1,4.3-0.3,6.4,0.3c2,0.6,3.8,1.7,5.5,3c2.9,2.2,5.4,4.9,8.6,6.6
			c2.7,1.5,5.9,2.4,9,1.5c2.4-0.7,4.9-2.7,4.8-5.4c-0.1-2.8-3.1-4.9-5.2-6.2c-3-1.9-6.4-2.9-9.8-3.9c-10.1-2.9-20.2-5.8-30.3-8.7
			c-1.3-0.4-1.9,1.7-0.6,2c9.2,2.6,18.5,5.3,27.7,7.9c3.9,1.1,8,2.1,11.5,4.2c1.4,0.9,4.1,2.4,4.4,4.2c0.7,3.2-3.8,4.2-6,3.9
			c-7.8-0.8-11.9-9.3-19.2-11.3c-3.9-1.1-8,0.3-12-0.8c-4-1.1-7.4-3.7-9.5-7.3C184.7,182.8,182.8,183.8,183.5,185L183.5,185z"/>
	</g>
</g>
<g>
	<g>
		<path d="M222.1,204.6c-2.6,6.1-3.7,12.5-4.9,19c-1.3,7-2.5,13.9-3.8,20.9c-0.1,0.7,0.5,1.6,1.3,1.3c5.7-2,11.6-3.1,17.7-3.2
			c0.6,0,1-0.5,1.1-1.1c0.6-7.2,0.7-14.4,0.4-21.6c-0.1-3.4-0.4-6.9-0.7-10.4c-0.3-2.3-0.6-4.6-2.5-6.2c-0.8-0.7-2,0-1.8,1
			c0.1,0.3,0.1,0.7,0.2,1c0.3,1.3,2.3,0.8,2-0.6c-0.1-0.3-0.1-0.7-0.2-1c-0.6,0.3-1.2,0.7-1.8,1c2.1,1.9,1.9,5.3,2.1,7.9
			c0.3,3.2,0.4,6.4,0.5,9.6c0.2,6.4,0,12.8-0.5,19.2c0.4-0.4,0.7-0.7,1.1-1.1c-6.3,0-12.4,1.1-18.3,3.2c0.4,0.4,0.9,0.9,1.3,1.3
			c1.2-6.7,2.4-13.4,3.6-20.1c1.2-6.5,2.2-13.2,4.8-19.3C224.5,204.4,222.7,203.3,222.1,204.6L222.1,204.6z"/>
	</g>
</g>
<g>
	<g>
		<path d="M217.6,244.2c-1.8,10.8,0.6,22.2,7.1,31.2c1.3,1.8,2.8,4.3,5.2,4.4c1.3,0.1,2.6-0.4,3.8-0.7c1-0.3,2.4-0.4,3.2-1.2
			c0.7-0.8,0.6-1.8,0.6-2.8c0-1.7,0-3.4-0.1-5.2c-0.2-3.1-0.5-6.2-1-9.2c-1.1-6.7-3-13.4-7.1-18.9c-0.8-1.1-2.6,0-1.8,1.1
			c3.8,5.2,5.7,11.4,6.7,17.8c0.6,3.5,1,7.1,1.1,10.7c0,0.7,0,1.4,0.1,2.1c0,0.6,0.3,2.3,0,2.8c-0.6,0.9-3.4,1.4-4.4,1.5
			c-3,0.4-5.2-4.2-6.5-6.5c-1.5-2.6-2.7-5.4-3.6-8.3c-1.8-5.8-2.2-12-1.2-18C219.9,243.5,217.9,242.9,217.6,244.2L217.6,244.2z"/>
	</g>
</g>
<g>
	<g>
		<path d="M230.1,280.1c0.7,1.1,1.3,2.3,2.2,3.4c0.8,1,2,1.8,3.3,2c1.4,0.2,2.7-0.4,3.4-1.6c0.7-1.1,0.7-2.6,0.1-3.7
			c-0.6-1.3-2-2.2-3.4-2.5c-0.6-0.1-1.1,0.2-1.3,0.7c-0.1,0.5,0.2,1.2,0.7,1.3c0.2,0,0.4,0.1,0.7,0.2c0.1,0,0,0,0,0
			c0,0,0.1,0,0.1,0.1c0.1,0.1,0.2,0.1,0.3,0.2c0,0,0.1,0.1,0.1,0.1c0,0,0.2,0.1,0.1,0.1c0,0,0.1,0.1,0.2,0.1
			c0.1,0.1,0.1,0.1,0.2,0.2c0,0,0.1,0.1,0.1,0.1c-0.1-0.1,0,0,0,0.1c0.1,0.1,0.1,0.2,0.1,0.3c0,0,0,0.1,0.1,0.1c0,0,0-0.1,0,0
			c0,0.1,0.1,0.2,0.1,0.3c0,0,0,0.2,0,0.1c0-0.1,0,0.1,0,0.1c0,0.1,0,0.2,0,0.3c0,0,0,0.1,0,0.1c0,0,0-0.2,0,0c0,0.1,0,0.2-0.1,0.3
			c0,0,0,0.1,0,0.1c-0.1,0.1,0.1-0.1,0,0c0,0.1-0.1,0.2-0.1,0.3c-0.1,0.1,0.1-0.1,0,0c0,0-0.1,0.1-0.1,0.1c0,0-0.2,0.2-0.1,0.1
			c-0.1,0.1-0.2,0.1-0.3,0.2c-0.1,0.1,0.1,0,0,0c0,0-0.1,0-0.1,0c-0.1,0-0.3,0-0.1,0c-0.1,0-0.2,0-0.3,0c0,0-0.1,0-0.1,0
			c-0.1,0,0.1,0-0.1,0c-0.2,0-0.4-0.1-0.6-0.2c0.1,0.1-0.1-0.1-0.2-0.1c-0.1-0.1-0.2-0.1-0.3-0.2c0,0-0.2-0.2-0.1-0.1
			c-0.1-0.1-0.2-0.1-0.2-0.2c-0.2-0.2-0.4-0.4-0.6-0.6c0,0,0.1,0.1,0,0c-0.1-0.1-0.1-0.2-0.2-0.2c-0.1-0.1-0.1-0.2-0.2-0.4
			c-0.2-0.3-0.3-0.5-0.5-0.8c-0.3-0.5-0.6-1-1-1.6c-0.3-0.5-0.9-0.7-1.4-0.4C230.1,278.9,229.8,279.6,230.1,280.1L230.1,280.1z"/>
	</g>
</g>
<g>
	<g>
		<path d="M236.3,286c0.9,1,1.8,2,3,2.6c1.2,0.5,2.6,0.6,3.7,0c1.3-0.7,1.8-2.2,1.6-3.6c-0.3-1.4-1.2-2.4-2.3-3.2
			c-0.6-0.5-1.3-1.1-2.2-1.2c-0.9-0.1-1.9,0.2-2.3,1c-0.3,0.5-0.1,1.2,0.4,1.4c0.5,0.3,1.2,0.1,1.4-0.4c0-0.1,0.1-0.1,0,0
			c0,0,0.1-0.1,0,0c-0.1,0.1,0.1-0.1,0,0c-0.1,0.1,0,0,0,0c0.2-0.1,0,0,0,0c0,0,0.1,0,0.1,0c0.1,0.1-0.2-0.1,0,0
			c0.1,0,0.2,0,0.3,0.1c-0.1-0.1,0.1,0.1,0.2,0.1c0.1,0.1,0.2,0.1,0.3,0.2c0.1,0.1,0.2,0.1,0.3,0.2c0,0,0.1,0.1,0.1,0.1
			c0.1,0.1,0,0,0.1,0.1c0.4,0.3,0.7,0.6,1.1,1c0.1,0.1,0,0.1,0,0c0,0,0.1,0.1,0.1,0.1c0.1,0.1,0.1,0.2,0.2,0.3
			c0,0.1,0.1,0.1,0.1,0.2c0,0-0.1-0.2,0,0c0,0.1,0.1,0.3,0.1,0.4c0,0,0,0.1,0,0.1c0,0.1,0-0.1,0,0c0,0.1,0,0.2,0,0.3c0,0,0,0.2,0,0
			c0-0.1,0,0.1,0,0.1c0,0,0,0.1,0,0.1c-0.1,0.3,0.1-0.1,0,0.1c-0.1,0.1-0.1,0.2-0.2,0.3c0.1-0.2,0,0-0.1,0.1c0,0-0.1,0.1,0,0
			c0.1-0.1,0,0,0,0c-0.1,0.1-0.2,0.1-0.3,0.1c0.2-0.1,0.1,0,0,0c0,0-0.1,0-0.1,0c-0.1,0-0.1,0-0.2,0.1c-0.1,0-0.1,0-0.2,0
			c0,0,0.2,0,0,0c-0.1,0-0.2,0-0.3,0c0,0-0.3,0-0.2,0c0.1,0,0,0,0,0c-0.1,0-0.1,0-0.2,0c-0.1,0-0.2-0.1-0.3-0.1c0,0-0.1,0-0.1,0
			c0.2,0.1,0,0-0.1,0c-0.3-0.1-0.5-0.3-0.7-0.4c0,0-0.1-0.1-0.1,0c0.1,0.1-0.1-0.1-0.1-0.1c-0.1-0.1-0.2-0.2-0.3-0.3
			c-0.4-0.4-0.8-0.9-1.2-1.3c-0.4-0.4-1.1-0.4-1.5,0C235.8,285,235.8,285.6,236.3,286L236.3,286z"/>
	</g>
</g>
<g>
	<g>
		<path d="M243.1,290c0.6,0.3,1.2,0.6,1.8,0.8c0.6,0.3,1.2,0.6,1.8,0.8c1.3,0.4,2.8,0.1,3.6-1.1c0.8-1.2,0.2-2.6-0.8-3.4
			c-1-0.8-2-1.4-3.2-1.9c-0.7-0.3-1.5-0.8-2.3-0.7c-1,0.1-1.7,1.3-1.1,2.2c0.3,0.5,1,0.7,1.4,0.4c0.5-0.3,0.7-0.9,0.4-1.4
			c0.1,0.1,0.1,0.5,0,0.6c0,0.1-0.1,0.1-0.1,0.2c-0.1,0.1-0.2,0.2-0.3,0.2h-0.1c0,0,0.3,0.1,0.3,0.1c-0.1-0.1,0.1,0.1,0.2,0.1
			c0.4,0.2,0.9,0.4,1.3,0.6c0.4,0.2,0.8,0.4,1.2,0.7c0.2,0.1,0.4,0.2,0.6,0.3c0.1,0.1,0.2,0.1,0.3,0.2c0,0,0.3,0.2,0.2,0.1
			c-0.1-0.1,0.1,0.1,0.1,0.1c0.1,0.1,0.1,0.1,0.2,0.2c0,0,0.1,0.1,0.1,0.1c0,0-0.1-0.1,0,0c0,0,0,0.1,0.1,0.1c0.1,0.1,0,0.1,0,0
			c0,0,0,0.1,0,0.2c0,0,0-0.2,0-0.1v0.1c0,0,0-0.2,0-0.1c0,0,0,0.1,0,0.1c0,0,0.1-0.2,0-0.1c0,0,0,0.1-0.1,0.1c0-0.1,0.1-0.1,0,0
			c0,0-0.1,0.1-0.1,0.1c-0.1,0.1,0,0,0,0c-0.1,0-0.1,0.1-0.2,0.1c0,0,0.2-0.1,0.1,0c0,0-0.1,0-0.1,0c0,0-0.1,0-0.1,0
			c-0.1,0,0.2,0,0,0c-0.1,0-0.2,0-0.3,0c0,0-0.1,0-0.1,0c0,0,0.1,0,0,0c-0.2-0.1-0.4-0.1-0.7-0.2c0,0-0.1,0-0.1-0.1
			c-0.2-0.1,0.1,0.1,0,0c-0.1-0.1-0.3-0.1-0.4-0.2c-0.2-0.1-0.5-0.2-0.7-0.3c-0.5-0.2-1-0.5-1.5-0.7c-0.5-0.2-1.2-0.1-1.4,0.4
			C242.4,289,242.6,289.8,243.1,290L243.1,290z"/>
	</g>
</g>
<g>
	<g>
		<path d="M248.4,293.2c1,0.8,2.1,1.4,3.3,1.9c1.2,0.5,2.7,1,3.9,0.1c1.1-0.7,1.4-2.1,1.1-3.3c-0.3-1.3-1.4-2.2-2.5-2.8
			c-1.3-0.8-2.9-1.4-4.4-1c-0.5,0.1-0.9,0.8-0.7,1.3s0.7,0.9,1.3,0.7c0.4-0.1,0.7-0.1,1.1,0c0.5,0.1,0.8,0.3,1.3,0.5
			c0.2,0.1,0.4,0.2,0.6,0.4c0.1,0.1,0.2,0.1,0.3,0.2c0,0,0.1,0.1,0.1,0.1c0.1,0.1,0,0,0.1,0.1c0.2,0.1,0.3,0.3,0.5,0.5
			c0.1,0.1,0,0,0.1,0.1c0.1,0.1,0.1,0.2,0.2,0.4c0.1,0.2,0-0.1,0,0.1c0,0.1,0,0.2,0.1,0.3c0,0.1,0,0.2,0,0c0,0,0,0.1,0,0.1
			c0,0.1,0,0.2,0,0.3c0-0.2,0,0,0,0.1c0,0,0,0.1,0,0.1c0,0,0.1-0.1,0-0.1c-0.1,0.1-0.2,0.3,0,0.1c0,0-0.2,0.2-0.1,0.1
			c0.1-0.1-0.3,0.1-0.1,0c-0.1,0-0.2,0.1-0.3,0.1c0.2,0,0,0-0.1,0c-0.1,0-0.1,0-0.2,0c0.1,0,0.1,0,0,0c-0.2,0-0.4-0.1-0.7-0.2
			c-0.3-0.1-0.4-0.1-0.6-0.2c-1.1-0.5-2.1-1.1-3-1.8c-0.4-0.3-1.2-0.1-1.4,0.4C247.7,292.3,247.9,292.9,248.4,293.2L248.4,293.2z"/>
	</g>
</g>
<g>
	<g>
		<path d="M257.8,291.6c2.3-1.2,5.2-2.8,7.7-1.2c1.2,0.7,2.2-1.1,1.1-1.8c-3.2-2-6.9-0.4-9.9,1.2
			C255.5,290.4,256.6,292.2,257.8,291.6L257.8,291.6z"/>
	</g>
</g>
<g>
	<g>
		<path d="M257.1,295.7c1.1-0.4,1.9-0.5,2.9-0.5c0.6,0,1,0,1.4,0.1c0.5,0.1,1,0.2,1.6,0.4c0.5,0.2,1.2-0.2,1.3-0.7
			c0.1-0.6-0.2-1.1-0.7-1.3c-2.2-0.8-4.7-0.8-7-0.1c-0.5,0.2-0.9,0.7-0.7,1.3C256,295.4,256.6,295.9,257.1,295.7L257.1,295.7z"/>
	</g>
</g>
<g>
	<g>
		<path d="M108.6,173.1c-0.4,2-0.7,4.2-0.1,6.2c0.5,1.8,1.8,3.2,3.5,3.9c0.8,0.3,1.7,0.5,2.5,0.7c1,0.2,2,0.4,3,0.2
			c2-0.2,3.2-1.7,3.9-3.4c0.9-2.2,1.3-4.5,1.1-6.8c-0.1-1.4-2.2-1.4-2.1,0c0.1,2.1-0.1,4.2-1,6.2c-0.3,0.7-0.7,1.5-1.5,1.8
			c-0.8,0.4-1.8,0.2-2.7,0c-1.7-0.3-3.5-0.6-4.4-2.2c-1-1.8-0.6-4.1-0.2-6c0.1-0.6-0.1-1.1-0.7-1.3
			C109.4,172.2,108.7,172.5,108.6,173.1L108.6,173.1z"/>
	</g>
</g>
<g>
	<g>
		<path d="M108.9,182.5c-0.9,1.5-1.6,3.1-1.9,4.8c-0.1,0.9-0.2,1.7-0.2,2.6c0,0.9,0,2,0.9,2.5c0.4,0.3,0.9,0.3,1.3,0.4
			c0.5,0.1,1,0.2,1.5,0.3c0.9,0.2,1.9,0.4,2.8,0.6c1,0.2,2,0.1,2.6-0.9c0.4-0.7,0.6-1.7,0.9-2.6c0.5-2.1,0.8-4.2,0.8-6.3
			c0-1.4-2.2-1.4-2.1,0c0,1.5-0.1,3-0.4,4.4c-0.1,0.7-0.3,1.5-0.6,2.2c-0.1,0.3-0.3,0.7-0.3,1c0,0-0.1,0.2-0.1,0.1
			c-0.1,0,0.4,0,0.2-0.1c0,0-0.2,0-0.1,0c-0.8-0.1-1.5-0.3-2.3-0.4c-0.8-0.1-1.6-0.3-2.4-0.5c-0.1,0-0.4-0.1-0.5-0.1
			c-0.1,0-0.1-0.1,0.1,0.1c0.2,0.3,0,0,0.1,0c0-0.2,0-0.6,0-0.9c0-0.6,0-1.3,0.1-1.9c0.3-1.5,0.8-3,1.6-4.3
			C111.4,182.4,109.6,181.4,108.9,182.5L108.9,182.5z"/>
	</g>
</g>
<g>
	<g>
		<path d="M108.5,193.2c-7.8,8.7-17.1,19.4-16.5,31.9c0.1,2.3,1.2,4,3.4,4.8c2.1,0.8,5.2,1.5,7.4,0.7c2.1-0.7,3.2-2.8,3.5-4.9
			c0.2-1.4,0.1-2.9,0.1-4.3c0-1.9,0.3-3.6,0.7-5.4c1.8-7.4,4.6-14.7,7.7-21.7c0.6-1.3-1-2.2-1.8-1.1c-0.3,0.4-0.6,0.8-0.9,1.2
			c-0.8,1.1,1,2.2,1.8,1.1c0.3-0.4,0.6-0.8,0.9-1.2c-0.6-0.4-1.2-0.7-1.8-1.1c-2.9,6.5-5.4,13.2-7.3,20c-0.9,3-1.4,6-1.4,9.2
			c0,1.7,0.1,3.6-0.9,5c-1.2,1.7-3.3,1.4-5.1,1.1c-1.4-0.3-3.3-0.6-4-2c-0.7-1.5-0.3-3.9-0.1-5.5c0.5-3.3,1.6-6.4,3-9.3
			c3.2-6.4,7.9-11.8,12.6-17.1C110.9,193.7,109.4,192.2,108.5,193.2L108.5,193.2z"/>
	</g>
</g>
<g>
	<g>
		<path d="M94.2,231.2c0,5.1,0.7,10.2,2,15.2c0.7,2.5,1.5,5,2.5,7.4c0.4,1.1,0.9,2.2,1.4,3.2c0.4,0.9,0.9,2.1,1.6,2.8
			c1.3,1.3,3.9,0.9,5.5,0.4c2.1-0.6,3.2-2,3.6-4.1c0.9-4.4,0.6-9.2-0.5-13.6c-1.2-5.1-3.7-9.8-7-13.9c-0.9-1-2.4,0.5-1.5,1.5
			c3.2,3.9,5.5,8.5,6.6,13.4c0.6,2.4,0.8,4.9,0.8,7.5c0,2.1,0.2,6-2.1,7c-0.9,0.4-3.1,0.9-3.9,0.3c-0.7-0.5-1.3-2.3-1.6-3.1
			c-1.2-2.5-2.2-5.1-2.9-7.8c-1.6-5.2-2.3-10.7-2.3-16.1C96.4,229.9,94.2,229.9,94.2,231.2L94.2,231.2z"/>
	</g>
</g>
<g>
	<g>
		<path d="M103.1,259.3c-6.5,5.7-10.1,13.8-13.3,21.6c-0.3,0.9-1,1.8-0.7,2.8c0.2,0.9,1.2,1.4,1.9,1.9c1.7,1,3.7,1.4,5.4,0
			c1.6-1.4,2.8-3.4,3.9-5.2c1.3-1.9,2.4-3.9,3.5-5.9c2.4-4.6,4.2-9.5,5.5-14.5c0.3-1.3-1.7-1.9-2-0.6c-1.9,7.5-5,14.6-9.4,20.9
			c-0.9,1.3-2.3,4-4,4c-0.7,0-2.4-0.7-2.4-1.5c0-0.7,0.7-1.8,1-2.5c1.4-3.4,2.9-6.7,4.7-9.9c2-3.6,4.5-6.9,7.6-9.6
			C105.6,259.9,104.1,258.4,103.1,259.3L103.1,259.3z"/>
	</g>
</g>
<g>
	<g>
		<path d="M91.2,283.7c-0.9-1-2.6-0.8-3.4,0.1c-0.9,0.9-1,2.2-1.1,3.4c-0.1,1.3,0.3,2.6,1.6,3c1.1,0.4,2.5-0.1,3.5-0.7
			c1.1-0.7,1.9-1.7,2.4-3c0.2-0.5-0.2-1.2-0.7-1.3c-0.6-0.1-1.1,0.2-1.3,0.7c0,0-0.1,0.1-0.1,0.1s0.1-0.2,0-0.1
			c0,0.1-0.1,0.2-0.1,0.2c-0.1,0.2-0.2,0.4-0.3,0.5c-0.1,0.1,0,0,0,0c0,0-0.1,0.1-0.1,0.1c-0.1,0.1-0.1,0.1-0.2,0.2
			c-0.1,0.1-0.3,0.3-0.4,0.4c-0.1,0.1,0.1-0.1-0.1,0c-0.1,0-0.1,0.1-0.2,0.1c-0.2,0.1-0.4,0.2-0.5,0.3s0.2-0.1-0.1,0
			c-0.1,0-0.2,0.1-0.3,0.1c-0.1,0-0.2,0-0.3,0.1c0,0-0.1,0-0.1,0c0,0-0.3,0-0.1,0c0.1,0,0,0-0.1,0s-0.1,0-0.1,0c-0.2,0,0,0,0,0
			c-0.1,0-0.1,0-0.2,0c0,0,0.1,0.1,0,0c0,0,0,0,0,0c-0.1,0-0.1,0,0,0c0,0,0.1,0.1,0,0c0,0-0.2-0.2,0,0c0.1,0.2-0.1-0.1-0.1-0.1
			c0,0,0.1,0.3,0,0.1c0,0,0-0.1,0-0.1c0-0.1,0-0.1-0.1-0.2c0-0.2,0,0.1,0,0.1c0,0,0-0.2,0-0.2c0-0.4,0-0.7,0.1-1.1
			c0-0.1,0-0.1,0-0.2c0,0,0,0.2,0,0c0-0.1,0-0.2,0.1-0.3s0-0.2,0.1-0.3c0-0.1,0.1-0.3,0-0.1c0.1-0.1,0.1-0.2,0.2-0.3c0-0.1,0,0,0,0
			c0,0,0.1-0.1,0.1-0.1c0,0,0.1-0.1,0.1-0.1c-0.1,0.1-0.1,0.1-0.1,0.1c0,0,0,0,0.1,0c0,0,0.1,0,0.1-0.1c0.1-0.1-0.2,0.1,0,0
			c0,0,0.1,0,0.1,0c0.2-0.1,0,0,0,0c0,0,0.3,0,0.3,0c-0.1,0-0.2,0-0.1,0c0.2,0-0.1-0.1,0,0l0.1,0c-0.1-0.1-0.1-0.1-0.1-0.1
			c0,0,0,0,0.1,0.1c0.4,0.4,1.1,0.4,1.5,0C91.7,284.8,91.7,284.2,91.2,283.7L91.2,283.7z"/>
	</g>
</g>
<g>
	<g>
		<path d="M87.3,287.6c-1.4-0.9-3-0.2-4.2,0.7c-1.1,0.9-2.1,2.2-2.2,3.7c-0.1,1.5,0.9,2.9,2.3,3.2c1.4,0.3,2.8-0.2,3.9-1.1
			c0.6-0.5,1.1-1.2,1.6-1.8c0.4-0.6,0.8-1.1,1.4-1.6c0.4-0.4,0.4-1.1,0-1.5c-0.4-0.4-1.1-0.4-1.5,0c-0.4,0.4-0.8,0.8-1.1,1.2
			c-0.4,0.4-0.7,0.9-1,1.3c-0.2,0.2-0.3,0.4-0.5,0.6c-0.1,0.1-0.2,0.2-0.3,0.3c0,0-0.1,0.1-0.1,0.1c0.1-0.1,0,0,0,0
			c-0.2,0.1-0.4,0.3-0.6,0.4c0.1-0.1-0.1,0-0.1,0c-0.1,0-0.3,0.1-0.4,0.1c-0.1,0-0.3,0-0.1,0c-0.1,0-0.2,0-0.3,0c0,0-0.1,0-0.1,0
			c0,0,0.2,0,0,0c0,0-0.1,0-0.1,0c0,0-0.2-0.1-0.1,0c0.1,0-0.1-0.1-0.2-0.1c0.1,0.1,0,0-0.1-0.1c-0.1-0.1-0.2-0.3-0.2-0.4
			c0-0.1-0.1-0.3,0-0.2c0,0.1,0-0.1,0-0.1c0-0.1,0-0.1,0-0.2c0-0.2,0,0,0-0.1c0-0.1,0.1-0.3,0.1-0.4c0,0,0,0.1,0,0
			c0-0.1,0.1-0.1,0.1-0.2c0.1-0.1,0.1-0.2,0.2-0.3c0.1-0.2,0.3-0.4,0.5-0.6c0.1-0.1,0.2-0.2,0.3-0.3c0,0,0.1-0.1,0.1-0.1
			c0.3-0.2-0.1,0,0.1-0.1c0.2-0.2,0.5-0.3,0.7-0.4c-0.1,0,0.2-0.1,0.3-0.1c0,0,0.1,0,0.1,0c0.2,0-0.2,0,0.1,0c0,0,0.1,0,0.1,0
			c0.2,0-0.1,0,0,0c0,0,0.2,0.1,0.1,0c-0.1,0,0.1,0.1,0.1,0.1c0.5,0.3,1.2,0.1,1.4-0.4C87.9,288.6,87.8,287.9,87.3,287.6L87.3,287.6
			z"/>
	</g>
</g>
<g>
	<g>
		<path d="M80.5,291.3c-1.7,0.2-3.4,0.5-4.8,1.6c-1.2,0.9-2.1,2.5-1.9,4.1s1.2,2.7,2.7,3.3c1.4,0.5,2.9,0.3,4.2-0.4
			c1.6-0.9,2.7-2.4,3.6-3.9c0.7-1.2-1.1-2.2-1.8-1.1c-0.6,1-1.3,2-2.2,2.7c-0.4,0.3-0.9,0.6-1.3,0.7c-0.3,0.1-0.8,0.1-1.2,0.1
			c0,0-0.2,0-0.3-0.1c-0.1,0-0.2-0.1-0.3-0.1c-0.1,0-0.1,0-0.2-0.1c0,0,0.1,0.1,0,0c-0.1-0.1-0.2-0.1-0.4-0.2
			c-0.2-0.1-0.5-0.4-0.6-0.7c-0.1-0.3-0.1-0.4-0.1-0.6c0-0.2,0-0.4,0.1-0.7c0.1-0.4,0.4-0.8,0.8-1.1c0.9-0.9,2.4-1.1,3.7-1.3
			c0.6-0.1,1.1-0.4,1.1-1.1C81.5,291.9,81.1,291.3,80.5,291.3L80.5,291.3z"/>
	</g>
</g>
<g>
	<g>
		<path d="M75.3,294c-0.8-1.4-2.3-2.3-3.9-2.3c-0.9,0-1.7,0.2-2.3,0.8c-0.6,0.5-0.8,1.3-0.9,2c-0.3,2.7,2,5,4.4,5.6
			c1.4,0.4,3,0.2,4.3-0.5c0.5-0.3,0.7-1,0.4-1.4c-0.3-0.5-1-0.7-1.4-0.4c-0.1,0.1-0.2,0.1-0.3,0.1c0.2-0.1-0.1,0-0.1,0
			c-0.2,0.1-0.4,0.1-0.7,0.2c-0.1,0-0.2,0,0,0c0,0-0.1,0-0.1,0c-0.1,0-0.2,0-0.3,0s-0.2,0-0.3,0c-0.1,0-0.1,0-0.2,0c0,0-0.3,0-0.1,0
			c0.1,0-0.2,0-0.3,0c-0.1,0-0.2,0-0.3-0.1c-0.1,0-0.2-0.1-0.3-0.1c-0.1,0-0.1,0-0.2-0.1c0,0-0.3-0.1-0.1,0c0.1,0-0.1-0.1-0.2-0.1
			c-0.1,0-0.2-0.1-0.3-0.2c-0.1-0.1-0.2-0.1-0.3-0.2c0,0-0.1-0.1-0.1-0.1c-0.1-0.1,0.1,0.1,0,0c-0.2-0.1-0.3-0.3-0.5-0.5
			c0,0-0.2-0.3-0.1-0.1c0.1,0.1,0,0,0-0.1c0-0.1-0.1-0.1-0.1-0.2c-0.1-0.1-0.1-0.2-0.2-0.3c0,0-0.1-0.3-0.1-0.2
			c0,0.1-0.1-0.2-0.1-0.2c0-0.1-0.1-0.3-0.1-0.4c0-0.1,0,0.2,0,0c0-0.1,0-0.1,0-0.2c0-0.1,0-0.2,0-0.3c0-0.1,0-0.1,0-0.2
			c0,0.2,0,0.1,0,0c0-0.1,0-0.1,0-0.2c0,0,0.1-0.3,0-0.1c0,0.1,0.1-0.1,0.1-0.2c0.1-0.2,0,0,0,0c0,0,0.1-0.1,0.1-0.1
			c0,0,0.1-0.1,0,0c0.1,0,0.1-0.1,0.2-0.1c0,0-0.1,0,0,0c0.1,0,0.2-0.1,0.3-0.1c-0.1,0,0,0,0,0c0.1,0,0.2,0,0.3,0c0.1,0,0.1,0,0.2,0
			c0.1,0-0.1,0,0.1,0c0.1,0,0.3,0.1,0.4,0.1c0,0,0.2,0.1,0.1,0s0.1,0.1,0.1,0.1c0.5,0.3,0.8,0.6,1.1,1c0.3,0.5,1,0.7,1.4,0.4
			C75.5,295.2,75.6,294.5,75.3,294L75.3,294z"/>
	</g>
</g>
<g>
	<g>
		<path d="M68.8,295.5c-2.8-0.3-5.5-1-8.1-2c-0.5-0.2-1.2,0.2-1.3,0.7c-0.2,0.6,0.2,1.1,0.7,1.3c2.8,1.1,5.7,1.8,8.7,2.1
			c0.6,0.1,1.1-0.5,1.1-1.1C69.8,295.9,69.3,295.6,68.8,295.5L68.8,295.5z"/>
	</g>
</g>
<g>
	<g>
		<path d="M68.6,291.9c-1.9-1.7-4.4-2.6-7-2.4c-0.6,0-1.1,0.4-1.1,1.1c0,0.5,0.5,1.1,1.1,1.1c0.5,0,1.1,0,1.6,0c0.1,0,0.1,0,0,0
			c0.1,0,0.1,0,0.2,0c0.1,0,0.3,0,0.4,0.1c0.3,0.1,0.6,0.1,0.8,0.2c0.1,0,0.3,0.1,0.4,0.1c0,0,0.2,0.1,0.1,0c-0.1,0,0.1,0,0.1,0
			c0.2,0.1,0.5,0.2,0.7,0.4c0.2,0.1,0.4,0.3,0.7,0.4c0,0,0.2,0.1,0.1,0.1c-0.1-0.1,0.1,0.1,0.1,0.1c0.1,0.1,0.2,0.2,0.3,0.3
			c0.4,0.4,1.1,0.4,1.5,0C69,293.1,69.1,292.3,68.6,291.9L68.6,291.9z"/>
	</g>
</g>
<g>
	<path d="M353.3,214.1c7.2,12,15.2,23.6,24,34.6c-5.5-12.3-11.5-24.4-18-36.2c-0.3-0.6-0.7-1.2-1.4-1.2c-0.3,0-0.6,0.1-0.9,0.3
		c-1.2,0.7-2.5,1.4-3.7,2.2"/>
</g>
<g>
	<g>
		<path d="M158.1,174.9c-0.1-1.9-0.1-3.8,0.1-5.7c0.1-1,0.2-3.1,1.1-3.7c0.4-0.3,0.9,0,1.3,0.3c0.7,0.6,1.2,1.3,1.7,1.9
			c1.3,1.5,2.6,3,3.8,4.5c0.4,0.4,1.1,0.4,1.5,0c0.4-0.4,0.4-1.1,0-1.5c-1.1-1.3-2.3-2.7-3.4-4c-1-1.2-2-2.6-3.5-3.2
			c-1.4-0.6-2.8,0.1-3.6,1.3c-0.8,1.2-0.9,2.8-1.1,4.2c-0.2,2-0.3,4-0.1,6c0,0.6,0.4,1.1,1.1,1.1C157.5,176,158.1,175.5,158.1,174.9
			L158.1,174.9z"/>
	</g>
</g>
<g>
	<g>
		<path d="M172.7,169.9c-0.4-1.9-0.4-4-0.1-5.9c0.2-1.3,0.6-2.9,1.8-3.7c1.3-0.8,2.6,0.3,3.4,1.2c1.3,1.4,2.4,3.1,3.5,4.7
			c0.3,0.5,0.9,0.7,1.4,0.4c0.4-0.3,0.7-1,0.4-1.4c-1.1-1.5-2.2-3.1-3.3-4.5c-0.9-1.2-2.2-2.3-3.7-2.6c-3.5-0.7-5.2,3-5.6,5.8
			c-0.3,2.2-0.3,4.4,0.1,6.6c0.1,0.6,0.8,0.9,1.3,0.7C172.5,171.1,172.8,170.5,172.7,169.9L172.7,169.9z"/>
	</g>
</g>
<g>
	<g>
		<path d="M176.4,132.4c-1.3,1.3-1.7,3-1.9,4.8c-0.3,2.4-0.6,4.9-0.7,7.4c-0.2,4.9,0.1,9.7,0.7,14.5c0.2,1.3,2.2,0.8,2-0.6
			c-0.6-4.3-0.8-8.6-0.7-13c0.1-2.1,0.2-4.3,0.4-6.4c0.2-1.7,0.2-3.9,1.5-5.3C178.9,132.9,177.4,131.4,176.4,132.4L176.4,132.4z"/>
	</g>
</g>
<g>
	<g>
		<path d="M187.5,150.1c0.6,4.7,0.6,9.4,0.2,14.1c-0.1,0.6,0.5,1.1,1.1,1.1c0.6,0,1-0.5,1.1-1.1c0.4-4.7,0.4-9.4-0.2-14.1
			c-0.1-0.6-0.4-1.1-1.1-1.1C188,149,187.4,149.5,187.5,150.1L187.5,150.1z"/>
	</g>
</g>
<g>
	<g>
		<path d="M208.9,148.2c0.3,1.5,1.2,2.8,2,4c0.8,1.1,1.8,2.4,2,3.9c0.1,1.5-0.8,2.8-1.6,4c-0.9,1.3-1.6,2.7-1.7,4.4
			c0,1.4,2.1,1.4,2.1,0c0.1-1.6,1.1-2.9,1.9-4.2c0.8-1.3,1.4-2.8,1.3-4.4c-0.3-3.2-3.4-5.2-4-8.3
			C210.7,146.3,208.6,146.8,208.9,148.2L208.9,148.2z"/>
	</g>
</g>
<g>
	<g>
		<path d="M94.5,153.8c0.6,1.3,1.9,1.7,3.2,1.8c1.3,0.1,2.9,0,3.2,1.6c0.2,1,0.1,2.2,0.2,3.2c0,1.1,0.1,2.3,0.1,3.5
			c0.1,2.4,0.2,4.7,0.3,7.1c0.1,1.4,2.2,1.4,2.1,0c-0.1-2.4-0.2-4.9-0.3-7.3c0-1.3-0.1-2.5-0.1-3.8c0-1.1,0-2.2-0.2-3.2
			c-0.3-1.7-1.6-2.7-3.3-2.9c-1-0.1-2.9,0.1-3.4-1C95.8,151.5,94,152.5,94.5,153.8L94.5,153.8z"/>
	</g>
</g>
<g>
	<g>
		<path d="M110.2,170.9c0.4-2.2,0.7-4.5,1.8-6.4c0.5-0.8,1-1.5,1.8-2.1c0.6-0.5,1.6-1.1,2.4-1c0.4,0,0.6,0.4,0.7,0.7
			c0.3,0.5,0.5,0.9,0.8,1.4c0.5,1,1,2.1,1.4,3.1c0.9,2.2,1.5,4.4,1.9,6.7c0.3,1.3,2.3,0.8,2-0.6c-0.8-4.1-2.2-8.2-4.4-11.8
			c-0.5-0.8-1.1-1.6-2.2-1.7c-0.9-0.1-1.9,0.2-2.7,0.6c-1.6,0.7-2.9,2.2-3.8,3.7c-1.1,2.1-1.6,4.4-1.9,6.7c-0.1,0.6,0.1,1.1,0.7,1.3
			C109.4,171.7,110.1,171.4,110.2,170.9L110.2,170.9z"/>
	</g>
</g>
<g>
	<g>
		<path d="M78.1,161.9c0.9-8.3,1.1-16.9-1.3-25c-0.9-3-2.1-6.9-4.5-9.1c-2.6-2.3-6-0.7-8.6,0.5c-6.9,3.2-9,10.3-8.8,17.4
			c0.2,7.5,1.8,16,8,20.8c2.7,2.1,6.2,3.4,9.6,2.7C76.3,168.4,77.7,165.5,78.1,161.9c0.1-1.4-2-1.3-2.1,0c-0.4,3.3-2.1,5.5-5.6,5.5
			c-3,0-5.7-1.7-7.7-3.8c-4.5-4.7-5.6-11.9-5.7-18.2c-0.1-6.1,1.6-12.3,7.5-15.1c1.2-0.6,2.8-1.3,4.2-1.5c1.9-0.3,2.9,1.2,3.7,2.7
			c1.5,2.7,2.5,5.7,3.2,8.7c1.6,7.1,1.3,14.5,0.5,21.7C75.8,163.3,77.9,163.3,78.1,161.9z"/>
	</g>
</g>
<g>
	<g>
		<path d="M62.9,178.1c2-0.1,4.1-0.4,6.2-0.4c1.8,0,2.9,1.1,3.4,2.7c0.6,1.8,0.7,3.7,0.7,5.7c0,2.1,0,4.1,0,6.2c0,1.4,2.1,1.4,2.1,0
			c0-2.3,0.1-4.7,0-7c0-2.1-0.3-4.3-1.1-6.3c-0.8-1.8-2.3-3.1-4.3-3.3c-1.1-0.1-2.2,0-3.3,0.1c-1.2,0.1-2.4,0.2-3.6,0.3
			C61.5,176.1,61.5,178.2,62.9,178.1L62.9,178.1z"/>
	</g>
</g>
<g>
	<g>
		<path d="M85.4,181.2c-3.4,1.4-5.9,4.3-7.2,7.8c-1.6,4.2-1.2,8.8-0.4,13.1c0.2,1.3,2.3,0.8,2-0.6c-1.1-6.3-0.9-15.3,6.2-18.3
			C87.2,182.7,86.6,180.6,85.4,181.2L85.4,181.2z"/>
	</g>
</g>
</svg>
