<?xml version="1.0" encoding="utf-8"?>
<!-- Generator: Adobe Illustrator 24.3.0, SVG Export Plug-In . SVG Version: 6.00 Build 0)  -->
<svg version="1.1" id="Calque_5" xmlns="http://www.w3.org/2000/svg" xmlns:xlink="http://www.w3.org/1999/xlink" x="0px" y="0px"
	 viewBox="0 0 519.4 390.35" style="enable-background:new 0 0 519.4 390.35;" xml:space="preserve">
<path d="M249.57,313.99c-22.22-55.36,0.2-118.41,29.7-166.45C309.39,98.51,350,57,381.6,8.97c-1.13-0.31-2.27-0.62-3.4-0.92
	c-0.13,59.15-34.91,108.5-66.42,155.73c-30.83,46.21-54.46,94.25-62.6,149.72c-0.33,2.21,3.04,3.18,3.39,0.94
	c4.61-29.42,13.06-58.19,25.48-85.29c11.89-25.95,27.93-49.67,43.78-73.31c29.83-44.5,60.39-92.24,60.01-147.79
	c-0.01-1.87-2.43-2.4-3.4-0.92c-33.98,51.71-78.68,95.99-109.05,150.13c-25.46,45.4-45.54,107.39-21.85,157.58
	C248.08,315.95,250.04,315.15,249.57,313.99"/>
<path d="M251.16,313.98c17.36-51.53,49.22-95.53,95.67-124.55c25-15.62,52.19-27.86,78.84-40.35
	c29.23-13.69,58.76-26.73,88.55-39.15c-0.78-1.02-1.57-2.04-2.35-3.06c-16.22,26.48-33.03,52.05-60.68,67.76
	c-26.84,15.25-56.47,25.54-84.52,38.3c-47.34,21.54-95.69,50.48-117.66,99.95c-1.12,2.51,2.59,4.72,3.73,2.18
	c24.31-53.98,78.97-82.24,130.66-104.74c27.24-11.86,57.15-21.78,81.51-39.15c22.19-15.82,36.68-39.28,50.56-62.19
	c0.86-1.41-0.61-3.79-2.35-3.06c-30.06,12.68-59.87,25.93-89.36,39.88c-28.98,13.7-58.8,27.08-85.42,45.07
	c-42.45,28.69-75.72,72.86-88.85,122.64C249.19,314.6,250.8,315.03,251.16,313.98"/>
<path d="M251.07,314.95c30.6-28.46,64.22-50.41,105.69-58.81c46.34-9.39,94.4-16.46,141.71-17.58c-0.37-1.38-0.75-2.75-1.12-4.13
	c-43.21,19.08-90.17,25.98-136.12,35.39c-39.76,8.14-79.16,17.31-111.96,42.52c-2.26,1.74-0.04,5.65,2.27,3.89
	c34.65-26.44,76.38-35,118.16-43.51c43.93-8.94,88.74-15.78,129.88-34.47c2.03-0.92,0.98-4.2-1.12-4.13
	c-48.8,1.69-99.16,8.49-146.8,19.24c-39.78,8.98-73.89,31.08-101.93,60.25C248.89,314.5,250.18,315.78,251.07,314.95"/>
<path d="M378.06,10.48c-19.32,51.35-58.6,90.31-82.69,138.97c-12.92,26.11-21.22,54.31-29.86,82.04
	c-8.21,26.35-19.89,54.05-15.98,82.14c0.33,2.36,3.92,1.36,3.59-0.99c-4.16-30.11,10.3-62.07,19.14-90.35
	c8.98-28.73,18.06-57.57,33-83.87c24.22-42.65,60.97-79.4,75-127.33C380.68,9.65,378.56,9.13,378.06,10.48"/>
<path d="M372.65,19.5c-27.52,47.91-68.5,85.6-90.92,136.76c-10.93,24.94-20.57,51.02-27.77,77.29
	c-7.14,26.06-11.42,54.27-4.79,80.89c0.56,2.26,3.79,1.27,3.43-0.95c-4.87-29.83-1.23-57.98,7.41-86.8
	c8.09-27.01,17.75-54.18,29.86-79.66c22.04-46.35,61.52-80.93,84.28-126.66C374.65,19.39,373.22,18.52,372.65,19.5"/>
<path d="M249.04,307.84c10.92-26.06,31.37-47.5,52.07-66.26c20.24-18.34,42.87-33.98,67.12-46.52
	c25.59-13.23,53.69-20.78,78.76-35.04c23.55-13.4,46.21-30.85,65.87-49.47c1.35-1.27-0.49-3.81-2.03-2.63
	c-23.86,18.3-45.7,38.5-72.57,52.59c-26.93,14.12-56.33,22.27-82.87,37.41c-22.92,13.08-44.23,29.06-63.21,47.4
	c-17.58,17-38.21,37.75-44.21,62.24C247.81,308.26,248.77,308.47,249.04,307.84"/>
<path d="M250.41,312.27c38.19-19.89,75.3-47.94,119.23-52.51c18.72-1.95,37.63-1.51,56.12-5.46c21.32-4.55,41.56-13.01,63.39-15.26
	c-0.47-1.14-0.94-2.28-1.41-3.42c-0.83,0.84-1.67,1.69-2.5,2.53c-1.68,1.71,0.81,4.09,2.59,2.59c0.91-0.77,1.82-1.53,2.73-2.3
	c1.27-1.07,0.28-3.59-1.41-3.42c-20.2,2.11-39.01,9.27-58.59,14.14c-22.09,5.49-44.69,4.58-67.08,7.73
	c-19.52,2.74-37.36,10.23-54.62,19.48c-19.85,10.64-40.98,21.36-59.05,34.83C249.19,311.68,249.71,312.64,250.41,312.27"/>
<path d="M376.17,14.56c-3.63,25.08-10.85,48.42-24.51,69.96c-13.34,21.04-28.6,40.63-41.14,62.23
	c-23.53,40.52-43.36,85.38-53.75,131.22c-0.47,2.08,2.58,2.93,3.2,0.88c14.65-48.59,32.34-94.98,58.7-138.58
	c12.55-20.76,28.24-39.62,40.16-60.72c11.11-19.67,18.21-42.1,19.39-64.71C378.27,13.69,376.34,13.39,376.17,14.56"/>
<path d="M256.11,300.1c3.49-14.08,14.26-23.97,24.72-33.27c10.72-9.53,21.97-18.46,33.63-26.8c21-15.01,43.36-28.09,66.51-39.5
	c12.33-6.08,24.88-11.69,37.61-16.86c11.39-4.63,23.52-8.22,34.16-14.5c9.95-5.87,18.54-14.22,27.12-21.85
	c11-9.78,21.53-19.94,30.83-31.38c1.37-1.68-1.02-4.09-2.4-2.4c-9.29,11.44-19.82,21.61-30.81,31.39
	c-12.51,11.14-24.46,21.54-40.14,27.95c-24.22,9.91-48.23,19.61-71.37,31.93c-22.87,12.18-44.83,26.12-65.29,42.04
	c-17.45,13.58-41.05,29.84-45.62,52.96C254.94,300.49,255.94,300.78,256.11,300.1"/>
<path d="M472.53,126.78c-18.8,8.66-35.43,21.08-53.34,31.36c-18.06,10.37-37.66,17.39-56.36,26.44
	c-17.62,8.53-32.99,19.83-47.87,32.44c-7.08,6-12.69,12.44-18.21,19.83c-6.78,9.08-14.66,16.93-21.93,25.57
	c-1.01,1.19,0.55,2.81,1.73,1.73c15.06-13.73,24.94-31.94,40.44-45.1c15.75-13.38,32.04-24.88,50.78-33.71
	c17.61-8.3,35.84-15.19,52.73-24.97c17.86-10.34,34.61-22.48,52.5-32.8C473.52,127.27,473.06,126.53,472.53,126.78"/>
<path d="M251.18,308.87c-12.16-9.91-17.98-26.78-24.23-40.75c-6.79-15.17-13.7-30.45-19.42-46.05c-12.32-33.6-8.45-66.1,1.45-99.76
	c-1.27-0.17-2.55-0.34-3.82-0.52c4.07,32.76,22.28,61.67,28.07,94.19c3.18,17.87,3.02,35.35,2.48,53.4
	c-0.4,13.55,0.14,27.18,8.2,38.61c1.37,1.95,4.49,0.23,3.25-1.9c-8.6-14.71-7.18-30.82-6.66-47.16c0.49-15.44-0.6-30.87-3.52-46.05
	c-6.06-31.58-23.66-59.72-28-91.6c-0.27-2.01-3.26-1.69-3.75,0c-10.18,35.28-13.74,68.7-0.47,103.68
	c6.23,16.42,13.49,32.58,20.9,48.5c6.19,13.27,11.88,28.38,24.15,37.19C250.84,311.38,252.17,309.68,251.18,308.87"/>
<path d="M203.19,127.23c0.87,28.4,5.38,56.46,11.73,84.13c6.52,28.39,13.03,58.85,24.26,85.79c0.69,1.65,3.07,1.07,2.72-0.75
	c-5.34-27.62-15.96-54.54-22.59-81.95c-6.94-28.7-11.93-57.75-14.17-87.21C205.04,125.99,203.15,125.96,203.19,127.23"/>
<path d="M206.55,127.28c-2.94,25.05,5.18,49.05,12.59,72.63c8,25.46,12.31,51.05,17.44,77.14c0.27,1.39,2.55,1.08,2.48-0.33
	c-1.29-24.26-7.82-48.79-15.03-71.89c-7.98-25.54-17.04-50.34-15.64-77.55C208.44,126.07,206.68,126.13,206.55,127.28"/>
<path d="M204.35,129.81c1.48,28.59-5.55,56.25,1.68,84.53c6.86,26.84,17.45,55.61,32.93,78.74c0.92,1.37,2.88,0.19,2.19-1.28
	c-12.38-26.38-25.38-51.75-32.44-80.27c-6.79-27.43,1-54.42-2.77-81.93C205.81,128.7,204.31,128.91,204.35,129.81"/>
<path d="M165.87,312.74c4.51-20.04,1.07-43.03-3.78-62.75c-5.16-20.93-13.68-41.18-25.14-59.45c-19.56-31.17-48.8-57.51-85.56-65.29
	c-2.32-0.49-3.23,3.05-0.91,3.57c36.48,8.16,65.02,33.78,84.33,64.99c10.56,17.07,18.57,35.8,23.71,55.19
	c5.67,21.39,5.31,41.79,6.02,63.58C164.55,313.34,165.69,313.51,165.87,312.74"/>
<path d="M137.33,191.26c-10.84-12.02-30.15-12.45-43.79-5.59c-1.44,0.72-0.93,2.95,0.5,3.31c13.03,3.31,27.24,12.82,40.36,4.67
	c2.05-1.28,0.17-4.28-1.95-3.18c-12.65,6.6-25.15-2.05-37.52-5.01c0.17,1.1,0.34,2.21,0.5,3.31c14.24-7.41,27.8-3.97,40.7,4.1
	C137.16,193.5,138.06,192.07,137.33,191.26"/>
<path d="M150.45,220.66c21.67-1.75,29.01,23.41,40.93,36.55c0.79-1.06,1.57-2.13,2.36-3.19c-10.42-4.54-19.48-11.42-26.07-20.76
	c-3.87-5.49-6.79-13.34-14.28-14.28c-2.31-0.29-3.07,2.66-0.89,3.49c8.23,3.13,12.46,15.09,18.6,21.25
	c5.94,5.97,12.97,10.48,20.69,13.79c2.05,0.88,3.97-1.45,2.36-3.19c-12.23-13.16-21.33-40.31-44.02-35.68
	C149.01,218.88,149.3,220.76,150.45,220.66"/>
<path d="M160.28,256.44c-5.29,6.58-10.99,12.28-18.49,16.33c-5.66,3.05-10.54,6.11-11.1,13c-0.09,1.14,1.05,1.88,2.03,1.95
	c16.08,1.14,32.89-12.33,31.44-29.32c-0.24-2.87-4.71-2.82-4.51,0.09c1.04,14.79-12.94,26.1-27.01,25.25
	c0.68,0.65,1.36,1.3,2.03,1.95c0.52-7.45,11.67-10.62,16.67-14.71c4.39-3.59,8.46-7.87,11.24-12.84
	C163.35,256.75,161.33,255.13,160.28,256.44"/>
<path d="M94.77,144.09c12.95-4.15,26.46-4.53,38.9,1.56c0.3-1.21,0.6-2.42,0.9-3.63c-6.25,0.04-11.53,2.38-17.52,3.85
	c-8.43,2.07-15.25,0.18-23.22-2.29c-1.92-0.6-2.76,2.11-1.24,3.11c5.35,3.53,12.23,4.69,18.59,4.26c8.11-0.55,15.32-4.94,23.47-5.06
	c1.78-0.03,2.76-2.88,0.9-3.63c-13.7-5.48-28-6.35-41.49,0.24C93.16,142.95,93.84,144.39,94.77,144.09"/>
<path d="M129.92,188.76c-6.34,0.34-11.89,0.01-18.05-1.54c-4.63-1.16-9.18-2.58-14-2.36c-0.92,0.04-1.16,1.47-0.19,1.66
	c9.78,1.92,22.91,7.99,32.54,3.27C130.72,189.55,130.45,188.73,129.92,188.76"/>
<path d="M159.14,222.8c11.82,7.31,15.49,23.47,29.15,28.4c1.37,0.49,2.29-1.79,0.95-2.39c-12.86-5.75-16.97-20.88-29.48-27.12
	C159.02,221.32,158.44,222.37,159.14,222.8"/>
<path d="M159.72,263.82c-3.46,4.88-6.83,8.82-12.09,11.83c-4.44,2.53-9.4,3.65-13.92,5.91c-0.99,0.49-0.5,2.31,0.63,2.14
	c10.52-1.55,23.26-8.75,26.7-19.36C161.31,263.51,160.15,263.21,159.72,263.82"/>
<path d="M130.15,142.09c-8.09,0.89-15.52,0.81-23.61-0.09c-4.89-0.55-9.19-0.82-13.46,1.85c-1.45,0.9-0.12,2.86,1.35,2.2
	c6.75-3.05,13.51-0.58,20.47-0.39c5.31,0.14,10.42-0.55,15.48-2.13C131.13,143.29,131,142,130.15,142.09"/>
<path d="M66.11,122.81c2.66,24.16-23.29,25.91-26.17,3.59C37.06,104.07,64.18,105.27,66.11,122.81"/>
<path d="M164.12,208.15c1.69,15.34-14.78,16.45-16.61,2.28C145.68,196.25,162.9,197.01,164.12,208.15"/>
<path d="M101.81,131.14c1.69,15.34-14.78,16.45-16.61,2.28C83.36,119.25,100.58,120.01,101.81,131.14"/>
<path d="M73.55,309.34c-12.78-6.81-21.99-18.77-30.3-30.36c-7.54-10.53-14.03-21.93-17.95-34.32c-3.98-12.61-5.08-26.24-2.19-39.21
	c2.91-13.03,11.44-30.45,25.9-33.4c29.58-6.04,21.93,55.34,22.42,71.61c0.74,24.49,8.98,48.26,22.94,68.37
	c1.11,1.6,3.35-0.19,2.38-1.79c-13.64-22.55-21.97-45.53-22.14-72.11c-0.08-12.71,0.89-25.49-0.54-38.16
	c-0.99-8.8-2.71-21.16-9.85-27.31c-15.58-13.41-33.81,6.37-39.88,19.8c-8.95,19.82-6.57,42.85,1.9,62.37
	c4.94,11.38,11.81,21.84,19.48,31.56c7.4,9.38,15.59,20.15,27.47,23.78C73.74,310.33,74.07,309.61,73.55,309.34"/>
<path d="M50.96,169.06c-9.4,7.03-9.29,21.29-8.61,32.01c0.97,15.37,3.29,30.86,6.78,45.82c3.19,13.65,7.61,27.04,13.96,39.49
	c4.91,9.61,10.17,19.69,20,24.75c1.31,0.67,2.08-1.37,0.89-2.09c-10.25-6.24-15.83-17.45-20.82-28.14
	c-5.1-10.95-8.84-22.54-11.6-34.33c-2.62-11.16-4.37-22.51-5.67-33.91c-1.53-13.39-4.46-31.67,6.13-42.13
	C52.83,169.71,51.92,168.34,50.96,169.06"/>
<path d="M63.85,303.84c1.7-0.82,3.86-0.68,5.7-0.72c2.08-0.05,4.13,0.1,6.21,0.16c1.06,0.03,1.33-1.53,0.23-1.67
	c-3.77-0.46-9.37-0.88-12.67,1.3C62.82,303.25,63.29,304.1,63.85,303.84"/>
<path d="M59.49,300.27c4.18-0.86,8.16-1.06,12.42-1.02c1.34,0.01,1.36-1.93,0.01-1.84c-0.25,0.02-0.5,0.03-0.75,0.05
	c-0.75,0.05-0.82,1.12-0.2,1.4c0.23,0.11,0.47,0.21,0.7,0.32c0.17-0.59,0.33-1.18,0.5-1.77c-4.33-0.18-9.06-0.39-12.99,1.69
	C58.61,299.4,58.75,300.42,59.49,300.27"/>
<path d="M56.34,296.03c0.8-1.62,4.97-1.91,6.61-2.09c2.03-0.22,4.05,0.09,6.07-0.09c0.64-0.05,0.78-1.03,0.18-1.26
	c-2.76-1.07-6.25-0.62-9.06,0.05c-1.64,0.39-4.83,0.97-4.9,3.08C55.22,296.36,56.04,296.64,56.34,296.03"/>
<path d="M51.9,292.7c4.37-2.24,8.86-3.37,13.78-3.07c1.43,0.09,0.97-2.1-0.2-1.57l-0.37,0.17c-0.38,0.17-0.55,0.78-0.15,1.03
	c0.11,0.07,0.21,0.14,0.32,0.2l0.62-1.46c-5.17-0.47-10.32,0.71-14.61,3.65C50.74,292.03,51.28,293.02,51.9,292.7"/>
<path d="M48.23,286.79c2.34-1.58,4.8-2.85,7.61-3.32c2.41-0.4,4.66,0.31,7.01,0.16c0.53-0.03,0.74-0.81,0.31-1.12
	c-4.52-3.18-12.38-0.16-15.68,3.52C47.07,286.5,47.75,287.12,48.23,286.79"/>
<path d="M44.66,282.06c2.58-1.61,5.13-2.64,8.16-3.02c2.7-0.34,5.41,0.06,8.09-0.28c0.82-0.1,0.76-1.23,0.01-1.4
	c-5.44-1.18-13.05-0.34-17.01,3.93C43.46,281.77,44.17,282.37,44.66,282.06"/>
<path d="M41.16,277.41c1.57-2.06,7-2.88,9.38-3.35c2.68-0.52,5.36-0.46,8.07-0.75c0.71-0.08,0.61-1.02,0.01-1.18
	c-3.47-0.9-7.39-0.08-10.77,0.86c-2.54,0.71-6.19,1.39-7.63,3.84C39.87,277.39,40.78,277.91,41.16,277.41"/>
<path d="M38.15,273.64c4.89-4.97,11.36-6.07,18.05-5.61c1.16,0.08,1.44-1.68,0.26-1.81c-7.03-0.81-14.85,0.67-19.25,6.67
	C36.73,273.53,37.61,274.19,38.15,273.64"/>
<path d="M35.56,268.72c3.37-6.57,12.75-5.32,18.63-5.77c0.81-0.06,0.72-1.19,0.01-1.35c-4.15-0.93-9.03-0.53-13.02,0.95
	c-2.66,0.99-6.11,2.83-6.41,5.95C34.73,268.97,35.35,269.14,35.56,268.72"/>
<path d="M32.1,262.65c5.9-5.75,13.62-5.52,21.31-5.4c-0.13-0.51-0.26-1.01-0.39-1.52c-0.14,0.08-0.29,0.16-0.43,0.25
	c-0.4,0.23-0.2,0.77,0.11,0.94c0.16,0.09,0.33,0.18,0.49,0.27c1.07,0.6,1.75-1.52,0.46-1.62c-7.97-0.66-16.94-0.48-22.4,6.22
	C30.81,262.31,31.58,263.15,32.1,262.65"/>
<path d="M29.69,258.38c6.44-5.95,13.6-5.99,21.85-6.19c0.81-0.02,0.72-1.21,0.01-1.36c-7.99-1.71-17.26,0.38-22.69,6.7
	C28.43,258.04,29.19,258.85,29.69,258.38"/>
<path d="M28.06,252.54c6.5-5.12,14.06-7.85,22.38-7.23c0-0.56,0.01-1.12,0.01-1.68c-0.28,0.04-0.55,0.08-0.83,0.12
	c-0.8,0.12-0.84,1.33-0.01,1.45c0.28,0.04,0.55,0.07,0.83,0.11c1.09,0.15,1.32-1.6,0.24-1.68c-8.58-0.65-17.08,1.94-23.34,7.95
	C26.78,252.09,27.43,253.03,28.06,252.54"/>
<path d="M24.67,246.54c6.95-5.66,15.82-5.41,24.29-5.06c0-0.61,0.01-1.22,0.01-1.83c-0.09,0.01-0.19,0.02-0.28,0.04
	c0.21,0.52,0.43,1.05,0.64,1.57c0.06-0.04,0.12-0.09,0.17-0.14c0.25-0.24,0.4-0.66,0.14-0.96c-0.09-0.1-0.19-0.19-0.29-0.29
	c-0.98-0.92-2.23,1.25-0.67,1.56c0.09,0.02,0.19,0.04,0.28,0.06c1.17,0.23,1.45-1.74,0.26-1.83c-9.02-0.67-18.22-0.44-25.18,6.04
	C23.55,246.15,24.14,246.98,24.67,246.54"/>
<path d="M23.14,240.6c8.54-3.42,15.87-4.46,25.04-4.28c0.95,0.02,1.16-1.26,0.21-1.48c-8.43-1.96-18.56,0.19-25.75,4.87
	C22.13,240.03,22.6,240.81,23.14,240.6"/>
<path d="M21.69,234.57c7.52-5.36,16.5-5.36,25.3-4.16c1.21,0.17,1.47-1.7,0.26-1.88c-9.27-1.33-18.72-1.05-26.3,5.06
	C20.35,234.09,21.05,235.03,21.69,234.57"/>
<path d="M20.63,226.36c9.02-2.81,17.05-2.01,26.21-0.93c0.72,0.09,1.04-0.96,0.35-1.25c-8.41-3.55-18.76-2.16-27.06,0.97
	C19.34,225.45,19.84,226.6,20.63,226.36"/>
<path d="M20.77,219.53c8.19-2.8,15.67-0.4,23.91-0.21c0.66,0.02,1.09-0.97,0.35-1.22c-7.74-2.62-17.1-2.71-24.69,0.38
	C19.66,218.75,20.08,219.76,20.77,219.53"/>
<path d="M22.01,212.66c7.57-1.14,14.6-1.22,21.97,1.12l0.25-1.76c-0.2,0.05-0.4,0.1-0.6,0.16c-0.62,0.16-0.99,1.17-0.2,1.43
	c0.18,0.06,0.37,0.12,0.55,0.18c1.12,0.36,1.86-1.32,0.73-1.69c-7.38-2.46-15.55-3.05-22.98-0.48
	C21.14,211.81,21.4,212.75,22.01,212.66"/>
<path d="M21.82,206.93c7.36-1.12,14.71-0.78,21.93,1.01c1.1,0.27,1.33-1.47,0.24-1.74c-7.48-1.85-14.78-2.01-22.33-0.46
	C20.92,205.9,21.05,207.05,21.82,206.93"/>
<path d="M22.99,199.12c7.04-0.39,13.94,1.03,20.27,4.09l0.25-1.8c-0.24,0.05-0.48,0.1-0.72,0.15c-0.49,0.11-0.77,0.77-0.31,1.11
	c0.19,0.14,0.37,0.28,0.56,0.41c1.09,0.8,2.2-1.01,0.96-1.6c-6.78-3.27-13.71-4.38-21.16-3.45
	C22.14,198.12,22.29,199.16,22.99,199.12"/>
<path d="M26.73,192.56c5.7-0.07,11.31,1.41,16.41,3.9c1.03,0.5,1.73-1.14,0.7-1.62c-5.54-2.64-11.15-3.6-17.26-3.4
	C25.85,191.46,26.01,192.57,26.73,192.56"/>
<path d="M29.3,186.52c2.46,0.42,4.94,0.41,7.38,0.97c2.18,0.5,4.27,1.74,6.45,2.03c0.54,0.07,1.07-0.64,0.64-1.09
	c-1.48-1.6-4-2.08-6.07-2.58c-2.66-0.64-5.69-0.97-8.4-0.39C28.73,185.58,28.68,186.41,29.3,186.52"/>
<path d="M34.15,181.72c3.62,0.12,6.92,0.87,10.39,1.82c1.09,0.3,1.31-1.78,0.01-1.64c-0.05,0.01-0.11,0.01-0.16,0.02
	c-0.38,0.04-0.56,0.38-0.55,0.72c0,0.06,0,0.13,0,0.19c0.44-0.25,0.89-0.5,1.33-0.76c-3.25-1.99-7.19-1.63-10.83-1.66
	C33.5,180.41,33.29,181.69,34.15,181.72"/>
<path d="M38.45,176.3c1.37,0.14,2.71,0.39,4.03,0.78c1.09,0.33,2.16,0.88,3.29,0.96c0.66,0.04,1.1-0.78,0.53-1.23
	c-1.94-1.5-5.33-1.58-7.68-1.72C37.85,175.04,37.66,176.21,38.45,176.3"/>
<path d="M74.91,300.97c5.04-1.56,10.06-1.62,15.14-0.24c-0.06-0.52-0.13-1.04-0.19-1.55c-0.18,0.09-0.36,0.18-0.54,0.26
	c-0.41,0.2-0.47,0.82-0.01,1.01c0.18,0.07,0.35,0.15,0.53,0.22c0.99,0.41,1.62-1.2,0.65-1.49c-5.34-1.6-10.84-1.37-15.99,0.78
	C73.84,300.24,74.25,301.17,74.91,300.97"/>
<path d="M71.52,296.9c2.34-0.55,4.72-1.03,7.12-1.2c2.73-0.18,5.35,0.31,8.06,0.34c0.67,0.01,1.11-0.97,0.35-1.25
	c-4.84-1.79-11.15-0.78-15.77,1.2C70.8,296.2,70.98,297.03,71.52,296.9"/>
<path d="M68.64,292.18c2.38-0.9,4.84-1.52,7.39-1.66c2.67-0.15,5.2,0.49,7.85,0.55c0.9,0.02,1.07-1.16,0.19-1.38
	c-5.33-1.37-10.93-1.06-15.86,1.42C67.54,291.43,67.93,292.44,68.64,292.18"/>
<path d="M65.93,287.59c3.15-0.84,6.32-1.79,9.61-1.6c2.24,0.13,4.41,0.78,6.65,0.64c0.55-0.03,0.66-0.89,0.15-1.07
	c-5.58-2.01-11.44-1.01-16.81,1.07C64.9,286.88,65.31,287.75,65.93,287.59"/>
<path d="M63.68,283.65c5.66-1.4,11.03-1.59,16.8-1.94c0.74-0.05,0.7-1.16,0.01-1.27c-5.63-0.96-11.77,0.25-17.07,2.2
	C62.86,282.83,63.09,283.79,63.68,283.65"/>
<path d="M61.74,279.54c5.53-2.12,11.4-1.32,17.07-0.29c0.98,0.18,1.18-1.32,0.22-1.53c-6.01-1.28-11.95-1.65-17.67,0.88
	C60.76,278.87,61.13,279.77,61.74,279.54"/>
<path d="M59.46,274.83c6.12-2.35,11.36-1.63,17.7-1.4c0.99,0.04,1.15-1.25,0.21-1.51c-5.82-1.6-13.28-1.39-18.5,1.87
	C58.28,274.16,58.84,275.06,59.46,274.83"/>
<path d="M58.34,270.57c5.42-2.51,11-2.97,16.84-1.86c0.86,0.16,1.23-0.97,0.64-1.48c-0.33-0.29-0.56-0.33-0.98-0.29
	c-0.73,0.06-0.72,1-0.18,1.3c-0.06-0.08-0.12-0.16-0.18-0.24c0.32-0.31,0.63-0.62,0.94-0.94c-6-1.49-12.13-0.59-17.64,2.14
	C56.93,269.61,57.46,270.97,58.34,270.57"/>
<path d="M55.9,264.06c3.36-0.87,6.35-1.46,9.84-1.15c2.78,0.25,5.54,0.7,8.33,0.95c0.95,0.09,1.16-1.33,0.21-1.48
	c-6.43-1.03-12.48-1.95-18.69,0.51C54.97,263.13,55.22,264.24,55.9,264.06"/>
<path d="M54.64,257.18c5.94-2.95,13.24-0.22,19.39,0.7c0-0.54,0.01-1.07,0.01-1.61c-0.64,0.01-1.09,0.15-1.42,0.7
	c-0.22,0.37,0.13,0.83,0.5,0.89c0.37,0.06,0.75,0.03,1.13,0.02c0.94,0,0.88-1.47,0.01-1.61c-6.43-1.02-13.92-3.53-20.04-0.14
	C53.6,256.49,53.98,257.51,54.64,257.18"/>
<path d="M52.45,252.1c7.21-2.36,13.93,0.61,20.96,1.81c0.67,0.11,0.82-0.78,0.3-1.07c-6.2-3.51-15.02-4.14-21.67-1.72
	C51.4,251.35,51.81,252.31,52.45,252.1"/>
<path d="M52.18,247.11c6.91-1.5,13.69-0.02,20.46,1.45c-0.07-0.55-0.14-1.1-0.21-1.65c-0.17,0.08-0.34,0.16-0.51,0.24
	c-0.47,0.23-0.43,0.8-0.01,1.05c0.17,0.1,0.34,0.2,0.51,0.3c0.98,0.58,1.79-1.32,0.46-1.64c-7-1.71-13.97-2.99-21.03-0.99
	C51.15,246.07,51.46,247.27,52.18,247.11"/>
<path d="M50.25,242.77c7.3-2.66,14.38-0.33,21.57,1.39c0.92,0.22,1.35-1.3,0.45-1.61c-7.32-2.5-15.13-3.99-22.47-0.9
	C49.08,241.96,49.52,243.03,50.25,242.77"/>
<path d="M49.45,235.75c8.03-0.84,14.66,0.92,22.34,2.71c0.87,0.2,1.05-1.02,0.39-1.39c-6.67-3.8-15.54-3.89-22.89-2.5
	C48.55,234.71,48.68,235.83,49.45,235.75"/>
<path d="M47.78,230.49c8.15-0.86,15.68,1.46,23.5,3.36c0.8,0.19,1.17-1.12,0.39-1.39c-7.76-2.69-15.84-4.57-24.06-3.27
	C46.78,229.32,46.94,230.58,47.78,230.49"/>
<path d="M47.92,225.68c8.16-1.36,15.92-0.28,23.5,2.97c0.96,0.41,1.57-1.03,0.64-1.48c-7.64-3.67-16.04-4.46-24.27-2.57
	C47.12,224.76,47.22,225.79,47.92,225.68"/>
<path d="M45.95,220.8c8.91-2.12,17.67-1.52,26.29,1.5c1.16,0.41,1.93-1.34,0.76-1.76c-8.96-3.23-18.2-3.41-27.37-0.92
	C44.97,219.8,45.27,220.96,45.95,220.8"/>
<path d="M46.17,214.94c9.09-1.88,17.9-0.48,26,4.01l0.23-1.65c-0.19,0-0.38,0.01-0.58,0.01c-0.76,0.01-0.8,1.12-0.2,1.39
	c0.18,0.08,0.36,0.16,0.54,0.24c1.04,0.47,1.62-1.04,0.69-1.59c-8.28-4.77-17.61-5.99-26.85-3.65
	C45.26,213.9,45.37,215.1,46.17,214.94"/>
<path d="M44.78,208.91c9.62-2.25,19.06-1.19,28.03,2.89c1.05,0.48,1.74-1.14,0.71-1.64c-9.26-4.47-19.18-5.2-29.07-2.52
	C43.73,207.84,44.05,209.08,44.78,208.91"/>
<path d="M44.35,203.83c8.06-2.95,20.21-0.47,28.09,2.45l0.27-1.94c-0.31,0.04-0.62,0.07-0.93,0.11c-0.75,0.09-0.99,1.28-0.22,1.54
	c0.29,0.1,0.58,0.2,0.87,0.29c1.22,0.41,2.03-1.36,0.81-1.86c-8.41-3.42-20.87-5.8-29.37-1.76
	C43.14,203.01,43.58,204.11,44.35,203.83"/>
<path d="M44.8,197.08c8.94-2.23,18.58,2.38,27.44,3.37c0.69,0.08,1-0.91,0.33-1.19c-4.78-2.01-10.14-2.82-15.24-3.62
	c-4.44-0.7-8.54-1.18-12.89,0.14C43.73,195.99,44.05,197.26,44.8,197.08"/>
<path d="M44.74,191.2c9.08-1.24,17.87,0.21,26.11,4.18c1.03,0.5,1.71-1.11,0.7-1.63c-8.48-4.37-17.62-5.63-26.98-3.82
	C43.78,190.09,43.92,191.31,44.74,191.2"/>
<path d="M44.46,185.08c5.31-0.33,10.51,0.23,15.63,1.63c3.78,1.03,7.19,2.82,11.15,2.92c1.35,0.04,1.03-1.97-0.19-1.55
	c-0.15,0.05-0.29,0.1-0.44,0.15c-0.53,0.18-0.43,0.88-0.01,1.1c0.15,0.08,0.29,0.16,0.44,0.23c0.14-0.51,0.29-1.03,0.43-1.54
	c-4.78-0.58-9.19-2.91-13.94-3.79c-4.42-0.82-8.78-0.78-13.23-0.42C43.48,183.89,43.65,185.13,44.46,185.08"/>
<path d="M46.77,180.46c7.86-0.95,14.23,1.88,21.7,3.44c0.8,0.17,0.96-0.93,0.36-1.27c-6.42-3.72-15-4.53-22.22-3.43
	C45.8,179.32,45.95,180.56,46.77,180.46"/>
<path d="M48.5,175.26c6.05,0.19,11.39,2.05,17.1,3.82c0.97,0.3,1.51-0.94,0.63-1.44c-5.23-2.96-11.64-3.67-17.53-3.74
	C47.83,173.89,47.61,175.23,48.5,175.26"/>
<path d="M126.96,178.51c0.53-10.37,11.58-9.34,11.28,0.27C137.94,188.4,126.58,186.04,126.96,178.51"/>
<path d="M98.5,312.01c-6.6-13.84-11.7-27.53-12.74-43c-0.55-8.25-0.7-17.71,2.8-25.4c4.9-10.76,17.62-13.54,25.16-3.86
	c9.65,12.4,7.44,30.97,2.95,44.97c-2.03,6.31-5.22,12.08-9.7,16.99c-2.4,2.63-9.52,6.32-9.65,10.29c-0.05,1.65,2.09,1.93,2.52,0.35
	c0.55-2.02,6.9-6.14,8.67-8.03c2.67-2.85,5.01-5.96,6.93-9.36c3.91-6.96,5.91-15.1,7.06-22.94c2-13.67,0.18-35.89-15.89-40.76
	c-16.66-5.05-23.13,15.52-23.48,27.88c-0.51,18.3,3.91,38.18,14.17,53.55C97.72,313.36,98.84,312.73,98.5,312.01"/>
<path d="M98.58,311.51c4.6-10.15,2.87-22.83,2.51-33.65c-0.49-14.55-4.16-30.88,2.13-44.51c0.68-1.48-1.58-2.43-2.31-1
	c-5.74,11.25-3.37,24.1-2.66,36.2c0.84,14.42,1.41,28.36-0.83,42.64C97.31,311.87,98.3,312.14,98.58,311.51"/>
<path d="M94.3,306.28c0.79-0.66,1.64-1.17,2.61-1.53c0.85-0.32,1.89-0.28,2.64-0.77c0.42-0.27,0.3-0.95-0.13-1.13
	c-0.97-0.4-2.32,0.13-3.23,0.54c-1.05,0.48-1.96,1.18-2.77,1.98C92.91,305.89,93.75,306.75,94.3,306.28"/>
<path d="M91.7,299.44c1.13-0.75,2.34-1.37,3.68-1.65c0.49-0.1,0.99-0.16,1.49-0.18c0.16-0.01,2.09-0.04,2.18,0.14
	c0.24,0.5,0.81,0.54,1.18,0.17c0.05-0.05,0.1-0.1,0.15-0.15c0.19-0.2,0.23-0.59,0.12-0.83c-0.72-1.52-3.21-1.31-4.61-1.1
	c-1.99,0.31-3.75,1.17-5.17,2.59C90.12,299.03,91.07,299.87,91.7,299.44"/>
<path d="M89.87,293.42c3.41-1.23,6.71-1.23,10.23-0.54c-0.19-0.48-0.39-0.96-0.58-1.44c0.02,0,0.05,0,0.07,0
	c-0.73,0.12-0.75,0.99-0.19,1.32c0.44,0.26,0.69,0.22,1.16,0.07c0.7-0.22,0.74-1.43,0.02-1.65c-3.75-1.16-7.72-0.71-11.24,0.96
	C88.54,292.52,89.03,293.72,89.87,293.42"/>
<path d="M86.93,288c2.07-0.42,4.18-0.77,6.29-0.89c2.43-0.15,4.25,0.47,6.55,1.02c0.57,0.14,1.03-0.67,0.65-1.1
	c-3.1-3.54-10.05-1.5-13.79-0.16C86.01,287.08,86.27,288.13,86.93,288"/>
<path d="M86.92,283.78c4.46-0.34,8.21-1.17,12.56,0.32c0.69,0.24,1.31-0.65,0.68-1.14c-3.76-2.96-9.24-1.24-13.38-0.25
	C86.11,282.86,86.21,283.83,86.92,283.78"/>
<path d="M86.8,278.34c2.18-0.38,4.43-0.42,6.63-0.15c1.99,0.24,3.85,0.97,5.82,1.28c0.56,0.09,0.95-0.72,0.45-1.06
	c-3.67-2.51-8.94-2.17-13.05-1.18C85.96,277.39,86.07,278.47,86.8,278.34"/>
<path d="M84.82,272.96c1.93,0.64,3.99,0.28,6,0.47c2.85,0.27,5.53,1.04,8.17,2.1c0-0.5,0.01-0.99,0.01-1.49
	c-0.16,0.08-0.32,0.16-0.48,0.24c-0.55,0.27-0.54,1.2,0.16,1.26c0.17,0.02,0.34,0.03,0.51,0.05c0.9,0.08,1.28-1.15,0.43-1.54
	c-2.25-1.03-4.6-1.74-7.06-2.06c-2.47-0.32-5.04,0.33-7.46-0.07C84.52,271.83,84.23,272.77,84.82,272.96"/>
<path d="M84.44,268.83c2.64-0.08,5.31-0.2,7.94,0.08c2.34,0.25,4.43,1.12,6.67,1.73c0.64,0.17,0.91-0.75,0.48-1.12
	c-3.94-3.32-10.55-2.48-15.23-1.75C83.6,267.87,83.76,268.85,84.44,268.83"/>
<path d="M84.6,264.08c2.12,0.17,4.25,0.29,6.37,0.53c1.06,0.12,2.11,0.27,3.15,0.48c0.7,0.14,3.56,1.2,3.58,0.43
	c-0.01,0.45,0.31,0.91,0.82,0.83c0.03,0,0.06-0.01,0.08-0.01c0.57-0.09,0.94-0.8,0.54-1.28c-1.09-1.31-4.27-1.63-5.83-1.84
	c-2.89-0.4-5.8-0.35-8.71-0.21C84,263.03,83.99,264.03,84.6,264.08"/>
<path d="M85.01,259.73c2.33,0.23,4.68,0.02,7.02,0.18c2.34,0.16,4.54,0.89,6.85,1.15c0.58,0.06,1.02-0.75,0.48-1.11
	c-3.73-2.51-10.14-2.09-14.34-1.13C84.54,258.93,84.45,259.68,85.01,259.73"/>
<path d="M85.6,253.98c2.1-0.01,4.18,0,6.27,0.26c0.91,0.12,1.82,0.27,2.72,0.47c0.3,0.07,0.6,0.14,0.9,0.21
	c0.76,0.43,1.38,0.25,1.87-0.55c-0.38,0.03-0.63,0.56-0.36,0.86c0.02,0.02,0.04,0.05,0.07,0.07c0.23,0.25,0.53,0.29,0.83,0.12
	c0.04-0.02,0.08-0.05,0.12-0.07c0.3-0.18,0.32-0.65,0.13-0.91c-0.91-1.22-3.76-1.42-5.14-1.61c-2.5-0.35-5.05-0.34-7.53,0.15
	C84.82,253.1,84.97,253.98,85.6,253.98"/>
<path d="M86.02,248.6c2.23-0.08,4.43,0.08,6.62,0.49c1.92,0.36,3.76,1.22,5.69,1.43c0.51,0.06,0.84-0.62,0.4-0.94
	c-3.37-2.51-8.86-2.42-12.84-1.95C85.25,247.7,85.39,248.62,86.02,248.6"/>
<path d="M88.26,243.41c1.85,0.13,3.66,0.31,5.46,0.74c1.58,0.37,3.1,1.26,4.72,1.21c0.36-0.01,0.58-0.53,0.33-0.79
	c-1.1-1.21-2.92-1.52-4.48-1.86c-1.98-0.42-4.02-0.56-6.03-0.39C87.65,242.37,87.63,243.37,88.26,243.41"/>
<path d="M91.55,238.23c2.54,0.62,4.8,1.61,7.25,2.45c0.01-0.49,0.01-0.99,0.01-1.48c-0.06,0.02-0.13,0.04-0.19,0.06
	c-0.39,0.13-0.54,0.7-0.28,1.01c0.04,0.05,0.09,0.1,0.13,0.16c0.82,0.97,2.13-0.54,0.96-1.22c-2.2-1.28-5.23-1.84-7.74-1.98
	C91.03,237.18,90.91,238.07,91.55,238.23"/>
<path d="M96.97,235.1c0.84,0.21,1.62,0.56,2.31,1.1c0.6,0.47,1.01,1.08,1.75,1.34c0.36,0.13,0.76-0.13,0.71-0.53
	c-0.22-1.87-3.02-2.86-4.59-3.19C96.32,233.65,96.17,234.91,96.97,235.1"/>
<path d="M100.67,302.03c1.3-0.09,2.6-0.12,3.91-0.02c1.07,0.08,2.18,0.42,3.24,0.23c0.46-0.08,0.77-0.77,0.3-1.07
	c-1.98-1.26-5.4-0.82-7.6-0.38C99.71,300.93,99.85,302.08,100.67,302.03"/>
<path d="M100.67,296.6c1.91,0.01,3.83,0.13,5.72,0.42c1.68,0.26,3.32,0.9,5,1.02c0.55,0.04,1.05-0.75,0.47-1.1
	c-3.13-1.9-7.79-1.86-11.33-1.4C99.82,295.62,100,296.6,100.67,296.6"/>
<path d="M101.09,292.5c4.04,0.22,7.97,0.87,11.95,1.55c1,0.17,1.16-1.29,0.21-1.52c-3.97-0.99-8.08-1.26-12.16-1.25
	C100.4,291.27,100.39,292.46,101.09,292.5"/>
<path d="M101.24,288.47c2.45-0.21,4.88-0.18,7.32,0.09c2.15,0.24,4.26,0.98,6.4,1.1c0.64,0.04,0.86-0.76,0.3-1.07
	c-3.97-2.21-9.81-1.83-14.16-1.21C100.39,287.48,100.54,288.52,101.24,288.47"/>
<path d="M101.5,284.14c5.17-0.48,10.28,0.27,15.19,1.92l0.21-1.5c-0.28,0.05-0.56,0.11-0.83,0.16c-0.49,0.1-0.62,0.76-0.14,0.98
	c0.25,0.12,0.51,0.24,0.76,0.36c0.92,0.43,1.57-1.1,0.63-1.45c-5.22-1.93-10.47-2.35-15.96-1.61
	C100.62,283.11,100.76,284.21,101.5,284.14"/>
<path d="M101.08,280.25c6.37-0.01,12.06,0.49,18.23,2.1c0.84,0.22,1.22-1.16,0.41-1.47c-5.82-2.2-12.67-2.98-18.77-1.62
	C100.32,279.4,100.44,280.25,101.08,280.25"/>
<path d="M100.95,276.07c5.42-2.85,12.53-0.98,18.02,0.67c0.64,0.19,1.36-0.69,0.67-1.11c-5.08-3.13-14.08-3.71-19.25-0.55
	C99.84,275.42,100.37,276.38,100.95,276.07"/>
<path d="M100.21,269.8c3.37-0.53,6.73-0.61,10.12-0.12c1.88,0.27,3.74,0.71,5.54,1.32c0.46,0.17,0.93,0.34,1.39,0.51
	c1.08,0.7,2.25,0.82,3.51,0.37c-0.26-0.36-0.93-0.22-0.96,0.25c0,0.03,0,0.07-0.01,0.1c-0.02,0.32,0.17,0.59,0.49,0.65
	c0.05,0.01,0.09,0.02,0.14,0.03c0.51,0.1,0.83-0.45,0.69-0.88c-0.71-2.18-5.62-2.92-7.66-3.38c-4.47-1.02-8.93-0.94-13.41-0.12
	C99.23,268.67,99.38,269.92,100.21,269.8"/>
<path d="M100.39,266.05c7.57-0.83,14.5,0.38,21.78,2.28c0.88,0.23,1.23-1.17,0.43-1.51c-7.06-3.01-14.89-3.29-22.39-2.17
	C99.31,264.78,99.48,266.15,100.39,266.05"/>
<path d="M99.65,261.99c8.12-1.25,14.96,0.41,22.79,2.06c0.78,0.16,0.98-0.94,0.36-1.27c-6.95-3.75-15.78-3.6-23.32-2.17
	C98.6,260.78,98.76,262.13,99.65,261.99"/>
<path d="M99.19,257.26c7.6-0.73,14.5,0.55,21.96,1.42c0.71,0.08,1.03-0.95,0.35-1.23c-6.95-2.83-15.19-2.56-22.47-1.42
	C98.25,256.16,98.4,257.33,99.19,257.26"/>
<path d="M99.01,252.1c7.57-0.67,14.53,0.27,21.96,1.44c1.08,0.17,1.16-1.61,0.01-1.52c-0.12,0.01-0.23,0.02-0.35,0.03
	c-0.56,0.04-0.66,0.75-0.3,1.08c0.09,0.08,0.18,0.17,0.27,0.25c0.26-0.43,0.52-0.87,0.78-1.31c-7.11-2.53-15.18-2.52-22.53-1.21
	C98.06,251.01,98.21,252.17,99.01,252.1"/>
<path d="M99.98,247.48c6.42-0.97,12.61-0.4,18.96,0.71c1.02,0.18,1.15-1.29,0.22-1.55c-6.34-1.78-12.92-1.57-19.34-0.39
	C99.04,246.39,99.18,247.6,99.98,247.48"/>
<path d="M99.77,241.63c6.11-0.57,11.84,0.23,17.78,1.55c0-0.6,0.01-1.19,0.01-1.79c-0.15,0.03-0.31,0.05-0.46,0.08
	c-0.76,0.12-0.81,1.06-0.2,1.41c0.14,0.08,0.28,0.16,0.42,0.24c1.01,0.57,1.83-1.29,0.72-1.65c-5.95-1.97-12.28-2.13-18.44-1.23
	C98.7,240.36,98.87,241.71,99.77,241.63"/>
<path d="M101.53,238.23c4.33,0.04,8.6,0.56,12.91,0.94c-0.19-0.47-0.38-0.95-0.57-1.42c0.05-0.03,0.1-0.06,0.15-0.09
	c-0.45,0.03-0.61,0.51-0.51,0.87c0.02,0.08,0.04,0.15,0.07,0.23c0.13,0.43,0.69,0.58,1.06,0.44c0.09-0.03,0.17-0.06,0.26-0.09
	c0.85-0.31,0.62-1.55-0.21-1.69c-4.33-0.74-8.77-0.73-13.15-0.6C100.75,236.85,100.73,238.22,101.53,238.23"/>
</svg>
