<?xml version="1.0" encoding="utf-8"?>
<!-- Generator: Adobe Illustrator 24.3.0, SVG Export Plug-In . SVG Version: 6.00 Build 0)  -->
<svg version="1.1" id="Calque_1" xmlns="http://www.w3.org/2000/svg" xmlns:xlink="http://www.w3.org/1999/xlink" x="0px" y="0px"
	 viewBox="0 0 130 162.5" style="enable-background:new 0 0 130 162.5;" xml:space="preserve">
<g>
	<path d="M128.8,32.7c0.5-3.7,0.2-8.1-3.5-9.4C121.5,22,116,23,111,25.1c-6.5,2.7-12.5,7.2-18.3,11.6c-0.7-5.2-1.8-10.3-3.3-15.4
		c-1.3-4.2-3.6-9.2-7.7-10.7c-4.1-1.5-8.9-0.4-12.6,2c-12.4,7.9-18.7,32.4-37.2,40.8c-4,1.8-8.3,2.7-12,5
		c-4.7,2.9-7.8,7.6-10.8,12.1c-4.6,7-9.5,15.1-7.7,23.3c1.6,7.4,8.5,12.7,15.9,14.7c7.3,1.9,15.1,1.1,22.6,0.1
		c8.1-1.1,16.3-2.4,24.3-3.8c-2.9,3.4-5.8,8.3-4,13.3c2.8,7.5,12.1-6.9,14.9-11.4c0.5-0.8,1.3-1.3,2.3-1.4c0.5-0.1,1.2-0.1,1.9-0.3
		c-2.1,5.2-6.1,5.5-5.1,8c0.4,1,1.3,1.3,6.9,4.2c0.1,0.1,0.2,0.1,0.3,0c0.3-0.1,0.3-0.5,0-0.6c-5.9-3.1-7.6-3.5-6.3-5.2
		c0.3-0.4,0.8-0.8,1.2-1.2c1.7-1.4,3-3.3,3.7-5.4c1.8-0.3,4-0.9,6.2-1.9c3.7,2.5,6.7-0.7,7.9,1.3c0.5,0.9-0.2,2.3-1.8,8.2
		c-0.1,0.2,0.1,0.4,0.3,0.4c0.2,0,0.3-0.1,0.3-0.3c1.9-7.1,2.3-7.7,1.7-8.8c-1-1.8-3.5-0.8-4.6-0.7c-1.1,0.1-2.2-0.1-3.1-0.7
		c2.9-1.5,5.7-3.7,7-7.1c0,0,3.7,4,5.7-0.4c0.6-1.3,1-2.4,1.3-3.2c0.2,0,7.3-1.2,10.3-1.6c4.3-0.6,7.5,1.5,7.6,1.6
		c0.5,0.5,0.6,1,0.6,1c0,0.2,0.2,0.3,0.3,0.4c0.1,0,0.2,0,0.2,0c0.3-0.1,0.4-0.3,0.4-0.6c0-0.1-0.2-0.8-0.9-1.5
		c-0.1-0.1-3.9-2-8.3-1.4c-3,0.4-10,1.6-10.1,1.6c0.1-0.4,0.2-0.7,0.2-1.1c1.5-0.5,3.7-1.2,8-2.8c2.6-1,7.5-4.3,6.7-7
		c-0.1-0.4-0.6-0.4-0.8-0.2c-0.1,0.1-0.2,0.3-0.1,0.5c0,0,0.1,0.5-0.1,1.2c0,0.2-1.9,3.5-5.9,5.1c-4.1,1.6-6.2,2.2-7.8,2.8
		c-0.1-0.8-0.6-1.2-1.6-1.4C113.5,74.3,126,52.9,128.8,32.7z M118.3,27.8c1.7-0.2,4.3,0.5,4.6,1.8c0.2,1-0.8,3.7-7.3,1.7
		c-0.5-0.1-0.8-0.2-0.9-0.6C114.4,29.5,116.4,28.1,118.3,27.8z M122.3,38.2c1,0.8,0.7,2.4,0.2,3.9c-1.6,5.3-3.5,10.7-5.8,16.1
		c-0.5,1.1-1,2.2-1.7,3.3c-0.8,1.1-2.8,1.3-2.7,0.2c0.2-1.2,0.3-2.4,0.5-3.5c0.3-2.6,2-12.7-2.4-17.1
		C108.5,39,119.9,36.3,122.3,38.2z M99.6,35.6c2-1.7,4.7-2.7,7.7-2.9c6.1-0.3-6.1,9-8.2,5.3C98.5,37,98.8,36.3,99.6,35.6z
		 M93.7,48.3C93.7,48.3,93.7,48.3,93.7,48.3c8.3-5.3,14.5-9.2,17-2.8c0.9,2.1,1.2,4.4,1.1,6.8c-0.2,5.2-4.9,1.6-11.7,7.9
		c-0.8,0.7-1.4,1.5-2.1,2.3c-0.6,0.8-2,0.9-2,0.1c0.1-1.8-0.4-3.5-1.3-5c-0.3-0.5-0.8-1-1.2-1.5v0C93.8,53.6,93.8,51,93.7,48.3z
		 M82.8,26.8c1.1,0,2.2,0.2,3,0.8c1.4,1,1.8,2.8,2.1,4.4c1,6.1,1.7,12.2,2.1,18.3c0.1,1.2,0.1,2.5-0.1,3.7c0,0,0,0,0,0
		c-0.2,1.3-2,1.5-2.4,0.2c-2.3-7.7-5.2-18.5-11.5-23.6C73.7,28.9,79.3,26.8,82.8,26.8z M79.1,14.9c2.8,1.2,2.9,3.2,1.9,4
		c-0.7,0.5-1.7,0.4-2.5,0.3c-1.8-0.3-0.2,0.2-3.2-0.7C72.1,17.5,74.1,12.8,79.1,14.9z M71.8,23.5c0,1.5-5.7,7-7.1,4.7
		C63,25.4,71.8,21.2,71.8,23.5z M61.5,42c2.1-2.8,4.6-5.5,7.1-7.7c3.8-3.5,6.9-2.4,9.9,1.7c1.8,2.4,3.2,5,4.3,7.8
		c1.4,3.8-1.1,4-2.2,4.3c-3.2,0.9-5.1,4.1-5.9,7.4c-0.2,0.9-1.5,1-1.8,0.1c-0.8-2.1-2-4-3.5-5.7c-1.9-2-4.2-3.6-6.8-4.5
		C61.1,44.8,60.6,43.1,61.5,42z M55.1,36.7c3-5.6,10.4-3.6,2.1,1.5c-0.1,0.1-0.3,0.1-0.4,0.1C55.8,38.1,54.4,37.9,55.1,36.7z
		 M48.1,43.8c1.5-1.8,4.7-1.3,4.1,0.1c-0.1,0.2-0.2,0.3-0.4,0.4c-1.1,0.8-1.7,1.9-2.7,2.8l-0.4,0.2c-0.4,0.2-0.9,0-1.1-0.4
		c0,0,0,0,0,0C47.2,45.8,47.3,44.6,48.1,43.8z M45.1,56.2c3.4-6.5,8.9-9.2,13.6-8.8c7.8,0.7,15.4,10.3,17.1,20
		c0.8,4.7,0.4,9.6,0.1,14.4c-0.1,1.3-1.8,1.6-2.3,0.4c-5.1-11.8-15.8-19.2-26.4-21.6C45.2,60.1,44.2,58,45.1,56.2z M36.3,55.4
		c0.5-0.3,0.9-0.4,1.4-0.2c1.3,0.4,2.7,1.7,2.1,2.6c-0.3,0.6-1.7,0.9-2.4,0.8c-1.1-0.2-2-1.6-1.9-2.2C35.6,56.1,36,55.7,36.3,55.4z
		 M29.7,62.5c1.6,0,2.6,1.5-0.8,4.7c-0.3,0.3-0.5,0.5-0.9,0.5c-0.4,0-0.8-0.2-1.1-0.5C25.2,65.6,27.8,62.5,29.7,62.5z M35.5,76.8
		c4.4,2,8.2,6,17.3,7.9c2.4,0.5,4.8,0.8,7.1,1.7c6.6,2.7,9.7,11.2,6.5,11.1c-15.9-0.6-24.6-15.5-46.3-9c-1,0.3-1.9-0.6-1.5-1.6
		C22.1,78.2,26.8,72.8,35.5,76.8z M22.2,72.8c1.5,4.8-4.3,3.3-4.3,1.6C17.8,71.2,21.2,69.5,22.2,72.8z M12.6,91.4
		c-0.5,1.3-0.3,2.4-0.7,3.7l-0.3,0.4c-0.3,0.4-1,0.5-1.5,0.3c-2.9-1.2-2.8-4.1,0.4-5.3C12.2,89.9,12.9,90.6,12.6,91.4z M16.3,82.1
		c-3.2,3.9-0.9,5.4-4.3,1.1c-0.7-0.9-0.2-2.7,0.6-2.8c0.9-0.2,2,0.2,3.6,0.6C16.5,81.1,16.6,81.7,16.3,82.1z M68.8,100.3
		c-0.1,0.1-0.5,0.4-1.3,1c-1.5,0-5.3-1-17.3,1.3c-8.5,1.6-17.1,2.2-25.7,1.8c-6.6-0.3-7.7-2.7-7.7-7.2c0-5.5,1.2-8,9-8.3
		c13.3-0.5,14.8,0.9,25,6.1c3.8,1.9,7.8,3.7,12.1,3.7C65.4,98.7,69.2,98,68.8,100.3z M71.7,96.1c-4.8-5-4.6-10.5-17.2-14.3
		c-6.4-1.9-13.6-2.9-18.9-7.5c-2.8-2.5-2.4-7.1,0.9-9.1c8.2-4.9,18.3-1.7,25.9,5.1c3.5,3.2,6.4,6.9,9.2,10.7
		c2.5,3.4,4.9,7.1,5.5,11.2C75.1,93.3,73.2,94.5,71.7,96.1z M82.6,90.3c-1.5,0.4-2.9,0.9-4.4,1.5c-2-34-3-37,0-41
		c0.5-0.7,1.3-1.4,2.1-1.6c0.9-0.3,1.9-0.1,2.5,0.6c0.9,1,0.5,2.7,1.1,3.9c0.6,1.2,2,1.7,3.1,2.5c1.6,1.2,2.6,3.3,2.8,5.3
		C90.6,66.6,86.6,81.6,82.6,90.3z M87.7,86c3.2-7.7,4.9-16.5,5.7-24.7c4.4,8.4-1.4,17.2-5.4,24.3C87.9,85.8,87.8,85.9,87.7,86z
		 M96.1,91.8c-0.4-1.5,3.1-2.5,3.5-1C100,92.3,96.5,93.3,96.1,91.8z M96.2,88.5c-0.4,0.1-0.8,0.2-1.3,0.2c0,0-2.7-0.1-6.4,0.4
		c9.2-21.7,11.6-30.4,18.6-32c1-0.2,2.1-0.1,2.4,0.5c0.5,0.9-0.7,2.4-0.5,3.5c0.2,2,4.6,1.7,2.8,6.9C110.2,72.6,99.8,84.7,96.2,88.5
		z"/>
</g>
</svg>
