<?xml version="1.0" encoding="utf-8"?>
<!-- Generator: Adobe Illustrator 24.3.0, SVG Export Plug-In . SVG Version: 6.00 Build 0)  -->
<svg version="1.1" id="Calque_1" xmlns="http://www.w3.org/2000/svg" xmlns:xlink="http://www.w3.org/1999/xlink" x="0px" y="0px"
	 viewBox="0 0 512 640" style="enable-background:new 0 0 512 640;" xml:space="preserve">
<path d="M425.5,255.3c-4.2-3-8.5-5.7-13.1-8l-78.7,115.5c2.4,1.7,4.9,3.4,7.5,5.1c9.4,6.3,18.8,12,28,16.9l75.6-110.9
	C439.1,266.9,432.6,260.7,425.5,255.3z"/>
<path d="M132.5,186c-3.5-2-7.4-3-11.3-2.9c-4.9,0.1-9.7,1.2-14.1,3.3c-0.6,0.3-1.2,0.6-1.8,0.8c8.5,9.5,9,25.9,0.6,40.5
	c-4.2,7.6-10.7,13.7-18.6,17.5c-3.8,1.8-7.9,2.7-12,2.7c-1,0-2-0.1-3-0.2c1.1,9.5,5.2,17.3,12.2,21.3s16,3.9,25.4-0.4
	c10.3-4.7,19.7-13.6,26.3-25.2C149.3,221,147.6,194.6,132.5,186z"/>
<path d="M421.3,405.6l50.8-76.1c-3.9-14.6-9.9-28.6-17.6-41.5l-71,104.1C395.6,397.7,408.3,402.3,421.3,405.6z"/>
<path d="M192,232c-4.4,0.5-8.3-2.7-8.8-7.1c-0.2-1.9,0.3-3.8,1.3-5.4l18.6-27.4c-1-0.1-2.1-0.1-3.1-0.1c-14.3,0-28.1,4.8-39.3,13.5
	c0,0.4,0.1,0.7,0.1,1.1c1.4,14.6-2.4,30.5-10.7,44.9c-3.6,6.2-7.9,11.9-12.9,17c1.2,6.2,3.4,12.2,6.4,17.8l1.6-2.5
	c2.3-3.7,7.3-4.9,11-2.5c3.7,2.3,4.9,7.3,2.5,11l0,0l-5,8c6.6,6.8,14.5,12.1,23.4,15.5l7.7-15.3c2-3.9,6.8-5.5,10.8-3.5
	c3.9,2,5.5,6.7,3.5,10.6l-6,12c10.5,1.2,21.1-0.3,30.9-4.3V296c0-4.4,3.6-8,8-8s8,3.6,8,8v9.9c26.5-21.2,31.8-59.4,12.1-87
	C234.2,225.1,214.2,229.5,192,232z"/>
<path d="M80.8,230.7c4.8-2.4,8.8-6.2,11.4-10.9c5.7-9.8,4.6-19.7,0.1-23c-4.5,4.4-8.3,9.3-11.4,14.7c-3.6,6.3-6.2,13.1-7.7,20.2
	C76,232.5,79,231.5,80.8,230.7z"/>
<path d="M279.6,248.3c0.2,2.6,0.4,5.1,0.4,7.7c0,16.8-5.3,33.2-15.1,46.8c3.3,3.5,7.3,7.6,12.1,12.3l53.6-78.5
	C313.2,238.9,296.2,242.8,279.6,248.3z"/>
<path d="M473.5,410.1c4-0.4,7.1-3.8,7.1-7.8c0.3-17.1-0.9-34.2-3.7-51.2L438.2,409C449.9,410.8,461.7,411.2,473.5,410.1z"/>
<path d="M351,234.9l-62.3,91.4c9.2,8.5,20,17.8,32,27L397.3,241C383.5,236.5,368,234.5,351,234.9z"/>
<path d="M324.6,143.3c20.3-35.1,21.1-75.6,18.1-103.4c-0.3-3.3-2.7-6.1-6-6.8c-0.7-0.2-1.4-0.3-2.1-0.3c-2.6,0-5.1,1.3-6.5,3.5
	L207.9,213.6C263.8,204.1,303,180.5,324.6,143.3z"/>
<path d="M69.5,199.5c3.1-4.7,6.6-9.1,10.5-13.1c-14.2-6.2-27.5-6.2-38.1,0.1C24.5,196.9,16,222.2,16,264c0,4.4,3.6,8,8,8s8-3.6,8-8
	c0-43.8,9.8-58.8,18.1-63.7C56.1,196.7,63.4,197.5,69.5,199.5z"/>
<path d="M120.8,353l24.3-38.9c-4.1-3.8-7.7-8.1-10.9-12.7l-29,46.4c-1.3,2-1.6,4.5-0.8,6.8l8,24c1.4,4.2,5.9,6.5,10.1,5.2
	s6.5-5.9,5.2-10.1c0,0,0-0.1,0-0.1L120.8,353z"/>
<path d="M343.2,484.4l-56-112c-0.8-1.5-2-2.8-3.6-3.6L240,347.1v-21.8c-5.1,2.9-10.4,5.3-16,7.1V352c0,3,1.7,5.8,4.4,7.2L274,382
	l54.8,109.6c1.9,4,6.7,5.6,10.7,3.7c4-1.9,5.6-6.7,3.7-10.7C343.2,484.5,343.2,484.5,343.2,484.4L343.2,484.4z"/>
<path d="M168.9,368l16.7-33.3c-5.3-1-10.6-2.5-15.6-4.6l-17.2,34.3c-1.1,2.3-1.1,4.9,0,7.2l32,64c1.9,4,6.7,5.6,10.7,3.7
	s5.6-6.7,3.7-10.7c0,0,0-0.1-0.1-0.1L168.9,368z"/>
</svg>
