<?xml version="1.0" encoding="utf-8"?>
<!-- Generator: Adobe Illustrator 24.3.0, SVG Export Plug-In . SVG Version: 6.00 Build 0)  -->
<svg version="1.1" id="Calque_1" xmlns="http://www.w3.org/2000/svg" xmlns:xlink="http://www.w3.org/1999/xlink" x="0px" y="0px"
	 viewBox="0 0 142.6 135.4" style="enable-background:new 0 0 142.6 135.4;" xml:space="preserve">
<g>
	<g>
		<path d="M60.7,50.4c-0.3-0.3-0.5-0.5-0.8-0.8c0,0,0,0,0,0c0,0-0.1,0-0.1,0.1c-0.2,0.1-0.3,0.3-0.5,0.4c0,0,0,0,0,0
			C59.8,50.2,60.3,50.3,60.7,50.4C60.8,50.5,60.7,50.4,60.7,50.4z M79.9,49.6C79.9,49.6,79.9,49.5,79.9,49.6l-0.4,0.3
			c-0.1,0.1-0.3,0.3-0.4,0.4c0.1,0,0.2,0,0.2-0.1c0.2-0.1,0.5-0.1,0.7-0.2c0.1,0,0.2-0.1,0.4-0.1C80.2,49.8,80.1,49.7,79.9,49.6z"/>
	</g>
</g>
<g>
	<g>
		<path d="M79.8,29.7l-0.3,0.4c-0.1,0.1-0.3,0.3-0.4,0.4c0.1,0,0.2,0,0.2-0.1c0.1-0.1,0.2-0.2,0.3-0.3C79.7,30,79.8,29.9,79.8,29.7
			C79.9,29.8,79.8,29.8,79.8,29.7z M60.7,30.6c-0.4-0.1-0.8-0.2-1.3-0.4c0,0-0.1,0-0.1,0c0,0,0,0,0,0C59.7,30.4,60.3,30.5,60.7,30.6
			C60.7,30.7,60.7,30.6,60.7,30.6z"/>
	</g>
	<g>
		<path d="M99.9,31.5c-6.2-3.7-14-2.8-19.4-1.4c-0.2,0-0.3,0.1-0.5,0.1c-0.3,0.1-0.6,0.2-0.8,0.2c0,0,0.1,0,0.1-0.1
			c-0.1,0-0.2,0-0.2,0.1c0.1-0.1,0.3-0.3,0.4-0.4l0.3-0.4c0,0,0.1,0,0.1,0.1c0,0,0.1,0,0.1-0.1c1.9-2.3,3.1-5.2,3.1-8.4
			c0-4.2-2-7.9-5-10.3c2.8-3.6,6.9-5.3,10.2-4.2c1.9,0.6,3.2,2,4,3.1c0.6,0.9,1.9,1.1,2.8,0.5c0.9-0.6,1.1-1.9,0.5-2.8
			c-1.1-1.6-3.1-3.7-6.1-4.6c-5.2-1.6-11.1,0.8-15,6.1c-1.4-0.5-2.9-0.8-4.5-0.8c-1.6,0-3.2,0.3-4.6,0.8c-3.8-5.3-9.8-7.7-15-6.1
			c-3,0.9-5,3-6.1,4.6c-0.6,0.9-0.4,2.2,0.5,2.8c0.9,0.6,2.2,0.4,2.8-0.5c0.8-1.1,2.1-2.5,4-3.1c3.4-1,7.5,0.7,10.3,4.3
			c-3,2.4-5,6.1-5,10.2c0,3.2,1.2,6.2,3.1,8.4l0,0c0.3,0.3,0.6,0.6,0.9,1c-0.1,0-0.2,0-0.2-0.1c0,0,0,0,0.1,0.1
			c-0.5-0.1-1-0.3-1.5-0.5c0,0,0,0,0,0c-0.2,0-0.4-0.1-0.5-0.1c-5.4-1.3-13-2.1-19,1.5c-7.9,4.8-12.6,12-12.6,18.3
			c0,2.1,0.5,4.1,1.6,5.9c2.4,4.1,8.3,7,14.1,7.2c0.2,0,0.4,0,0.6,0c2,0,3.8-0.3,5.5-0.9c0,0.4,0.1,0.8,0.2,1.2
			c0.3,2.4,0.9,4.8,1.6,7c3,9.1,8.9,15.8,16,17.5l2.2,8.3c0.2,0.9,1,1.5,1.9,1.5c0.9,0,1.7-0.6,1.9-1.5l2.3-8.8
			c6.3-2.2,11.6-8.5,14.3-16.9c0.7-2.1,1.2-4.3,1.6-6.5c0.1-0.6,0.2-1.1,0.2-1.7c1.6,0.5,3.3,0.8,5.1,0.8c0.2,0,0.4,0,0.6,0
			c2.9-0.1,5.9-0.9,8.3-2.2c2.5-1.3,4.6-3,5.8-5.1C115.3,48.5,110.5,37.9,99.9,31.5z M65.5,37.4c1.1-0.1,2.3-0.2,3.5-0.2
			c1.8,0,3.6,0.2,5.2,0.4c1,2.8,2.9,7.5,5.6,12.4C76.9,51.2,73.3,52,69,52c-3.6,0-6.8-0.6-9.4-1.4C62.5,45.3,64.5,40.3,65.5,37.4z
			 M51.2,55.9c-0.8,0.8-1.7,1.4-2.6,1.9c-2.1,1-4.2,1.2-5.7,1.2c-4.5-0.1-9.1-2.4-10.8-5.3C29,48.5,33.4,40,41.8,35
			c3-1.8,6.5-2.2,9.9-2c1.5,0.1,3,0.3,4.4,0.6c1.6,0.3,3,0.7,4.2,1.1c0.7,0.2,1.2,0.4,1.7,0.6c-0.3,0.8-0.6,1.8-1.1,3
			c-1.1,2.9-2.8,6.7-5,10.7c-1,1.7-2,3.5-3.2,5.2c-0.1,0.1-0.1,0.2-0.2,0.3C52.1,55,51.7,55.5,51.2,55.9z M76.3,82.3
			c-1.4,0.9-3,1.5-4.6,1.7c-0.6,0.1-1.1,0.1-1.7,0.1c-0.1,0-0.2,0-0.2,0c-1.5,0-3-0.3-4.4-1c-3.8-1.6-7.1-5.2-9.4-10.1
			C59.7,74.7,64.5,76,70,76c0,0,0,0,0,0c5.5,0,10.3-1.3,13.9-2.8C82,77.3,79.4,80.4,76.3,82.3z M87,62.7c-0.5,0.1-0.9,0.3-1.4,0.6
			C83,65,77.5,68,70.1,68c0,0,0,0,0,0c-7.7,0-13.3-3.2-16-5.1c-0.3-0.2-0.7-0.4-1.1-0.5c-0.1-0.8-0.2-1.6-0.2-2.4
			c0.8-0.6,1.6-1.3,2.2-2.2c4,1.7,8.8,2.6,14.1,2.6c5.8,0,11.1-1.2,15.3-3.1c0.9,1.1,1.9,2.1,3,2.9C87.2,61,87.1,61.9,87,62.7z
			 M107.5,53.7c-1.7,2.9-6.4,5.2-10.8,5.3c-1.3,0-3.3-0.1-5.3-1c-1.3-0.6-2.5-1.4-3.6-2.7c-0.2-0.2-0.3-0.4-0.4-0.6
			c-0.1-0.1-0.1-0.2-0.2-0.3c-1.4-2-2.7-4.2-3.8-6.2c-1.9-3.5-3.3-6.8-4.4-9.4c-0.6-1.4-1-2.6-1.3-3.5c0.5-0.2,1.2-0.4,2-0.7
			c1.2-0.4,2.7-0.8,4.3-1.1c0.9-0.2,1.8-0.3,2.7-0.4c3.8-0.4,8-0.2,11.3,1.8c6.5,3.9,10.7,10,10.7,15
			C108.5,51.3,108.2,52.5,107.5,53.7z"/>
	</g>
</g>
</svg>
