<?xml version="1.0" encoding="utf-8"?>
<!-- Generator: Adobe Illustrator 24.3.0, SVG Export Plug-In . SVG Version: 6.00 Build 0)  -->
<svg version="1.1" id="Calque_5" xmlns="http://www.w3.org/2000/svg" xmlns:xlink="http://www.w3.org/1999/xlink" x="0px" y="0px"
	 viewBox="0 0 519.4 390.35" style="enable-background:new 0 0 519.4 390.35;" xml:space="preserve">
<path d="M279.17,323.08c-13.24-27.53-4.89-59.09,4.37-86.45c5.3-15.64,11.11-31.23,14.19-47.5c2.86-15.1,2.86-30.44-0.58-45.44
	c-3.78-16.43-11.47-31.95-22.37-44.82c-1.47-1.73-4.39,0.29-2.91,2.03c9.71,11.46,16.78,24.94,20.79,39.41
	c4.11,14.87,4.63,30.35,2.06,45.53c-5.29,31.28-21.19,59.75-25.05,91.37c-1.95,15.91-0.86,32.45,6.18,47.07
	C276.82,326.33,280.16,325.13,279.17,323.08"/>
<path d="M272.46,304.06c-15.83-8.54-28.71-22.23-36.18-38.6c-3.82-8.36-6.41-17.2-9.67-25.78c-3.27-8.62-7.37-16.89-11.9-24.9
	c-5.11-9.05-10.77-17.76-16.42-26.47l-2.19,2.63c16.14,7.92,27.55,22.58,35.36,38.43c4,8.14,7.1,16.64,9.8,25.28
	c2.77,8.85,5.56,17.65,9.98,25.84c4.88,9.03,11.35,17.14,18.97,24.01c1.7,1.53,3.96-1.2,2.27-2.73c-6.92-6.23-12.8-13.53-17.4-21.63
	c-4.77-8.39-7.61-17.54-10.48-26.7c-5.32-16.98-12.41-33.84-24.06-47.52c-6.41-7.53-14.07-13.85-22.97-18.22
	c-1.63-0.8-3.1,1.22-2.19,2.63c10.25,15.79,20.58,31.71,27.43,49.33c3.4,8.76,6.02,17.82,9.87,26.41
	c3.67,8.19,8.54,15.79,14.54,22.47c6.81,7.58,14.82,13.9,23.79,18.74C273.01,308.38,274.46,305.14,272.46,304.06"/>
<path d="M272.62,282.98c0.39-4.73,3.87-8.21,7.41-11.01c4.22-3.34,8.69-6.34,11.32-11.19c-1.08-0.49-2.16-0.97-3.24-1.46
	c-1.8,5.33-3.29,10.92-5.63,16.04c-1.02,2.24-2.35,4.4-4.27,5.99c-0.88,0.72-1.85,1.33-2.92,1.72c-0.61,0.22-1.22,0.33-1.85,0.47
	c-0.27,0.05-0.53,0.12-0.78,0.21c-0.44,0.15-0.36,0.15,0.23,0.01c-1.69-1.54-3.95,1.19-2.27,2.73c0.9,0.83,1.81,1.04,2.97,0.7
	c1.28-0.38,2.58-0.58,3.8-1.16c2.68-1.26,4.87-3.35,6.47-5.82c1.8-2.78,2.91-5.86,3.97-8.98c1.18-3.49,2.35-6.97,3.53-10.46
	c0.72-2.15-2.13-3.49-3.24-1.46c-2.7,4.97-7.91,7.68-12.01,11.32c-3.49,3.1-6.58,6.94-6.99,11.76
	C268.93,284.66,272.43,285.26,272.62,282.98"/>
<path d="M277.23,251.62c-9.33-8.33-15.5-19.83-17.26-32.21c-0.97,0.51-1.93,1.02-2.9,1.53c5.48,3.7,11.27,7.63,14.87,13.31
	c3.59,5.66,4.24,13.39,2.45,19.77c-0.61,2.19,2.89,2.76,3.5,0.58c1.94-6.92,1.09-15.17-2.47-21.42
	c-3.68-6.46-10.07-10.9-16.09-14.96c-1.17-0.79-3.14-0.13-2.9,1.53c1.89,13.33,8.48,25.65,18.53,34.61
	C276.67,255.87,278.93,253.14,277.23,251.62"/>
<path d="M286.96,227.35c2.14-6.6,6.54-11.91,11.08-17.02c4.78-5.37,9.61-10.69,14.29-16.15c9.3-10.86,18-22.33,24.36-35.18
	c-1.08-0.49-2.16-0.97-3.24-1.46c-4.95,10.8-9.89,21.6-14.83,32.4c-2.44,5.33-4.76,10.8-7.99,15.71c-3.15,4.79-7.15,8.98-11.6,12.59
	c-2.43,1.97-4.98,3.78-7.61,5.45c-1.11,0.71-2.23,1.38-3.36,2.06c-0.53,0.32-1.47,0.99-1.94,0.98c-2.28-0.03-1.94,3.5,0.33,3.53
	c1.42,0.02,2.92-1.17,4.07-1.87c2.51-1.51,4.99-3.08,7.36-4.81c4.79-3.48,9.25-7.52,12.94-12.17c3.76-4.75,6.49-10.15,9.02-15.63
	c2.63-5.69,5.22-11.4,7.83-17.11c3-6.57,6.01-13.13,9.02-19.7c0.95-2.08-2.22-3.51-3.24-1.46c-6.43,12.98-15.32,24.47-24.74,35.4
	c-4.68,5.42-9.52,10.7-14.25,16.08c-4.42,5.03-8.64,10.42-10.74,16.87C283.03,228.03,286.25,229.52,286.96,227.35"/>
<path d="M294.48,194.89c-19.84-7.02-37.32-20.09-49.7-37.12c-3.53-4.85-6.63-10-9.25-15.39c-1.04,0.54-2.08,1.08-3.12,1.62
	c8.43,9.19,19.52,14.95,29.13,22.72c9.64,7.79,17.39,17.52,25.64,26.68c1.11,1.23,2.22,2.45,3.35,3.65
	c0.88,0.94,1.76,2.02,3.18,1.87c2.65-0.28,2.24-3.52,0.05-4.15c-0.53-0.15-1.36,0.15-1.65,0.62l-0.09,0.14
	c-1.21,1.9,1.5,4.19,2.73,2.27l0.09-0.14c-0.55,0.21-1.1,0.41-1.65,0.62c-0.33-0.24-0.66-0.48-0.99-0.72
	c0.02-0.45,0.03-0.89,0.05-1.34l-0.11,0.18c0.48-0.35,0.97-0.69,1.45-1.04c0.25-0.04-1.04-1.3-1.26-1.54
	c-0.67-0.73-1.34-1.46-2-2.19c-1.08-1.19-2.15-2.4-3.21-3.61c-2.13-2.42-4.24-4.85-6.38-7.25c-4.37-4.91-8.84-9.75-13.77-14.11
	c-10.02-8.87-22.53-14.76-31.63-24.68c-1.21-1.32-4.1-0.38-3.12,1.62c9.51,19.58,24.9,35.94,43.79,46.75
	c5.43,3.1,11.13,5.7,17.02,7.79C295.15,198.89,296.64,195.66,294.48,194.89"/>
<path d="M300.58,166.67c0.07-4.09-0.12-8.37,1.05-12.34c1.18-4,3.77-7.37,6.39-10.55c2.6-3.15,5.27-6.22,7.46-9.69
	c2.34-3.69,4.22-7.6,5.64-11.73c-1.13-0.19-2.26-0.38-3.38-0.57c-0.02,7.77-3.6,14.93-6.94,21.75c-1.92,3.92-3.84,7.83-5.76,11.75
	c-1.91,3.9-3.55,8.65-6.87,11.59c-1.69,1.5,0.32,4.42,2.03,2.91c3.5-3.1,5.3-7.38,7.32-11.5c2.17-4.43,4.34-8.87,6.51-13.3
	c3.65-7.45,7.21-15.08,7.24-23.54c0-1.74-2.82-2.21-3.39-0.57c-1.49,4.34-3.47,8.51-6.04,12.31c-2.45,3.63-5.46,6.82-8.14,10.27
	c-2.49,3.2-4.66,6.68-5.68,10.64c-1.08,4.17-0.9,8.6-0.97,12.87C297.01,169.28,300.54,168.93,300.58,166.67"/>
<path d="M293.25,132.27c-7.64-3.82-15.92-5.68-24.24-7.35c-0.04,1.17-0.08,2.34-0.13,3.52c3.88-0.16,7.62-1.64,11.51-1.56
	c3.73,0.08,7.15,2.1,9.2,5.18c1.27,1.91,4.17-0.13,2.91-2.03c-2.42-3.65-6.5-6.22-10.89-6.62c-4.45-0.4-8.66,1.31-13.06,1.49
	c-2.07,0.09-2.05,3.13-0.13,3.52c8.04,1.62,15.98,3.4,23.36,7.09C293.84,136.53,295.3,133.29,293.25,132.27"/>
<path d="M281.15,106.59c-2.15-2.62-4.5-5.09-6.52-7.83c-1.7-2.31-3.59-5.19-3.2-8.2c0.23-1.76,0.86-3.43,1.03-5.21
	c0.18-1.89,0.17-3.8,0.06-5.7c-0.25-4.08-0.96-8.12-1.15-12.21l-3.22,1.18c8.78,10.71,12.79,24.83,10.8,38.55
	c-0.33,2.26,3.17,2.85,3.5,0.58c2.11-14.57-2.04-29.76-11.39-41.16c-1.12-1.36-3.31-0.66-3.22,1.18c0.2,4.17,0.94,8.3,1.17,12.47
	c0.11,2.03,0.09,4.06-0.24,6.07c-0.29,1.77-0.95,3.42-0.92,5.24c0.11,6.79,6.41,12.22,10.39,17.06
	C279.68,110.37,282.6,108.35,281.15,106.59"/>
<path d="M267.65,299.33c-14.95-8.73-22.75-24.96-28.42-40.63c-2.93-8.09-5.61-16.28-8.38-24.43c-2.66-7.81-5.13-15.62-10.14-22.3
	c-5.45-7.28-12.65-12.99-19.73-18.58c-1.07-0.85-2.44,0.79-1.36,1.64c6.53,5.15,13.16,10.37,18.38,16.91
	c5.46,6.85,8.07,14.88,10.85,23.06c2.77,8.15,5.46,16.33,8.38,24.43c2.8,7.74,5.97,15.4,10.32,22.41
	c4.86,7.85,11.21,14.75,19.22,19.43C267.96,301.96,268.83,300.01,267.65,299.33"/>
<path d="M237.12,150.58c8.9,6.86,17.57,13.83,25.07,22.24c6.85,7.68,13.48,15.9,22.94,20.46c1.23,0.6,2.11-1.34,0.88-1.94
	c-9.71-4.69-16.32-13.43-23.41-21.23c-7.24-7.97-15.61-14.62-24.11-21.17C237.4,148.11,236.04,149.74,237.12,150.58"/>
<path d="M287.11,229.19c2.79-4.09,5.61-8.22,9.16-11.71c3.43-3.38,7.39-6.06,10.38-9.9c3.08-3.97,5.77-8.28,8.59-12.43
	c2.92-4.28,5.83-8.57,8.75-12.85c0.77-1.12-0.87-2.49-1.64-1.36c-2.92,4.28-5.83,8.57-8.75,12.85c-2.83,4.15-5.51,8.46-8.59,12.43
	c-2.97,3.83-6.95,6.53-10.38,9.9c-3.55,3.49-6.36,7.62-9.16,11.71C284.7,228.95,286.34,230.32,287.11,229.19"/>
<path d="M279.8,105.49c-1.33-11.06-3.84-21.95-7.48-32.48c-0.45-1.3-2.45-0.57-2,0.73c3.59,10.36,6.06,21.06,7.36,31.95
	C277.84,107.05,279.96,106.86,279.8,105.49"/>
<path d="M259.04,223.39c3.61,4.03,6.31,8.73,7.88,13.91c0.76,2.51,1.37,5.03,2.76,7.28c1.36,2.21,3.25,3.95,5.44,5.31
	c1.16,0.72,2.03-1.22,0.88-1.94c-2.35-1.47-4.26-3.61-5.39-6.14c-1.03-2.3-1.47-4.81-2.33-7.17c-1.66-4.6-4.23-8.84-7.49-12.48
	C259.88,221.17,258.12,222.38,259.04,223.39"/>
<path d="M272.72,284.16c2.95-2.74,5.9-5.48,8.86-8.2c2.02-1.86,5.08-4.15,4.46-7.3c-0.26-1.33-2.39-1.15-2.12,0.2
	c0.26,1.32-0.5,2.34-1.35,3.27c-1.1,1.19-2.36,2.23-3.55,3.33c-2.65,2.44-5.3,4.89-7.94,7.35
	C270.09,283.73,271.73,285.08,272.72,284.16"/>
<path d="M300.84,159.48c2.43-3.76,4.85-7.51,7.28-11.27c2.35-3.64,4.85-7.24,6.89-11.07c0.64-1.21-1.3-2.08-1.94-0.88
	c-2.04,3.81-4.53,7.39-6.87,11.02c-2.33,3.61-4.67,7.23-7,10.84C298.46,159.26,300.09,160.63,300.84,159.48"/>
<path d="M297.07,323.74c5.66-25.45,28.1-43.07,51.3-52.23c27.68-10.92,57.79-12.74,86.14-21.29c14.97-4.51,29.44-10.92,41.68-20.8
	c1.59-1.29-0.67-3.52-2.25-2.25c-22.75,18.37-52.51,23.63-80.4,29.12c-27.69,5.44-56.46,12.01-78.01,31.45
	c-10.37,9.35-18.46,21.39-21.52,35.14C293.57,324.89,296.63,325.74,297.07,323.74"/>
<path d="M298.61,312.11c-2.37-14.37-0.44-29.4,5.26-42.79c2.85-6.69,6.65-13.03,11.3-18.63c5.21-6.27,11.34-11.69,17.53-16.97
	c7.46-6.37,15.1-12.53,22.89-18.49c-0.8-0.46-1.59-0.91-2.39-1.37c1.83,15.03-7.02,28.75-17.84,38.35
	c-6.08,5.4-13.17,9.58-18.84,15.46c-5.1,5.3-8.9,11.69-11.79,18.42c-3.33,7.72-5.59,15.83-7.78,23.93
	c-0.53,1.98,2.53,2.82,3.06,0.85c3.88-14.35,8.04-29.71,18.58-40.76c5.69-5.97,12.87-10.19,19.01-15.64
	c5.49-4.88,10.35-10.64,13.83-17.12c3.86-7.19,5.94-15.32,4.94-23.48c-0.13-1.03-1.31-2.19-2.39-1.37
	c-7.11,5.43-14.11,11.02-20.95,16.79c-6.5,5.47-13,11.03-18.62,17.42c-10.05,11.42-16.66,25.68-18.99,40.71
	c-1.32,8.48-1.29,17.06,0.11,25.53C295.87,314.97,298.94,314.11,298.61,312.11"/>
<path d="M300.88,309.29c9.87-12.57,23.26-22.27,38.34-27.6c17.37-6.14,35.74-5.28,53.87-5.16c10.53,0.06,21.1-0.24,31.45-2.34
	c2.02-0.41,1.14-3.39-0.84-3.06c-30.48,5.05-57.73,21.41-88.26,26.27c-8.71,1.39-17.66,1.74-26.41,0.49c-2-0.28-2.86,2.78-0.84,3.06
	c31.82,4.53,61.29-10.39,90.63-20.14c8.41-2.8,16.97-5.18,25.72-6.63c-0.28-1.02-0.56-2.04-0.84-3.06
	c-19,3.87-38.47,1.32-57.68,2.38c-8.9,0.49-17.76,1.8-26.22,4.63c-7.59,2.53-14.84,6.11-21.46,10.59
	c-7.46,5.06-14.14,11.22-19.71,18.32C297.38,308.63,299.61,310.9,300.88,309.29"/>
<path d="M366.16,264.16c-0.52-9.77,7.58-17.73,14.27-23.78c7.28-6.58,15.49-12.04,23.91-17.05c4.8-2.86,9.68-5.57,14.57-8.29
	c-0.64-0.83-1.28-1.66-1.92-2.5c-3.93,3.37-5.41,8.41-7.12,13.1c-1.76,4.83-4.4,9.09-8.07,12.71c-3.58,3.54-7.83,6.33-12.33,8.56
	c-2.3,1.14-4.67,2.13-7.1,2.98c-2.42,0.85-4.97,1.38-7.37,2.29c-5.23,1.98-10.12,6.15-11.95,11.55c-0.66,1.94,2.41,2.77,3.06,0.84
	c1.58-4.68,6.36-8.41,11-9.75c4.79-1.38,9.47-2.95,13.95-5.17c8.67-4.3,16.62-10.9,20.57-19.93c2.22-5.08,3.19-11.17,7.6-14.94
	c1.4-1.2-0.39-3.35-1.93-2.5c-9.12,5.06-18.25,10.15-26.81,16.13c-8.18,5.71-16.34,12.29-22.24,20.42
	c-3.24,4.46-5.56,9.71-5.26,15.32C363.09,266.2,366.27,266.21,366.16,264.16"/>
<path d="M418.95,254.26c5.31-0.38,11,0.86,15.63,3.53c4.34,2.5,7.43,6.7,11.66,9.4c8,5.12,18.18,6.5,27.27,3.78
	c0.98-0.29,1.48-1.43,0.95-2.33c-1.24-2.11-3.4-3.75-5.24-5.33c-1.99-1.7-4.06-3.3-6.22-4.77c-4.27-2.91-8.91-5.29-13.8-6.96
	c-9.65-3.29-20.98-3.9-30.66-0.44c-1.91,0.68-1.09,3.75,0.84,3.06c9.04-3.23,19.43-2.7,28.47,0.27c4.57,1.5,8.88,3.71,12.89,6.36
	c2.03,1.34,3.97,2.8,5.83,4.37c1.73,1.46,3.99,3.06,5.15,5.03c0.32-0.78,0.63-1.56,0.95-2.33c-9.1,2.73-19.38,0.95-26.9-4.92
	c-3.86-3.02-6.92-6.83-11.48-8.89c-4.79-2.17-10.05-3.38-15.33-3C416.92,251.23,416.9,254.41,418.95,254.26"/>
<path d="M449.29,243.09c0.33-6.01,1.65-11.95,3.77-17.59c1.06-2.83,2.36-5.56,3.88-8.17c0.71-1.22,1.48-2.41,2.3-3.57
	c0.44-0.61,2.25-3.66,3.13-3.49c-0.37-0.37-0.74-0.74-1.11-1.11c0.88,3.53,1.45,7.1,1.64,10.73c0.19,3.48,0.27,6.58-2.21,9.29
	c-3.99,4.36-8.65,8.15-12.9,12.25c-1.47,1.42,0.78,3.67,2.25,2.25c2.44-2.36,4.93-4.65,7.41-6.96c2.29-2.14,4.82-4.22,6.69-6.75
	c2.14-2.89,2.12-6.32,1.95-9.77c-0.19-4.01-0.81-7.99-1.77-11.88c-0.12-0.5-0.59-1.01-1.11-1.11c-3.36-0.63-5.51,3.18-7.14,5.56
	c-2.05,2.99-3.73,6.21-5.14,9.54c-2.78,6.59-4.43,13.64-4.82,20.78C446,245.13,449.18,245.13,449.29,243.09"/>
<path d="M472.45,232.63c2.33-3.92,6.84-5.48,11.06-6.43c5.78-1.3,11.6-0.82,17.44-0.24c-0.37-0.9-0.75-1.81-1.12-2.71
	c-3.88,3.39-7.88,6.91-12.69,8.92c-2.23,0.93-4.64,1.5-7.06,1.53c-1.16,0.01-2.31-0.08-3.44-0.35c-0.4-0.09-3.6-0.96-3.43-1.52
	c0.6-1.96-2.47-2.8-3.06-0.85c-0.99,3.25,3.2,4.85,5.65,5.42c3.07,0.73,6.3,0.55,9.34-0.23c6.61-1.7,11.92-6.3,16.94-10.68
	c1.14-0.99,0.12-2.59-1.12-2.71c-6.45-0.64-12.78-1.01-19.13,0.55c-4.78,1.17-9.51,3.31-12.11,7.69
	C468.66,232.79,471.4,234.39,472.45,232.63"/>
<path d="M368.34,256.54c5.99-8.2,15.47-12.8,23.77-18.22c8.87-5.8,16.88-12.85,23.81-20.86c0.8-0.92-0.54-2.28-1.35-1.35
	c-7.18,8.31-15.52,15.58-24.81,21.46c-8.22,5.21-17.2,9.99-23.07,18.02C365.97,256.57,367.62,257.52,368.34,256.54"/>
<path d="M352.98,216.95c-5.82,13.59-17.65,22.91-28.25,32.65c-5.35,4.92-10.52,10.1-14.63,16.13c-4.03,5.91-6.88,12.58-8.8,19.46
	c-2.18,7.83-3.2,15.94-3.67,24.04c-0.07,1.23,1.84,1.22,1.91,0c0.82-14.36,3.51-29.12,11.44-41.38
	c7.94-12.27,20.25-20.69,30.32-31.04c5.4-5.55,10.25-11.72,13.31-18.89C355.1,216.8,353.46,215.83,352.98,216.95"/>
<path d="M352.36,216.41c-3.13,6.12-9.38,10.06-14.4,14.5c-5.32,4.71-10.37,9.71-15.12,14.99c-4.81,5.33-9.31,10.95-13.49,16.79
	c-4.21,5.88-8.04,11.89-9.46,19.09c-1.65,8.42-1.54,17.23-0.33,25.7c0.17,1.21,2.01,0.7,1.84-0.51c-1.09-7.66-1.18-15.6,0.08-23.25
	c1.23-7.46,4.88-13.54,9.2-19.61c8.17-11.51,17.67-22.09,28.22-31.47c5.27-4.69,11.82-8.82,15.12-15.26
	C354.57,216.28,352.92,215.32,352.36,216.41"/>
<path d="M310.94,299.12c5.64-2.32,11.28-4.65,17.11-6.47c6.04-1.88,12.22-2.95,18.48-3.78c12.5-1.65,24.9-3.81,37.28-6.19
	c6.83-1.31,13.74-2.47,20.21-5.13c1.12-0.46,0.63-2.31-0.51-1.84c-5.59,2.3-11.52,3.46-17.43,4.6c-6.27,1.21-12.53,2.41-18.82,3.52
	c-6.48,1.14-12.99,2.13-19.51,2.98c-5.93,0.77-11.85,1.61-17.62,3.24c-6.74,1.9-13.23,4.57-19.69,7.24
	C309.31,297.74,309.8,299.59,310.94,299.12"/>
<path d="M311.37,297.7c4.08-3.85,10.08-5.91,15.28-7.74c5.69-1.99,11.54-3.37,17.49-4.32c12.43-1.99,24.95-3.52,37.42-5.25
	c7.07-0.98,14.14-1.97,21.22-2.95c1.21-0.17,0.69-2-0.51-1.84c-12.9,1.79-25.79,3.58-38.69,5.38c-12.38,1.72-24.99,2.87-36.88,6.95
	c-5.71,1.96-12.21,4.21-16.68,8.42C309.12,297.2,310.47,298.54,311.37,297.7"/>
<path d="M313.42,300.03c9.74,0.03,19.48-1.31,28.83-4.07c4.88-1.44,9.53-3.4,14.27-5.22c4.73-1.82,9.49-2.93,14.49-3.74
	c5.85-0.95,11.7-1.89,17.55-2.83c1.21-0.2,0.7-2.03-0.51-1.84c-6.54,1.05-13.09,2.06-19.62,3.17c-6.32,1.08-12.06,3.28-18,5.61
	c-11.81,4.64-24.32,7.04-37.01,7C312.19,298.12,312.19,300.03,313.42,300.03"/>
<path d="M367.36,258.78c6.6-6.77,15.65-11.06,23.86-15.5c9.47-5.13,18.92-11.55,23.34-21.73c0.48-1.11-1.16-2.09-1.65-0.96
	c-4.49,10.33-14.2,16.5-23.78,21.65c-8,4.31-16.71,8.61-23.12,15.2C365.15,258.31,366.5,259.66,367.36,258.78"/>
<path d="M427.72,253.38c8.33,0.02,15.99,2.76,23.14,6.88c3.35,1.93,6.57,4.09,9.75,6.28c2.91,2,5.86,4,9.5,4.16
	c1.23,0.05,1.22-1.85,0-1.91c-3.97-0.17-7.26-3.04-10.4-5.17c-3.2-2.17-6.45-4.27-9.86-6.11c-6.88-3.7-14.27-6.02-22.13-6.04
	C426.49,251.47,426.49,253.37,427.72,253.38"/>
<path d="M450.19,240.78c1.58-5.11,5.43-8.98,8.22-13.43c1.46-2.32,2.51-4.83,3.31-7.44c0.91-2.97,1.69-6.04,1.5-9.17
	c-0.07-1.22-1.98-1.23-1.91,0c0.19,3.14-0.64,6.21-1.59,9.17c-0.88,2.75-2.11,5.26-3.73,7.65c-2.79,4.12-6.15,7.87-7.65,12.71
	C447.99,241.45,449.83,241.95,450.19,240.78"/>
<path d="M472.16,231.41c4.18-2.18,9.56-1.41,14.11-1.6c4.93-0.2,10.13-0.92,14.04-4.17c0.95-0.78-0.41-2.13-1.35-1.35
	c-3.96,3.29-9.64,3.59-14.57,3.65c-4.34,0.06-9.22-0.25-13.19,1.82C470.11,230.33,471.07,231.97,472.16,231.41"/>
<path d="M158.88,324.05c-2.49-17.17-4.98-34.34-6.93-51.58c-1.66-14.66-2.97-29.42-2.36-44.18c0.59-14.28,3.11-28.67,9.14-41.72
	c7.04-15.22,18.75-27.83,31.27-38.76c13.86-12.1,29.43-22.24,46.1-30.01c-0.68-0.76-1.36-1.53-2.04-2.3
	c-10.79,27.64-37.29,44.55-52.48,69.36c-7.52,12.29-11.49,26.27-13.9,40.37c-2.53,14.81-3.74,29.85-5.34,44.77
	c-1.95,18.24-3.91,36.47-5.86,54.71c-0.23,2.12,3.04,2.76,3.27,0.62c1.72-16.04,3.44-32.08,5.16-48.12
	c1.64-15.29,2.95-30.65,5.18-45.86c2.05-14.03,5.26-28.09,11.99-40.68c6.9-12.91,17.14-23.59,27.01-34.25
	c10.98-11.87,22.02-24.22,27.98-39.49c0.46-1.18-0.62-2.96-2.03-2.3c-15.27,7.11-29.63,16.08-42.64,26.79
	c-12.93,10.65-25.23,22.88-33.53,37.56c-14.8,26.18-13.98,57.63-11.01,86.62c2.01,19.62,4.86,39.14,7.69,58.65
	C155.87,326.39,159.19,326.17,158.88,324.05"/>
<path d="M160.42,320.96c-6.53-22.7-13.65-45.33-23.5-66.84c-9.91-21.64-22.66-41.77-39.42-58.77
	c-10.39-10.54-21.86-19.92-33.3-29.28c-1.21-0.99-3.32,0.19-2.67,1.79c9.02,22.06,18.31,44.16,33.24,62.98
	c7.69,9.7,15.76,18.96,22.48,29.4c6.37,9.88,11.94,20.24,17.54,30.57c6.33,11.67,12.72,23.33,20.28,34.26
	c1.22,1.76,4-0.08,2.78-1.84c-13.34-19.29-22.95-40.79-35.23-60.72c-6.34-10.29-13.71-19.63-21.38-28.95
	c-7.73-9.4-14.51-19.28-20.17-30.06c-6.24-11.86-11.31-24.29-16.37-36.69c-0.89,0.6-1.78,1.19-2.67,1.79
	c10.02,8.19,20.05,16.4,29.36,25.39c8.76,8.45,16.69,17.65,23.6,27.68c13.21,19.2,22.69,40.66,30.41,62.57
	c4.39,12.46,8.22,25.11,11.88,37.8C157.86,324.09,161.01,323.01,160.42,320.96"/>
<path d="M232.1,118.92c-15.79,24.68-45.12,36.1-62.25,59.63c-3.95,5.42-7.11,11.34-9.12,17.75c-2.03,6.48-2.85,13.26-3.29,20.01
	c-0.95,14.68-1.19,29.43-1.74,44.13c-0.64,17.19-1.28,34.39-1.92,51.58c-0.08,2.14,3.24,1.89,3.32-0.23
	c1.12-30.01,2.07-60.04,3.36-90.04c0.29-6.63,0.75-13.3,2.2-19.8c1.49-6.7,4.19-13,7.97-18.74c7.65-11.61,18.65-20.49,29.51-28.93
	c12.87-10,26.06-20.02,34.96-33.93C236.25,118.56,233.24,117.13,232.1,118.92"/>
<path d="M66.27,173.53c3.96,3.77,7.95,7.55,11.28,11.9c3.32,4.35,5.66,9.31,8.63,13.89c2.95,4.55,6.62,8.55,9.98,12.79
	c3.42,4.31,6.43,8.91,9.28,13.61c11.54,19.07,22.09,38.81,32.15,58.7c5.76,11.38,11.29,22.86,16.63,34.44
	c0.89,1.93,4.05,0.88,3.15-1.07c-9.45-20.53-19.55-40.76-30.31-60.64c-5.41-10-10.98-19.93-16.74-29.74
	c-2.84-4.83-5.77-9.62-9.09-14.15c-3.27-4.46-7.04-8.52-10.32-12.98c-3.67-4.99-6.21-10.7-9.84-15.71
	c-3.64-5.01-8.14-9.32-12.61-13.57C66.91,169.54,64.72,172.05,66.27,173.53"/>
<path d="M221.84,134.45c-7.75,10.74-18.23,18.93-27.95,27.76c-9.77,8.87-18.65,18.73-23.21,31.32c-2.21,6.1-3.44,12.49-4.55,18.87
	c-1.13,6.54-2.25,13.09-3.3,19.64c-2.08,12.99-3.82,26.04-4.54,39.18c-0.8,14.64,0.22,29.39-1.99,43.93
	c-0.19,1.27,1.77,1.65,1.96,0.37c1.9-12.48,1.42-25.11,1.75-37.68c0.35-13.27,1.89-26.47,3.87-39.59
	c0.98-6.47,2.06-12.92,3.16-19.37c1.09-6.41,2.07-12.86,3.77-19.15c1.79-6.65,4.59-12.96,8.48-18.65
	c3.63-5.31,8.06-10.02,12.71-14.44c10.64-10.11,22.68-18.9,31.35-30.9C224.1,134.73,222.6,133.41,221.84,134.45"/>
<path d="M228.45,119.92c-9.33,6.7-18.48,13.67-27.4,20.92c-8.66,7.03-17.24,14.24-25.12,22.16c-7.67,7.71-14.65,16.19-19.98,25.7
	c-2.52,4.51-4.76,9.26-5.93,14.32c-1.13,4.93-1.06,10.03-0.68,15.04c0.95,12.76,2.37,25.5,3.65,38.22c0.13,1.28,2.12,1.14,1.99-0.14
	c-1.11-11.07-2.18-22.14-3.21-33.22c-0.47-5.04-0.99-10.14-0.49-15.19c0.52-5.25,2.35-10.16,4.71-14.85
	c9.9-19.65,26.88-34.56,43.62-48.3c9.73-7.99,19.72-15.65,29.94-22.99C230.6,120.84,229.49,119.17,228.45,119.92"/>
<path d="M65.06,173.11c9.72,13.5,18.98,27.31,27.87,41.37c4.49,7.09,8.91,14.23,13.34,21.35c4.33,6.96,8.83,13.84,12.79,21.01
	c4.41,7.98,7.84,16.44,11.14,24.92c0.47,1.2,2.36,0.56,1.89-0.64c-2.91-7.47-5.92-14.91-9.59-22.04
	c-3.73-7.26-8.21-14.12-12.52-21.05c-8.86-14.24-17.64-28.53-26.94-42.49c-5.3-7.95-10.74-15.8-16.32-23.55
	C65.98,170.97,64.31,172.07,65.06,173.11"/>
<path d="M140.11,88.99c-0.55-3.94,2.07-7.55,4.81-10.08c2.89-2.67,6.35-4.7,9.83-6.49c6.92-3.56,14.26-6.32,20.45-11.17
	c-0.7-0.41-1.39-0.81-2.09-1.22c-2.73,7.59-6.6,14.97-12.58,20.51c-5.82,5.38-13.95,8.82-21.95,7.66c-1.05-0.15-1.97,0.8-1.41,1.84
	c0.18,0.33,0.36,0.67,0.54,1c0.77,1.41,2.93,0.15,2.16-1.26c-0.18-0.33-0.36-0.66-0.54-1c-0.47,0.61-0.94,1.22-1.41,1.84
	c6.69,0.97,13.4-0.74,19.11-4.28c5.85-3.62,10.38-9.01,13.73-14.97c1.91-3.4,3.45-7,4.77-10.67c0.47-1.31-1.22-1.9-2.09-1.22
	c-6.62,5.2-14.76,7.86-22.05,11.91c-6.59,3.66-14.86,9.69-13.68,18.26C137.92,91.24,140.32,90.57,140.11,88.99"/>
<path d="M139.3,89.65c4.01-5.81,9.67-10.22,15.81-13.59c3.37-1.86,6.79-3.51,9.92-5.78c3.07-2.23,5.92-4.74,8.76-7.25
	c0.72-0.64-0.34-1.7-1.06-1.06c-3.02,2.68-6.06,5.37-9.38,7.68c-3.19,2.21-6.71,3.8-10.06,5.73c-5.96,3.42-11.36,7.85-15.28,13.53
	C137.45,89.68,138.75,90.44,139.3,89.65"/>
<path d="M139.5,90.28c5.12-4.92,11.94-7.26,18.02-10.7c6.2-3.51,11.16-8.53,15.1-14.43c0.54-0.8-0.76-1.56-1.29-0.76
	c-4.05,6.07-9.18,11.01-15.61,14.48c-5.92,3.19-12.34,5.62-17.27,10.35C137.74,89.89,138.8,90.95,139.5,90.28"/>
<path d="M117.05,130.92c-0.76,8,2.09,16.23,7.68,22.01c5.6,5.78,13.75,8.86,21.76,8.36c1.44-0.09,1.66-1.96,0.33-2.46
	c-3.09-1.15-5.62-3.43-7.47-6.13c-2-2.91-2.94-6.13-4.18-9.39c-1.29-3.42-3.31-5.91-6.33-7.97c-3.35-2.28-6.91-4.27-10.37-6.38
	c-1.38-0.84-2.64,1.32-1.26,2.16c3.57,2.18,7.28,4.21,10.7,6.61c1.49,1.05,2.83,2.29,3.75,3.89c0.93,1.61,1.46,3.4,2.06,5.15
	c2.14,6.25,6.01,12.09,12.42,14.47c0.11-0.82,0.22-1.64,0.33-2.46c-7.39,0.46-14.82-2.29-19.99-7.63
	c-5.17-5.34-7.65-12.88-6.95-20.24C119.7,129.32,117.2,129.33,117.05,130.92"/>
<path d="M118.66,132.57c2.53,2.1,4.22,4.7,5.46,7.73c1.21,2.95,2.46,5.72,4.24,8.38c3.35,5.01,7.45,9.12,13.42,10.73
	c0.93,0.25,1.33-1.2,0.4-1.45c-6.19-1.67-10.22-6.25-13.49-11.52c-1.61-2.6-2.57-5.44-3.84-8.2c-1.2-2.61-2.93-4.89-5.14-6.73
	C118.98,130.89,117.91,131.95,118.66,132.57"/>
</svg>
