<?xml version="1.0" encoding="utf-8"?>
<!-- Generator: Adobe Illustrator 24.1.0, SVG Export Plug-In . SVG Version: 6.00 Build 0)  -->
<svg version="1.1" id="Calque_1" xmlns="http://www.w3.org/2000/svg" xmlns:xlink="http://www.w3.org/1999/xlink" x="0px" y="0px"
	 viewBox="0 0 595.28 284" style="enable-background:new 0 0 595.28 284;" xml:space="preserve">
<style type="text/css">
	.st0{fill:none;stroke:#000000;stroke-miterlimit:10;}
	.st1{fill:none;}
	.st2{font-family:'MyriadPro-Regular';}
	.st3{font-size:12px;}
	.st4{stroke:#000000;stroke-miterlimit:10;}
</style>
<path class="st0" d="M137.83,267.68c-3.61-6.63-6.33-26.51-2.11-40.36c-3.61-13.86-6.33-10.84-10.24-12.95
	c-3.92-2.11-31.33-2.41-44.58,9.64c-4.52-4.22,4.22-27.11,31.63-24.1c-1.81-3.61-12.65-3.61-15.06-4.22
	c-2.41-0.6,1.51-5.42-1.81-5.72c-3.31-0.3-4.52-3.61-9.64-3.61s-25.3,1.51-34.94,14.46c0-14.46,15.36-39.46,50-40.66
	c11.15,1.51,18.37,8.74,24.1,8.43c0,0-1.51-13.55,13.86-12.65c15.36,0.9,19.58,2.11,24.4,1.51c4.82-0.6,6.63-0.9,6.33,4.22
	c-0.3,5.12-5.42,7.77-5.12,9.91c0.3,2.14,8.13-0.57,12.65-2.68s6.02-3.61,12.35-3.61c6.33,0,27.11,7.83,29.82,10.54
	s12.35,12.35,12.95,18.07s5.72,17.13,3.61,17.9s-11.54-15.59-31.63-17.6c-6.02-0.6-3.92,2.11-8.13,2.11c-4.22,0-3.01,5.72-5.72,5.72
	s-11.15,0-15.36,2.11c7.53,1.51,28.01,3.31,30.42,16.57c2.41,13.25-0.3,11.15-0.3,11.15s-23.19-21.39-41.87-17.17
	c0,0-7.83,10.84-10.54,10.84s-12.95,8.13-11.75,27.71C142.35,272.8,137.83,267.68,137.83,267.68z"/>
<path class="st0" d="M112.53,199.91c0,0,17.17,7.23,21.69,7.23s-14.46-2.41-3.31-24.1s16.57-38.56,14.46-50.3
	c0,0-6.33-6.02-3.31-8.13c3.01-2.11,3.76,1.81,3.76,1.81s0.46-5.12,3.77-4.52c3.31,0.6,1.51,5.12,0,8.43s-1.69,28.31,1.87,38.56
	c3.55,10.24,15.9,25.9,2.35,38.25c10.54,0,21.39-3.01,21.39-3.01"/>
<path class="st0" d="M119.56,153.29c0.81,7.28,0.29,32.76,7.82,40.84"/>
<path class="st0" d="M109.75,164.49c2.66,5.42,12.92,33.63,18.43,35.54"/>
<path class="st0" d="M133.9,148.93c-1.52,7.72-8.02,37.23-6.21,42.87"/>
<path class="st0" d="M158.77,150.97c0.31,6.58,3.38,27.22,3.58,31.73s1.34,11.64-2.91,15.54"/>
<path class="st0" d="M171.87,157.73c-1.84,8.9-5.54,38.96-13,42.3"/>
<path class="st0" d="M182.41,164.49c-2.87,7.36-18.02,40.54-24.77,38.02"/>
<path d="M106.65,155.94c5.2-0.95,6.25,10.31,2.91,10.61C106.21,166.84,103.45,156.52,106.65,155.94z"/>
<path d="M115.38,146.28c5.16-3.23,7.37,4.09,5.36,7.01C118.73,156.22,113.78,147.28,115.38,146.28z"/>
<path d="M171.65,150.72c6.06,0.59,3.35,7.73-0.02,8.82S169.77,150.54,171.65,150.72z"/>
<path d="M131.93,143.06c2.91-1.6,6.25,6.4,2.91,6.61S129.02,144.66,131.93,143.06z"/>
<path d="M153.34,96.11c2.91-1.6,6.25,6.4,2.91,6.61C152.91,102.94,150.44,97.71,153.34,96.11z"/>
<path d="M181.32,161.92c0.68-3.51,4.87,2.07,1.53,3.58S180.96,163.81,181.32,161.92z"/>
<path d="M159.43,146.17c3.31,0.25,1.73,8.77-1.18,7.13C155.33,151.65,156.12,145.92,159.43,146.17z"/>
<path class="st0" d="M410.53,266.75c-3.61-6.63-6.33-26.51-2.11-40.36c-3.61-13.86-6.33-10.84-10.24-12.95
	c-3.92-2.11-31.33-2.41-44.58,9.64c-4.52-4.22,4.22-27.11,31.63-24.1c-1.81-3.61-12.65-3.61-15.06-4.22s1.51-5.42-1.81-5.72
	c-3.31-0.3-4.52-3.61-9.64-3.61c-5.12,0-25.3,1.51-34.94,14.46c0-14.46,15.36-39.46,50-40.66c11.15,1.51,18.37,8.74,24.1,8.43
	c0,0-1.51-13.55,13.86-12.65c15.36,0.9,19.58,2.11,24.4,1.51s6.63-0.9,6.33,4.22c-0.3,5.12-5.42,7.77-5.12,9.91
	c0.3,2.14,8.13-0.57,12.65-2.68s6.02-3.61,12.35-3.61c6.33,0,27.11,7.83,29.82,10.54s12.35,12.35,12.95,18.07
	c0.6,5.72,5.72,17.13,3.61,17.9s-11.54-15.59-31.63-17.6c-6.02-0.6-3.92,2.11-8.13,2.11c-4.22,0-3.01,5.72-5.72,5.72
	c-2.71,0-11.15,0-15.36,2.11c7.53,1.51,28.01,3.31,30.42,16.57s-0.3,11.15-0.3,11.15s-23.19-21.39-41.87-17.17
	c0,0-7.83,10.84-10.54,10.84c-2.71,0-12.95,8.13-11.75,27.71S410.53,266.75,410.53,266.75z"/>
<path class="st0" d="M385.23,198.98c0,0,17.17,7.23,21.69,7.23s-14.46-2.41-3.31-24.1s16.57-38.56,14.46-50.3
	c0,0-6.33-6.02-3.31-8.13c3.01-2.11,3.76,1.81,3.76,1.81s0.46-5.12,3.77-4.52c3.31,0.6,1.51,5.12,0,8.43
	c-1.51,3.31-1.69,28.31,1.87,38.56s15.9,25.9,2.35,38.25c10.54,0,21.39-3.01,21.39-3.01"/>
<path class="st0" d="M392.26,152.37c0.81,7.28,0.29,32.76,7.82,40.84"/>
<path class="st0" d="M382.45,163.56c2.66,5.42,12.92,33.63,18.43,35.54"/>
<path class="st0" d="M406.6,148c-1.52,7.72-8.02,37.23-6.21,42.87"/>
<path class="st0" d="M431.47,150.04c0.31,6.58,3.38,27.22,3.58,31.73s1.34,11.64-2.91,15.54"/>
<path class="st0" d="M444.57,156.8c-1.84,8.9-5.54,38.96-13,42.3"/>
<path class="st0" d="M455.11,163.56c-2.87,7.36-18.02,40.54-24.77,38.02"/>
<path d="M379.35,155.01c5.2-0.95,6.25,10.31,2.91,10.61S376.15,155.59,379.35,155.01z"/>
<path d="M388.08,145.35c5.16-3.23,7.37,4.09,5.36,7.01C391.43,155.29,386.48,146.35,388.08,145.35z"/>
<path d="M444.34,149.79c6.06,0.59,3.35,7.73-0.02,8.82S442.47,149.61,444.34,149.79z"/>
<path d="M404.62,142.13c2.91-1.6,6.25,6.4,2.91,6.61S401.72,143.73,404.62,142.13z"/>
<path d="M454.02,161c0.68-3.51,4.87,2.07,1.53,3.58S453.66,162.88,454.02,161z"/>
<path d="M432.13,145.24c3.31,0.25,1.73,8.77-1.18,7.13C428.03,150.72,428.82,144.99,432.13,145.24z"/>
<rect x="296.35" y="26.03" class="st1" width="58.49" height="14.07"/>
<text transform="matrix(1 0 0 1 296.3501 34.5494)" class="st2 st3">Pollenator </text>
<rect x="225.74" y="60.95" class="st1" width="39.43" height="14.07"/>
<text transform="matrix(1 0 0 1 225.7448 69.4671)" class="st2 st3">Pollen</text>
<rect x="396.79" y="74.11" class="st1" width="39.43" height="14.07"/>
<text transform="matrix(1 0 0 1 396.7861 82.6333)" class="st2 st3">Pollen</text>
<rect x="455.83" y="119.76" class="st1" width="39.43" height="14.07"/>
<text transform="matrix(1 0 0 1 455.8254 128.2808)" class="st2 st3">Stigma</text>
<rect x="306.93" y="204.12" class="st1" width="39.43" height="14.07"/>
<text transform="matrix(1 0 0 1 306.9267 212.6428)" class="st2 st3">Ovule</text>
<rect x="53.03" y="135.81" class="st1" width="39.43" height="25.4"/>
<text transform="matrix(1 0 0 1 53.0317 144.3337)"><tspan x="0" y="0" class="st2 st3">Pollen</tspan><tspan x="0" y="14.4" class="st2 st3">grains</tspan></text>
<rect x="514.98" y="178.33" class="st1" width="39.43" height="14.07"/>
<text transform="matrix(1 0 0 1 514.9778 186.8498)" class="st2 st3">Ovary</text>
<line class="st0" x1="90.85" y1="147.75" x2="115.38" y2="147.75"/>
<path d="M145.88,86.99c6.06,0.59,3.35,7.73-0.02,8.82C142.48,96.91,144,86.81,145.88,86.99z"/>
<path d="M159.75,83.59c5.16-3.23,7.37,4.09,5.36,7.01C163.1,93.53,158.15,84.59,159.75,83.59z"/>
<path d="M139.77,101.31c0.68-3.51,4.87,2.07,1.53,3.58C137.96,106.4,139.41,103.2,139.77,101.31z"/>
<path class="st0" d="M123.47,135.44c1.5-6.54,9.96-17.29,9.96-17.29"/>
<path class="st0" d="M165.85,73.75c10.54-7.48,37.18-28.98,56.34-30.85"/>
<path class="st0" d="M302.11,40.1c13.09,2.8,44.4,20.1,49.07,22.9"/>
<path class="st0" d="M396.17,99.32c0,0,6.02,4.81,9.96,10.42"/>
<path d="M376.42,93.46c2.91-1.6,6.25,6.4,2.91,6.61C375.99,100.28,373.52,95.06,376.42,93.46z"/>
<path d="M368.96,84.34c6.06,0.59,3.35,7.73-0.02,8.82C365.56,94.26,367.08,84.16,368.96,84.34z"/>
<path d="M382.83,80.94c5.16-3.23,7.37,4.09,5.36,7.01S381.23,81.94,382.83,80.94z"/>
<path d="M374.05,77.18c0.68-3.51,4.87,2.07,1.53,3.58C372.23,82.26,373.68,79.07,374.05,77.18z"/>
<line class="st4" x1="241.96" y1="58.32" x2="251.92" y2="42.9"/>
<line class="st0" x1="90.85" y1="147.75" x2="115.38" y2="147.75"/>
<line class="st0" x1="423.07" y1="124.73" x2="447.6" y2="124.73"/>
<line class="st0" x1="429.14" y1="183.57" x2="506.94" y2="183.57"/>
<path class="st0" d="M245.93,36.6c-1.84-1.77,1.9-6.45,8.55-8.22c3.56-0.95,7.96-1.06,12.78,0.56
	C281.08,33.59,256.32,46.58,245.93,36.6z"/>
<path class="st0" d="M274.1,24.7c0-2.46-1.23-16-7.8-15.59c-6.56,0.41-3.15,4.38-3.15,4.38s-5.2-4.1-10.39-2.6s-2.6,8.07,0,9.71
	c-5.06,0.96,1.71,7.78,1.71,7.78"/>
<path class="st0" d="M267.26,28.94c5.33-3.69,6.78-5.06,12.96-3.83s6.32,9.85,3.72,12.04c-2.6,2.19-9.82,4.21-17.22,0.6"/>
<g>
	<path d="M262.1,40.13c-0.95,1.78-1.86,3.72-2.97,5.52c-0.56,0.9-1.16,1.78-1.86,2.58c-0.7,0.78-1.55,1.54-2.58,1.77
		c0.98-0.4,1.63-1.23,2.18-2.08c0.54-0.86,0.98-1.79,1.37-2.73c0.39-0.94,0.73-1.92,1.06-2.89c0.33-0.98,0.62-1.96,0.98-2.99
		L262.1,40.13z"/>
</g>
<g>
	<path d="M267.65,38.17c-0.95,1.78-1.86,3.72-2.97,5.52c-0.56,0.9-1.16,1.78-1.86,2.58c-0.7,0.78-1.55,1.54-2.58,1.77
		c0.98-0.4,1.63-1.23,2.18-2.08c0.54-0.86,0.98-1.79,1.37-2.73c0.39-0.94,0.73-1.92,1.06-2.89c0.33-0.98,0.62-1.96,0.98-2.99
		L267.65,38.17z"/>
</g>
<g>
	<path d="M271.18,38.56c0.43,1.97,0.98,4.05,1.29,6.13c0.16,1.05,0.27,2.11,0.24,3.17c-0.03,1.05-0.19,2.17-0.83,3.02
		c0.49-0.94,0.45-2,0.33-2.99c-0.14-1.01-0.41-2-0.72-2.97c-0.31-0.97-0.68-1.93-1.06-2.89c-0.38-0.96-0.79-1.9-1.18-2.91
		L271.18,38.56z"/>
</g>
<g>
	<path d="M275.97,39.44c0.43,1.97,0.98,4.05,1.29,6.13c0.16,1.05,0.27,2.11,0.24,3.17c-0.03,1.05-0.19,2.17-0.83,3.02
		c0.49-0.94,0.45-2,0.33-2.99c-0.14-1.01-0.41-2-0.72-2.97c-0.31-0.97-0.68-1.93-1.06-2.89c-0.38-0.96-0.79-1.9-1.18-2.91
		L275.97,39.44z"/>
</g>
<polygon points="220.55,37.76 223.04,48.04 238.97,38.84 "/>
<polygon points="408.34,106.8 402.58,110.64 411.75,117.83 "/>
<polygon points="128.45,120.77 134.62,123.91 136.38,112.39 "/>
<polygon points="347.99,54.89 342.64,64.01 360.49,68.46 "/>
</svg>
